<svg width="331" height="19" viewBox="0 0 331 19" fill="none" xmlns="http://www.w3.org/2000/svg">
<rect x="120" y="8.45557" width="16" height="2" fill="#D1D5DB"/>
<ellipse cx="321.831" cy="9.45559" rx="9.16897" ry="9.45559" fill="#9CA3AF"/>
<path d="M318.488 9.94804L320.398 11.9179L325.174 6.99316" stroke="#F7F7F7" stroke-width="2" stroke-linecap="round" stroke-linejoin="round"/>
<rect x="87" y="8.45557" width="16" height="2" fill="#E50913"/>
<path d="M225.474 9.45559C225.474 14.1547 221.788 17.9112 217.305 17.9112C212.822 17.9112 209.136 14.1547 209.136 9.45559C209.136 4.75646 212.822 1 217.305 1C221.788 1 225.474 4.75646 225.474 9.45559Z" stroke="#9CA3AF" stroke-width="2"/>
<ellipse cx="217.305" cy="9.45585" rx="2.8653" ry="2.95487" fill="#D1D5DB"/>
<rect x="227" y="8.45557" width="16" height="2" fill="#D1D5DB"/>
<path d="M260.316 9.45559C260.316 14.1547 256.63 17.9112 252.147 17.9112C247.664 17.9112 243.978 14.1547 243.978 9.45559C243.978 4.75646 247.664 1 252.147 1C256.63 1 260.316 4.75646 260.316 9.45559Z" stroke="#9CA3AF" stroke-width="2"/>
<ellipse cx="252.147" cy="9.45585" rx="2.8653" ry="2.95487" fill="#D1D5DB"/>
<rect x="262" y="8.45557" width="16" height="2" fill="#D1D5DB"/>
<path d="M295.158 9.45559C295.158 14.1547 291.472 17.9112 286.989 17.9112C282.506 17.9112 278.82 14.1547 278.82 9.45559C278.82 4.75646 282.506 1 286.989 1C291.472 1 295.158 4.75646 295.158 9.45559Z" stroke="#9CA3AF" stroke-width="2"/>
<ellipse cx="286.989" cy="9.45585" rx="2.8653" ry="2.95487" fill="#D1D5DB"/>
<rect x="296" y="8.45557" width="17" height="2" fill="#D1D5DB"/>
<path d="M190.632 9.45559C190.632 14.1547 186.946 17.9112 182.463 17.9112C177.98 17.9112 174.294 14.1547 174.294 9.45559C174.294 4.75646 177.98 1 182.463 1C186.946 1 190.632 4.75646 190.632 9.45559Z" stroke="#9CA3AF" stroke-width="2"/>
<ellipse cx="182.463" cy="9.45585" rx="2.8653" ry="2.95487" fill="#D1D5DB"/>
<rect x="192" y="8.45557" width="16" height="2" fill="#D1D5DB"/>
<rect x="155" y="8.17773" width="19" height="2" fill="#D1D5DB"/>
<path d="M119.947 9.45559C119.947 14.1547 116.261 17.9112 111.778 17.9112C107.296 17.9112 103.609 14.1547 103.609 9.45559C103.609 4.75646 107.296 1 111.778 1C116.261 1 119.947 4.75646 119.947 9.45559Z" stroke="#E50913" stroke-width="2"/>
<ellipse cx="111.778" cy="9.45585" rx="2.8653" ry="2.95487" fill="#E50913"/>
<ellipse cx="9.16897" cy="9.45559" rx="9.16897" ry="9.45559" fill="#E50913"/>
<path d="M5.82605 9.94804L7.73625 11.9179L12.5118 6.99316" stroke="white" stroke-width="2" stroke-linecap="round" stroke-linejoin="round"/>
<ellipse cx="43.169" cy="9.45559" rx="9.16897" ry="9.45559" fill="#E50913"/>
<path d="M39.826 9.94804L41.7363 11.9179L46.5118 6.99316" stroke="white" stroke-width="2" stroke-linecap="round" stroke-linejoin="round"/>
<ellipse cx="78.169" cy="9.45559" rx="9.16897" ry="9.45559" fill="#E50913"/>
<path d="M74.826 9.94804L76.7363 11.9179L81.5118 6.99316" stroke="white" stroke-width="2" stroke-linecap="round" stroke-linejoin="round"/>
<rect x="17" y="8.45557" width="17" height="2" fill="#E50913"/>
<rect x="52" y="8.45557" width="17" height="2" fill="#E50913"/>
<path d="M152.79 9.45559C152.79 14.1547 149.103 17.9112 144.621 17.9112C140.138 17.9112 136.452 14.1547 136.452 9.45559C136.452 4.75646 140.138 1 144.621 1C149.103 1 152.79 4.75646 152.79 9.45559Z" stroke="#9CA3AF" stroke-width="2"/>
<ellipse cx="144.621" cy="9.45585" rx="2.8653" ry="2.95487" fill="#D1D5DB"/>
</svg>
