<svg width="32" height="32" viewBox="0 0 32 32" fill="none" xmlns="http://www.w3.org/2000/svg">
<path d="M8.04587 0.0510998C7.71871 0.0715599 7.46312 0.132936 7.48357 0.173855C7.53469 0.327299 17.4312 13.8917 17.4823 13.8917C17.513 13.8917 18.6887 12.1834 20.0893 10.1068L22.6452 6.32184H26.3053H29.9654L29.7711 6.59804C29.6587 6.76171 27.7877 9.39072 25.6101 12.4596C23.4325 15.5285 21.6433 18.0859 21.6331 18.1575C21.6229 18.2189 23.4427 20.899 25.6612 24.1111L29.6995 29.9522L30.2005 29.41C30.8037 28.7758 31.4273 27.5176 31.642 26.5253C31.9181 25.2364 31.9999 22.9449 31.9999 15.9888C31.9999 9.03269 31.9181 6.74126 31.642 5.45233C31.2331 3.52916 29.8325 1.72875 28.1047 0.900158C27.0312 0.388678 26.2133 0.214773 24.3321 0.081789C22.9724 -0.0102768 9.43628 -0.0307369 8.04587 0.0510998ZM18.1059 2.8847C19.7417 3.67238 20.0995 5.75921 18.8114 7.03791C17.7686 8.09156 16.2043 8.09156 15.1615 7.04814C14.7117 6.59804 14.4765 6.04564 14.4356 5.29888C14.405 4.72603 14.4356 4.56235 14.6912 4.08156C15.0082 3.46778 15.5194 3.00745 16.1123 2.7824C16.6235 2.59827 17.6254 2.64942 18.1059 2.8847Z" fill="#E50913"/>
<path d="M1.49265 2.88505C1.06326 3.44768 0.521406 4.665 0.357828 5.45268C0.0817892 6.74161 0 9.03304 0 15.9892C0 25.206 0.0920128 26.3722 0.920128 28.101C1.25751 28.7864 1.50288 29.1342 2.17764 29.7991C2.99553 30.6175 4.02812 31.2926 4.19169 31.1085C4.23259 31.0676 6.29776 28.1419 8.79233 24.6025L13.301 18.1783L12.9534 17.6975C11.839 16.1426 2.00383 2.77252 1.89137 2.66C1.79936 2.54747 1.71757 2.59862 1.49265 2.88505Z" fill="#E50913"/>
<path d="M14.1701 27.1188C12.3912 29.7376 10.9395 31.9062 10.9395 31.9369C10.9395 32.0392 23.3407 32.0085 23.5043 31.9062C23.6065 31.8346 22.942 30.7401 20.6519 27.2313C19.0059 24.7046 17.6053 22.5768 17.5337 22.5052C17.4315 22.3927 16.8078 23.2418 14.1701 27.1188Z" fill="#E50913"/>
</svg>
