<svg width="24" height="24" viewBox="0 0 24 24" fill="none" xmlns="http://www.w3.org/2000/svg">
<path d="M10.7361 4H14.2639C15.0215 4 15.714 4.428 16.0528 5.10557L16.4472 5.89443C16.786 6.572 17.4785 7 18.2361 7H20C21.1046 7 22 7.89543 22 9V18C22 19.1046 21.1046 20 20 20H5C3.89543 20 3 19.1046 3 18V9C3 7.89543 3.89543 7 5 7H6.76393C7.52148 7 8.214 6.572 8.55279 5.89443L8.94721 5.10557C9.286 4.428 9.97852 4 10.7361 4Z" stroke="#1A1A1A" stroke-width="2" stroke-linecap="round"/>
<circle cx="12.5" cy="13.5" r="3.5" stroke="#1A1A1A" stroke-width="2"/>
</svg>
