<svg width="36" height="36" viewBox="0 0 36 36" fill="none" xmlns="http://www.w3.org/2000/svg">
<path d="M12 31.5C14.4853 31.5 16.5 29.4853 16.5 27C16.5 24.5147 14.4853 22.5 12 22.5C9.51472 22.5 7.5 24.5147 7.5 27C7.5 29.4853 9.51472 31.5 12 31.5Z" stroke="#757575" stroke-width="2" stroke-linecap="round" stroke-linejoin="round"/>
<path d="M7.5 15V13.8541C7.49999 12.8462 7.78065 11.8583 8.31052 11.0009C8.84039 10.1436 9.59853 9.45073 10.5 9L11.909 7.59099C12.4134 7.08658 13.0122 6.68647 13.6713 6.41349C14.3303 6.1405 15.0367 6 15.75 6C16.4633 6 17.1697 6.1405 17.8287 6.41349C18.4878 6.68647 19.0866 7.08658 19.591 7.59099L21 9C21.9015 9.45073 22.6596 10.1436 23.1895 11.0009C23.7194 11.8583 24 12.8462 24 13.8541V15" stroke="#757575" stroke-width="2" stroke-linecap="round" stroke-linejoin="round"/>
<path d="M21 26.2734L23.7839 29.3787C23.9682 29.5757 24.1869 29.7319 24.4276 29.8385C24.6683 29.9451 24.9263 30 25.1868 30C25.713 30 26.2177 29.7765 26.5898 29.3787C26.9618 28.9809 27.2912 28.3126 27.2912 27.75C27.2912 27.1874 28.6942 13.9939 28.6942 13.5C28.6942 13.0061 28.8082 12.6254 29.0262 12.19C29.2441 11.7545 29.5593 11.3833 29.9436 11.1094C30.3279 10.8354 31.5 10.5 31.5 10.5" stroke="#757575" stroke-width="2" stroke-linecap="round" stroke-linejoin="round"/>
<path d="M16.5 27H18.4939C18.8833 27 19.2688 26.9214 19.6282 26.7688C19.9875 26.6161 20.3136 26.3924 20.5875 26.1107L26.0908 20.4502C26.6733 19.8511 27 19.0423 27 18.1993C27 17.7792 26.9187 17.3631 26.7608 16.975C26.603 16.5868 26.3715 16.2341 26.0798 15.937C25.7881 15.64 25.4417 15.4043 25.0605 15.2435C24.6793 15.0827 24.2708 15 23.8582 15L6.66298 15C6.08932 15 5.53916 15.2321 5.13352 15.6451C4.72788 16.0582 4.5 16.6184 4.5 17.2026C4.5 17.7178 4.6774 18.2167 5.00132 18.6126L9.04906 23.5587" stroke="#757575" stroke-width="2" stroke-linecap="round" stroke-linejoin="round"/>
</svg>
