<svg width="343" height="67" viewBox="0 0 343 67" fill="none" xmlns="http://www.w3.org/2000/svg">
<rect x="0.5" y="11.5" width="342" height="55" rx="9.5"  stroke="#757575"/>
<rect width="48" height="20" transform="translate(16 1)" fill="#FCFCFC"/>
<path d="M22.016 7.524V10.32H25.064V11.22H22.016V14.1H25.424V15H20.924V6.624H25.424V7.524H22.016ZM31.6363 10.14V11.064H26.8483V10.14H31.6363ZM41.5937 8.304C42.1057 8.304 42.5617 8.412 42.9617 8.628C43.3617 8.836 43.6777 9.152 43.9097 9.576C44.1417 10 44.2577 10.516 44.2577 11.124V15H43.1777V11.28C43.1777 10.624 43.0137 10.124 42.6857 9.78C42.3657 9.428 41.9297 9.252 41.3777 9.252C40.8097 9.252 40.3577 9.436 40.0217 9.804C39.6857 10.164 39.5177 10.688 39.5177 11.376V15H38.4377V11.28C38.4377 10.624 38.2737 10.124 37.9457 9.78C37.6257 9.428 37.1897 9.252 36.6377 9.252C36.0697 9.252 35.6177 9.436 35.2817 9.804C34.9457 10.164 34.7777 10.688 34.7777 11.376V15H33.6857V8.424H34.7777V9.372C34.9937 9.028 35.2817 8.764 35.6417 8.58C36.0097 8.396 36.4137 8.304 36.8537 8.304C37.4057 8.304 37.8937 8.428 38.3177 8.676C38.7417 8.924 39.0577 9.288 39.2657 9.768C39.4497 9.304 39.7537 8.944 40.1777 8.688C40.6017 8.432 41.0737 8.304 41.5937 8.304ZM45.641 11.688C45.641 11.016 45.777 10.428 46.049 9.924C46.321 9.412 46.693 9.016 47.165 8.736C47.645 8.456 48.177 8.316 48.761 8.316C49.337 8.316 49.837 8.44 50.261 8.688C50.685 8.936 51.001 9.248 51.209 9.624V8.424H52.313V15H51.209V13.776C50.993 14.16 50.669 14.48 50.237 14.736C49.813 14.984 49.317 15.108 48.749 15.108C48.165 15.108 47.637 14.964 47.165 14.676C46.693 14.388 46.321 13.984 46.049 13.464C45.777 12.944 45.641 12.352 45.641 11.688ZM51.209 11.7C51.209 11.204 51.109 10.772 50.909 10.404C50.709 10.036 50.437 9.756 50.093 9.564C49.757 9.364 49.385 9.264 48.977 9.264C48.569 9.264 48.197 9.36 47.861 9.552C47.525 9.744 47.257 10.024 47.057 10.392C46.857 10.76 46.757 11.192 46.757 11.688C46.757 12.192 46.857 12.632 47.057 13.008C47.257 13.376 47.525 13.66 47.861 13.86C48.197 14.052 48.569 14.148 48.977 14.148C49.385 14.148 49.757 14.052 50.093 13.86C50.437 13.66 50.709 13.376 50.909 13.008C51.109 12.632 51.209 12.196 51.209 11.7ZM54.7224 7.356C54.5144 7.356 54.3384 7.284 54.1944 7.14C54.0504 6.996 53.9784 6.82 53.9784 6.612C53.9784 6.404 54.0504 6.228 54.1944 6.084C54.3384 5.94 54.5144 5.868 54.7224 5.868C54.9224 5.868 55.0904 5.94 55.2264 6.084C55.3704 6.228 55.4424 6.404 55.4424 6.612C55.4424 6.82 55.3704 6.996 55.2264 7.14C55.0904 7.284 54.9224 7.356 54.7224 7.356ZM55.2504 8.424V15H54.1584V8.424H55.2504ZM58.2035 6.12V15H57.1115V6.12H58.2035Z" fill="#757575"/>
</svg>
