<svg width="125" height="44" viewBox="0 0 125 44" fill="none" xmlns="http://www.w3.org/2000/svg">
<path d="M55.68 20.08C55.3707 19.4293 54.9227 18.928 54.336 18.576C53.7493 18.2133 53.0667 18.032 52.288 18.032C51.5093 18.032 50.8053 18.2133 50.176 18.576C49.5573 18.928 49.0667 19.44 48.704 20.112C48.352 20.7733 48.176 21.5413 48.176 22.416C48.176 23.2907 48.352 24.0587 48.704 24.72C49.0667 25.3813 49.5573 25.8933 50.176 26.256C50.8053 26.608 51.5093 26.784 52.288 26.784C53.376 26.784 54.272 26.4587 54.976 25.808C55.68 25.1573 56.0907 24.2773 56.208 23.168H51.76V21.984H57.76V23.104C57.6747 24.0213 57.3867 24.864 56.896 25.632C56.4053 26.3893 55.76 26.992 54.96 27.44C54.16 27.8773 53.2693 28.096 52.288 28.096C51.2533 28.096 50.3093 27.856 49.456 27.376C48.6027 26.8853 47.9253 26.208 47.424 25.344C46.9333 24.48 46.688 23.504 46.688 22.416C46.688 21.328 46.9333 20.352 47.424 19.488C47.9253 18.6133 48.6027 17.936 49.456 17.456C50.3093 16.9653 51.2533 16.72 52.288 16.72C53.472 16.72 54.5173 17.0133 55.424 17.6C56.3413 18.1867 57.008 19.0133 57.424 20.08H55.68ZM67.8851 23.28C67.8851 23.5573 67.8691 23.8507 67.8371 24.16H60.8291C60.8825 25.024 61.1758 25.7013 61.7091 26.192C62.2531 26.672 62.9091 26.912 63.6771 26.912C64.3065 26.912 64.8291 26.768 65.2451 26.48C65.6718 26.1813 65.9705 25.7867 66.1411 25.296H67.7091C67.4745 26.1387 67.0051 26.8267 66.3011 27.36C65.5971 27.8827 64.7225 28.144 63.6771 28.144C62.8451 28.144 62.0985 27.9573 61.4371 27.584C60.7865 27.2107 60.2745 26.6827 59.9011 26C59.5278 25.3067 59.3411 24.5067 59.3411 23.6C59.3411 22.6933 59.5225 21.8987 59.8851 21.216C60.2478 20.5333 60.7545 20.0107 61.4051 19.648C62.0665 19.2747 62.8238 19.088 63.6771 19.088C64.5091 19.088 65.2451 19.2693 65.8851 19.632C66.5251 19.9947 67.0158 20.496 67.3571 21.136C67.7091 21.7653 67.8851 22.48 67.8851 23.28ZM66.3811 22.976C66.3811 22.4213 66.2585 21.9467 66.0131 21.552C65.7678 21.1467 65.4318 20.8427 65.0051 20.64C64.5891 20.4267 64.1251 20.32 63.6131 20.32C62.8771 20.32 62.2478 20.5547 61.7251 21.024C61.2131 21.4933 60.9198 22.144 60.8451 22.976H66.3811ZM71.463 20.656C71.719 20.1547 72.0817 19.7653 72.551 19.488C73.031 19.2107 73.6123 19.072 74.295 19.072V20.576H73.911C72.279 20.576 71.463 21.4613 71.463 23.232V28H70.007V19.232H71.463V20.656ZM76.9278 17.808C76.6504 17.808 76.4158 17.712 76.2238 17.52C76.0318 17.328 75.9358 17.0933 75.9358 16.816C75.9358 16.5387 76.0318 16.304 76.2238 16.112C76.4158 15.92 76.6504 15.824 76.9278 15.824C77.1944 15.824 77.4184 15.92 77.5998 16.112C77.7918 16.304 77.8878 16.5387 77.8878 16.816C77.8878 17.0933 77.7918 17.328 77.5998 17.52C77.4184 17.712 77.1944 17.808 76.9278 17.808ZM77.6318 19.232V28H76.1758V19.232H77.6318Z" fill="#2C2E39"/>
<rect x="0.5" y="0.5" width="124" height="43" rx="7.5" stroke="#2C2E39"/>
</svg>
