<svg width="125" height="44" viewBox="0 0 125 44" fill="none" xmlns="http://www.w3.org/2000/svg">
<rect width="125" height="44" rx="8" fill="#E50913"/>
<path d="M50.688 16.848V28H49.232V16.848H50.688ZM49.968 15.824C49.7333 15.824 49.5307 15.744 49.36 15.584C49.2 15.424 49.12 15.2267 49.12 14.992C49.12 14.7573 49.2 14.56 49.36 14.4C49.5307 14.2293 49.7333 14.144 49.968 14.144C50.2027 14.144 50.4 14.2293 50.56 14.4C50.72 14.56 50.8 14.7573 50.8 14.992C50.8 15.2267 50.72 15.424 50.56 15.584C50.4 15.744 50.2027 15.824 49.968 15.824ZM54.8255 16.16V28H53.3695V16.16H54.8255ZM65.507 23.28C65.507 23.5573 65.491 23.8507 65.459 24.16H58.451C58.5043 25.024 58.7977 25.7013 59.331 26.192C59.875 26.672 60.531 26.912 61.299 26.912C61.9283 26.912 62.451 26.768 62.867 26.48C63.2937 26.1813 63.5923 25.7867 63.763 25.296H65.331C65.0963 26.1387 64.627 26.8267 63.923 27.36C63.219 27.8827 62.3443 28.144 61.299 28.144C60.467 28.144 59.7203 27.9573 59.059 27.584C58.4083 27.2107 57.8963 26.6827 57.523 26C57.1497 25.3067 56.963 24.5067 56.963 23.6C56.963 22.6933 57.1443 21.8987 57.507 21.216C57.8697 20.5333 58.3763 20.0107 59.027 19.648C59.6883 19.2747 60.4457 19.088 61.299 19.088C62.131 19.088 62.867 19.2693 63.507 19.632C64.147 19.9947 64.6377 20.496 64.979 21.136C65.331 21.7653 65.507 22.48 65.507 23.28ZM64.003 22.976C64.003 22.4213 63.8803 21.9467 63.635 21.552C63.3897 21.1467 63.0537 20.8427 62.627 20.64C62.211 20.4267 61.747 20.32 61.235 20.32C60.499 20.32 59.8697 20.5547 59.347 21.024C58.835 21.4933 58.5417 22.144 58.467 22.976H64.003ZM69.0849 20.656C69.3409 20.1547 69.7035 19.7653 70.1729 19.488C70.6529 19.2107 71.2342 19.072 71.9169 19.072V20.576H71.5329C69.9009 20.576 69.0849 21.4613 69.0849 23.232V28H67.6289V19.232H69.0849V20.656ZM74.5496 17.808C74.2723 17.808 74.0376 17.712 73.8456 17.52C73.6536 17.328 73.5576 17.0933 73.5576 16.816C73.5576 16.5387 73.6536 16.304 73.8456 16.112C74.0376 15.92 74.2723 15.824 74.5496 15.824C74.8163 15.824 75.0403 15.92 75.2216 16.112C75.4136 16.304 75.5096 16.5387 75.5096 16.816C75.5096 17.0933 75.4136 17.328 75.2216 17.52C75.0403 17.712 74.8163 17.808 74.5496 17.808ZM75.2536 19.232V28H73.7976V19.232H75.2536Z" fill="white"/>
</svg>
