<svg width="36" height="36" viewBox="0 0 36 36" fill="none" xmlns="http://www.w3.org/2000/svg">
<path d="M22 13H11C10.8627 13 10.7268 13.0283 10.6009 13.0831C10.475 13.1379 10.3617 13.218 10.2681 13.3185C10.1746 13.4191 10.1027 13.5378 10.057 13.6673C10.0113 13.7968 9.99276 13.9343 10.0025 14.0712L10.7934 25.1425C10.8294 25.647 11.0552 26.1191 11.4254 26.4637C11.7955 26.8084 12.2825 27 12.7883 27H20.2116C20.7174 27 21.2044 26.8084 21.5745 26.4637C21.9447 26.1191 22.1705 25.647 22.2066 25.1425L22.9974 14.0712C23.0071 13.9343 22.9886 13.7968 22.9429 13.6673C22.8972 13.5378 22.8254 13.4191 22.7318 13.3186C22.6382 13.2181 22.5249 13.1379 22.399 13.0831C22.2731 13.0283 22.1373 13 22 13V13Z" stroke="#757575" stroke-width="2" stroke-linecap="round" stroke-linejoin="round"/>
<path d="M16 19L14.6397 9.853C14.6045 9.61586 14.4853 9.39926 14.3038 9.24268C14.1222 9.0861 13.8905 8.99997 13.6507 9H11" stroke="#757575" stroke-width="2" stroke-linecap="round" stroke-linejoin="round"/>
<path d="M22.5 19H10.5" stroke="#757575" stroke-width="2" stroke-linecap="round" stroke-linejoin="round"/>
<path d="M19 13C19 12.2089 19.2346 11.4355 19.6741 10.7777C20.1136 10.1199 20.7384 9.60723 21.4693 9.30448C22.2002 9.00173 23.0044 8.92252 23.7804 9.07686C24.5563 9.2312 25.269 9.61216 25.8284 10.1716C26.3878 10.731 26.7688 11.4437 26.9231 12.2196C27.0775 12.9956 26.9983 13.7998 26.6955 14.5307C26.3928 15.2616 25.8801 15.8864 25.2223 16.3259C24.5645 16.7654 23.7911 17 23 17C22.9299 17.0017 22.8597 16.9983 22.79 16.99" stroke="#757575" stroke-width="2" stroke-linecap="round" stroke-linejoin="round"/>
</svg>
