<svg width="118" height="32" viewBox="0 0 118 32" fill="none" xmlns="http://www.w3.org/2000/svg">
<path d="M18.1221 0.161566C18.0298 0.23081 17.9605 2.90821 17.9605 6.07032V11.8175L17.0142 10.9635C15.4908 9.60172 13.8521 8.95545 11.4517 8.81697C5.91221 8.51691 1.59605 11.8406 0.280427 17.4724C-0.204275 19.4804 -0.0427076 22.6425 0.626643 24.5583C2.40389 29.6361 7.36631 32.729 12.3749 31.8519C14.2676 31.5287 15.4216 31.021 16.8757 29.9361L17.9605 29.0821V30.2362V31.3903H20.8457H23.7308V15.6951V0H21.0072C19.507 0 18.1913 0.0692425 18.1221 0.161566ZM14.6138 14.8642C16.7603 15.8567 17.9374 17.8186 17.9605 20.3806C17.9605 22.2271 17.6143 23.1503 16.4372 24.4659C14.8446 26.2201 12.698 26.8664 10.3669 26.3124C6.00453 25.2738 4.29653 19.5958 7.36631 16.2722C8.70502 14.818 9.88215 14.3103 11.844 14.3103C13.0443 14.3103 13.7598 14.4487 14.6138 14.8642Z" fill="#E50913"/>
<path d="M56.275 6.46268V9.23241H54.5439H52.8128V11.7713V14.3102H54.5208H56.2519L56.3211 20.5883C56.3904 26.5894 56.4135 26.9356 56.9212 28.0435C57.5444 29.4053 58.6062 30.5824 59.7602 31.1594C61.6067 32.1288 64.9073 32.2673 66.9615 31.4595L67.8155 31.1133V28.4589C67.8155 26.0123 67.7924 25.8046 67.4231 25.9662C65.4151 26.7971 63.5224 26.6586 62.6223 25.5969L62.0452 24.8814V19.5958V14.3102H64.9304H67.8155V11.7713V9.23241H64.9304H62.0452V6.46268V3.69296H59.1601H56.275V6.46268Z" fill="#E50913"/>
<path d="M95.9747 12.0022L102.184 20.3344L98.4444 25.5738C96.3671 28.459 94.613 30.9517 94.4976 31.0902C94.3591 31.321 95.0746 31.3903 97.752 31.3903L101.168 31.3672L102.899 28.8052C103.845 27.3972 104.953 25.7816 105.346 25.2276L106.061 24.2351L108.462 27.7896L110.862 31.3672L114.278 31.3903C116.148 31.3903 117.671 31.321 117.671 31.2518C117.671 31.1825 115.963 28.759 113.863 25.8277C111.762 22.9195 110.054 20.4498 110.054 20.3113C110.054 20.1959 111.693 17.7724 113.701 14.9565C115.709 12.1176 117.44 9.67097 117.532 9.50941C117.671 9.30168 116.955 9.23243 114.278 9.23243L110.862 9.25551L108.554 12.6946C107.284 14.5872 106.177 16.1568 106.084 16.1568C106.015 16.1568 103.845 13.3409 101.306 9.92486L96.6672 3.69297H93.205H89.7429L95.9747 12.0022Z" fill="#E50913"/>
<path d="M104.56 6.11646C103.66 6.50884 103.037 7.80138 103.245 8.79387C103.637 10.548 106.015 11.2174 107.307 9.94792C109.177 8.07836 106.984 5.03165 104.56 6.11646Z" fill="#E50913"/>
<path d="M36.0792 9.20939C34.0481 9.8095 32.8017 10.525 31.2784 11.9791C29.2011 13.941 28.3471 15.6721 27.8624 18.7419C27.1238 23.5197 29.8243 28.5975 34.2558 30.6979C38.9875 32.9598 45.2655 32.1289 49.0046 28.736L50.1587 27.6973L48.3122 25.9893L46.4888 24.2813L45.5425 25.0661C43.9037 26.4048 42.565 26.8664 40.3492 26.8895C38.0873 26.8895 36.8178 26.4279 35.5484 25.1584C34.9021 24.5121 33.8865 22.8965 33.8865 22.5041C33.8865 22.4348 37.7872 22.3887 42.5419 22.3887H51.1973V20.473C51.1973 14.9566 47.8506 10.4558 42.7728 9.11707C40.9724 8.65545 37.8334 8.70161 36.0792 9.20939ZM41.1802 13.9641C42.6573 14.4026 43.9268 15.4644 44.6192 16.8723C44.9424 17.4724 45.1963 18.0494 45.1963 18.1187C45.1963 18.1879 42.6573 18.2341 39.5414 18.2341C36.4255 18.2341 33.8865 18.1879 33.8865 18.1187C33.8865 17.6801 34.6251 16.3414 35.2714 15.6028C36.8178 13.8487 38.8951 13.2717 41.1802 13.9641Z" fill="#E50913"/>
<path d="M78.6868 9.14007C75.8248 9.90174 72.8012 12.2329 71.4625 14.7026C69.7083 17.9109 69.6852 22.4578 71.3701 25.8046C74.8092 32.5904 84.7802 34.1138 90.412 28.7359C92.7663 26.497 93.8973 23.7735 93.8973 20.2882C93.8973 14.8411 90.5043 10.5019 85.1957 9.11699C83.5339 8.67845 80.3256 8.70153 78.6868 9.14007ZM84.8495 14.9103C87.0883 16.0182 88.3347 18.4417 88.0578 21.1191C87.5269 26.197 81.3642 28.3435 77.7405 24.6967C74.7169 21.6962 75.6401 16.4798 79.4716 14.7488C80.9257 14.0794 83.3492 14.1487 84.8495 14.9103Z" fill="#E50913"/>
</svg>
