<svg width="343" height="67" viewBox="0 0 343 67" fill="none" xmlns="http://www.w3.org/2000/svg">
<rect x="0.5" y="11.5" width="342" height="55" rx="9.5"  stroke="#757575"/>
<rect width="33" height="20" transform="translate(16 1)" fill="#FCFCFC"/>
<path d="M22.016 6.636V15H20.924V6.636H22.016ZM21.476 5.868C21.3 5.868 21.148 5.808 21.02 5.688C20.9 5.568 20.84 5.42 20.84 5.244C20.84 5.068 20.9 4.92 21.02 4.8C21.148 4.672 21.3 4.608 21.476 4.608C21.652 4.608 21.8 4.672 21.92 4.8C22.04 4.92 22.1 5.068 22.1 5.244C22.1 5.42 22.04 5.568 21.92 5.688C21.8 5.808 21.652 5.868 21.476 5.868ZM26.2051 15.108C25.7011 15.108 25.2491 15.024 24.8491 14.856C24.4491 14.68 24.1331 14.44 23.9011 14.136C23.6691 13.824 23.5411 13.468 23.5171 13.068H24.6451C24.6771 13.396 24.8291 13.664 25.1011 13.872C25.3811 14.08 25.7451 14.184 26.1931 14.184C26.6091 14.184 26.9371 14.092 27.1771 13.908C27.4171 13.724 27.5371 13.492 27.5371 13.212C27.5371 12.924 27.4091 12.712 27.1531 12.576C26.8971 12.432 26.5011 12.292 25.9651 12.156C25.4771 12.028 25.0771 11.9 24.7651 11.772C24.4611 11.636 24.1971 11.44 23.9731 11.184C23.7571 10.92 23.6491 10.576 23.6491 10.152C23.6491 9.816 23.7491 9.508 23.9491 9.228C24.1491 8.948 24.4331 8.728 24.8011 8.568C25.1691 8.4 25.5891 8.316 26.0611 8.316C26.7891 8.316 27.3771 8.5 27.8251 8.868C28.2731 9.236 28.5131 9.74 28.5451 10.38H27.4531C27.4291 10.036 27.2891 9.76 27.0331 9.552C26.7851 9.344 26.4491 9.24 26.0251 9.24C25.6331 9.24 25.3211 9.324 25.0891 9.492C24.8571 9.66 24.7411 9.88 24.7411 10.152C24.7411 10.368 24.8091 10.548 24.9451 10.692C25.0891 10.828 25.2651 10.94 25.4731 11.028C25.6891 11.108 25.9851 11.2 26.3611 11.304C26.8331 11.432 27.2171 11.56 27.5131 11.688C27.8091 11.808 28.0611 11.992 28.2691 12.24C28.4851 12.488 28.5971 12.812 28.6051 13.212C28.6051 13.572 28.5051 13.896 28.3051 14.184C28.1051 14.472 27.8211 14.7 27.4531 14.868C27.0931 15.028 26.6771 15.108 26.2051 15.108ZM30.7107 7.356C30.5027 7.356 30.3267 7.284 30.1827 7.14C30.0387 6.996 29.9667 6.82 29.9667 6.612C29.9667 6.404 30.0387 6.228 30.1827 6.084C30.3267 5.94 30.5027 5.868 30.7107 5.868C30.9107 5.868 31.0787 5.94 31.2147 6.084C31.3587 6.228 31.4307 6.404 31.4307 6.612C31.4307 6.82 31.3587 6.996 31.2147 7.14C31.0787 7.284 30.9107 7.356 30.7107 7.356ZM31.2387 8.424V15H30.1467V8.424H31.2387ZM41.0078 8.304C41.5198 8.304 41.9758 8.412 42.3758 8.628C42.7758 8.836 43.0918 9.152 43.3238 9.576C43.5558 10 43.6718 10.516 43.6718 11.124V15H42.5918V11.28C42.5918 10.624 42.4278 10.124 42.0998 9.78C41.7798 9.428 41.3438 9.252 40.7918 9.252C40.2238 9.252 39.7718 9.436 39.4358 9.804C39.0998 10.164 38.9318 10.688 38.9318 11.376V15H37.8518V11.28C37.8518 10.624 37.6878 10.124 37.3598 9.78C37.0398 9.428 36.6038 9.252 36.0518 9.252C35.4838 9.252 35.0318 9.436 34.6958 9.804C34.3598 10.164 34.1918 10.688 34.1918 11.376V15H33.0998V8.424H34.1918V9.372C34.4078 9.028 34.6958 8.764 35.0558 8.58C35.4238 8.396 35.8278 8.304 36.2678 8.304C36.8198 8.304 37.3078 8.428 37.7318 8.676C38.1558 8.924 38.4718 9.288 38.6798 9.768C38.8638 9.304 39.1678 8.944 39.5918 8.688C40.0158 8.432 40.4878 8.304 41.0078 8.304Z" fill="#757575"/>
</svg>
