<svg width="343" height="48" viewBox="0 0 343 48" fill="none" xmlns="http://www.w3.org/2000/svg">
<rect x="0.5" y="0.5" width="342" height="47" rx="7.5" fill="white"/>
<path d="M96.12 17.49L91.98 25.464V30H89.928V25.464L85.77 17.49H88.056L90.954 23.628L93.852 17.49H96.12ZM106.838 24.798C106.838 25.17 106.814 25.506 106.766 25.806H99.1884C99.2484 26.598 99.5424 27.234 100.07 27.714C100.598 28.194 101.246 28.434 102.014 28.434C103.118 28.434 103.898 27.972 104.354 27.048H106.568C106.268 27.96 105.722 28.71 104.93 29.298C104.15 29.874 103.178 30.162 102.014 30.162C101.066 30.162 100.214 29.952 99.4584 29.532C98.7144 29.1 98.1264 28.5 97.6944 27.732C97.2744 26.952 97.0644 26.052 97.0644 25.032C97.0644 24.012 97.2684 23.118 97.6764 22.35C98.0964 21.57 98.6784 20.97 99.4224 20.55C100.178 20.13 101.042 19.92 102.014 19.92C102.95 19.92 103.784 20.124 104.516 20.532C105.248 20.94 105.818 21.516 106.226 22.26C106.634 22.992 106.838 23.838 106.838 24.798ZM104.696 24.15C104.684 23.394 104.414 22.788 103.886 22.332C103.358 21.876 102.704 21.648 101.924 21.648C101.216 21.648 100.61 21.876 100.106 22.332C99.6024 22.776 99.3024 23.382 99.2064 24.15H104.696ZM113.862 19.92C114.642 19.92 115.338 20.082 115.95 20.406C116.574 20.73 117.06 21.21 117.408 21.846C117.756 22.482 117.93 23.25 117.93 24.15V30H115.896V24.456C115.896 23.568 115.674 22.89 115.23 22.422C114.786 21.942 114.18 21.702 113.412 21.702C112.644 21.702 112.032 21.942 111.576 22.422C111.132 22.89 110.91 23.568 110.91 24.456V30H108.858V20.082H110.91V21.216C111.246 20.808 111.672 20.49 112.188 20.262C112.716 20.034 113.274 19.92 113.862 19.92ZM121.591 18.768C121.219 18.768 120.907 18.642 120.655 18.39C120.403 18.138 120.277 17.826 120.277 17.454C120.277 17.082 120.403 16.77 120.655 16.518C120.907 16.266 121.219 16.14 121.591 16.14C121.951 16.14 122.257 16.266 122.509 16.518C122.761 16.77 122.887 17.082 122.887 17.454C122.887 17.826 122.761 18.138 122.509 18.39C122.257 18.642 121.951 18.768 121.591 18.768ZM122.599 20.082V30H120.547V20.082H122.599ZM139.959 17.49V30H137.907V24.528H132.021V30H129.969V17.49H132.021V22.854H137.907V17.49H139.959ZM151.751 24.798C151.751 25.17 151.727 25.506 151.679 25.806H144.101C144.161 26.598 144.455 27.234 144.983 27.714C145.511 28.194 146.159 28.434 146.927 28.434C148.031 28.434 148.811 27.972 149.267 27.048H151.481C151.181 27.96 150.635 28.71 149.843 29.298C149.063 29.874 148.091 30.162 146.927 30.162C145.979 30.162 145.127 29.952 144.371 29.532C143.627 29.1 143.039 28.5 142.607 27.732C142.187 26.952 141.977 26.052 141.977 25.032C141.977 24.012 142.181 23.118 142.589 22.35C143.009 21.57 143.591 20.97 144.335 20.55C145.091 20.13 145.955 19.92 146.927 19.92C147.863 19.92 148.697 20.124 149.429 20.532C150.161 20.94 150.731 21.516 151.139 22.26C151.547 22.992 151.751 23.838 151.751 24.798ZM149.609 24.15C149.597 23.394 149.327 22.788 148.799 22.332C148.271 21.876 147.617 21.648 146.837 21.648C146.129 21.648 145.523 21.876 145.019 22.332C144.515 22.776 144.215 23.382 144.119 24.15H149.609ZM157.37 30.162C156.59 30.162 155.888 30.024 155.264 29.748C154.652 29.46 154.166 29.076 153.806 28.596C153.446 28.104 153.254 27.558 153.23 26.958H155.354C155.39 27.378 155.588 27.732 155.948 28.02C156.32 28.296 156.782 28.434 157.334 28.434C157.91 28.434 158.354 28.326 158.666 28.11C158.99 27.882 159.152 27.594 159.152 27.246C159.152 26.874 158.972 26.598 158.612 26.418C158.264 26.238 157.706 26.04 156.938 25.824C156.194 25.62 155.588 25.422 155.12 25.23C154.652 25.038 154.244 24.744 153.896 24.348C153.56 23.952 153.392 23.43 153.392 22.782C153.392 22.254 153.548 21.774 153.86 21.342C154.172 20.898 154.616 20.55 155.192 20.298C155.78 20.046 156.452 19.92 157.208 19.92C158.336 19.92 159.242 20.208 159.926 20.784C160.622 21.348 160.994 22.122 161.042 23.106H158.99C158.954 22.662 158.774 22.308 158.45 22.044C158.126 21.78 157.688 21.648 157.136 21.648C156.596 21.648 156.182 21.75 155.894 21.954C155.606 22.158 155.462 22.428 155.462 22.764C155.462 23.028 155.558 23.25 155.75 23.43C155.942 23.61 156.176 23.754 156.452 23.862C156.728 23.958 157.136 24.084 157.676 24.24C158.396 24.432 158.984 24.63 159.44 24.834C159.908 25.026 160.31 25.314 160.646 25.698C160.982 26.082 161.156 26.592 161.168 27.228C161.168 27.792 161.012 28.296 160.7 28.74C160.388 29.184 159.944 29.532 159.368 29.784C158.804 30.036 158.138 30.162 157.37 30.162ZM162.701 24.996C162.701 24 162.905 23.118 163.313 22.35C163.733 21.582 164.297 20.988 165.005 20.568C165.725 20.136 166.517 19.92 167.381 19.92C168.161 19.92 168.839 20.076 169.415 20.388C170.003 20.688 170.471 21.066 170.819 21.522V20.082H172.889V30H170.819V28.524C170.471 28.992 169.997 29.382 169.397 29.694C168.797 30.006 168.113 30.162 167.345 30.162C166.493 30.162 165.713 29.946 165.005 29.514C164.297 29.07 163.733 28.458 163.313 27.678C162.905 26.886 162.701 25.992 162.701 24.996ZM170.819 25.032C170.819 24.348 170.675 23.754 170.387 23.25C170.111 22.746 169.745 22.362 169.289 22.098C168.833 21.834 168.341 21.702 167.813 21.702C167.285 21.702 166.793 21.834 166.337 22.098C165.881 22.35 165.509 22.728 165.221 23.232C164.945 23.724 164.807 24.312 164.807 24.996C164.807 25.68 164.945 26.28 165.221 26.796C165.509 27.312 165.881 27.708 166.337 27.984C166.805 28.248 167.297 28.38 167.813 28.38C168.341 28.38 168.833 28.248 169.289 27.984C169.745 27.72 170.111 27.336 170.387 26.832C170.675 26.316 170.819 25.716 170.819 25.032ZM177.636 21.54C177.984 21.084 178.458 20.7 179.058 20.388C179.658 20.076 180.336 19.92 181.092 19.92C181.956 19.92 182.742 20.136 183.45 20.568C184.17 20.988 184.734 21.582 185.142 22.35C185.55 23.118 185.754 24 185.754 24.996C185.754 25.992 185.55 26.886 185.142 27.678C184.734 28.458 184.17 29.07 183.45 29.514C182.742 29.946 181.956 30.162 181.092 30.162C180.336 30.162 179.664 30.012 179.076 29.712C178.488 29.4 178.008 29.016 177.636 28.56V34.716H175.584V20.082H177.636V21.54ZM183.666 24.996C183.666 24.312 183.522 23.724 183.234 23.232C182.958 22.728 182.586 22.35 182.118 22.098C181.662 21.834 181.17 21.702 180.642 21.702C180.126 21.702 179.634 21.834 179.166 22.098C178.71 22.362 178.338 22.746 178.05 23.25C177.774 23.754 177.636 24.348 177.636 25.032C177.636 25.716 177.774 26.316 178.05 26.832C178.338 27.336 178.71 27.72 179.166 27.984C179.634 28.248 180.126 28.38 180.642 28.38C181.17 28.38 181.662 28.248 182.118 27.984C182.586 27.708 182.958 27.312 183.234 26.796C183.522 26.28 183.666 25.68 183.666 24.996ZM198.165 30.126C197.001 30.126 195.927 29.856 194.943 29.316C193.971 28.764 193.197 28.002 192.621 27.03C192.057 26.046 191.775 24.942 191.775 23.718C191.775 22.494 192.057 21.396 192.621 20.424C193.197 19.452 193.971 18.696 194.943 18.156C195.927 17.604 197.001 17.328 198.165 17.328C199.341 17.328 200.415 17.604 201.387 18.156C202.371 18.696 203.145 19.452 203.709 20.424C204.273 21.396 204.555 22.494 204.555 23.718C204.555 24.942 204.273 26.046 203.709 27.03C203.145 28.002 202.371 28.764 201.387 29.316C200.415 29.856 199.341 30.126 198.165 30.126ZM198.165 28.344C198.993 28.344 199.731 28.158 200.379 27.786C201.027 27.402 201.531 26.862 201.891 26.166C202.263 25.458 202.449 24.642 202.449 23.718C202.449 22.794 202.263 21.984 201.891 21.288C201.531 20.592 201.027 20.058 200.379 19.686C199.731 19.314 198.993 19.128 198.165 19.128C197.337 19.128 196.599 19.314 195.951 19.686C195.303 20.058 194.793 20.592 194.421 21.288C194.061 21.984 193.881 22.794 193.881 23.718C193.881 24.642 194.061 25.458 194.421 26.166C194.793 26.862 195.303 27.402 195.951 27.786C196.599 28.158 197.337 28.344 198.165 28.344ZM208.627 16.68V30H206.575V16.68H208.627ZM220.303 20.082V30H218.251V28.83C217.927 29.238 217.501 29.562 216.973 29.802C216.457 30.03 215.905 30.144 215.317 30.144C214.537 30.144 213.835 29.982 213.211 29.658C212.599 29.334 212.113 28.854 211.753 28.218C211.405 27.582 211.231 26.814 211.231 25.914V20.082H213.265V25.608C213.265 26.496 213.487 27.18 213.931 27.66C214.375 28.128 214.981 28.362 215.749 28.362C216.517 28.362 217.123 28.128 217.567 27.66C218.023 27.18 218.251 26.496 218.251 25.608V20.082H220.303ZM230.408 27.228C230.408 28.008 230.12 28.668 229.544 29.208C228.968 29.736 228.188 30.042 227.204 30.126V30.864C227.9 30.864 228.464 31.026 228.896 31.35C229.328 31.686 229.544 32.154 229.544 32.754C229.544 33.354 229.328 33.828 228.896 34.176C228.464 34.536 227.918 34.716 227.258 34.716H224.882V33.42H226.844C227.18 33.42 227.432 33.372 227.6 33.276C227.768 33.18 227.852 33.006 227.852 32.754C227.852 32.502 227.768 32.328 227.6 32.232C227.432 32.136 227.18 32.088 226.844 32.088H225.854V30.108C224.882 29.988 224.084 29.634 223.46 29.046C222.836 28.458 222.506 27.762 222.47 26.958H224.594C224.63 27.378 224.828 27.732 225.188 28.02C225.56 28.296 226.022 28.434 226.574 28.434C227.15 28.434 227.594 28.326 227.906 28.11C228.23 27.882 228.392 27.594 228.392 27.246C228.392 26.874 228.212 26.598 227.852 26.418C227.504 26.238 226.946 26.04 226.178 25.824C225.434 25.62 224.828 25.422 224.36 25.23C223.892 25.038 223.484 24.744 223.136 24.348C222.8 23.952 222.632 23.43 222.632 22.782C222.632 22.254 222.788 21.774 223.1 21.342C223.412 20.898 223.856 20.55 224.432 20.298C225.02 20.046 225.692 19.92 226.448 19.92C227.576 19.92 228.482 20.208 229.166 20.784C229.862 21.348 230.234 22.122 230.282 23.106H228.23C228.194 22.662 228.014 22.308 227.69 22.044C227.366 21.78 226.928 21.648 226.376 21.648C225.836 21.648 225.422 21.75 225.134 21.954C224.846 22.158 224.702 22.428 224.702 22.764C224.702 23.028 224.798 23.25 224.99 23.43C225.182 23.61 225.416 23.754 225.692 23.862C225.968 23.958 226.376 24.084 226.916 24.24C227.636 24.432 228.224 24.63 228.68 24.834C229.148 25.026 229.55 25.314 229.886 25.698C230.222 26.082 230.396 26.592 230.408 27.228ZM235.019 21.756V27.246C235.019 27.618 235.103 27.888 235.271 28.056C235.451 28.212 235.751 28.29 236.171 28.29H237.431V30H235.811C234.887 30 234.179 29.784 233.687 29.352C233.195 28.92 232.949 28.218 232.949 27.246V21.756H231.779V20.082H232.949V17.616H235.019V20.082H237.431V21.756H235.019ZM248.305 20.082V30H246.253V28.83C245.929 29.238 245.503 29.562 244.975 29.802C244.459 30.03 243.907 30.144 243.319 30.144C242.539 30.144 241.837 29.982 241.213 29.658C240.601 29.334 240.115 28.854 239.755 28.218C239.407 27.582 239.233 26.814 239.233 25.914V20.082H241.267V25.608C241.267 26.496 241.489 27.18 241.933 27.66C242.377 28.128 242.983 28.362 243.751 28.362C244.519 28.362 245.125 28.128 245.569 27.66C246.025 27.18 246.253 26.496 246.253 25.608V20.082H248.305ZM253.064 21.522C253.364 21.018 253.76 20.628 254.252 20.352C254.756 20.064 255.35 19.92 256.034 19.92V22.044H255.512C254.708 22.044 254.096 22.248 253.676 22.656C253.268 23.064 253.064 23.772 253.064 24.78V30H251.012V20.082H253.064V21.522Z" fill="#1A1A1A"/>
<rect x="0.5" y="0.5" width="342" height="47" rx="7.5" stroke="#757575"/>
</svg>
