<svg width="343" height="48" viewBox="0 0 343 48" fill="none" xmlns="http://www.w3.org/2000/svg">
<rect width="343" height="48" rx="10" fill="#E50913"/>
<path d="M119.792 26.454C119.792 27.03 119.648 27.582 119.36 28.11C119.084 28.626 118.676 29.064 118.136 29.424C117.596 29.772 116.954 29.994 116.21 30.09V30.99C116.906 30.99 117.47 31.152 117.902 31.476C118.334 31.812 118.55 32.28 118.55 32.88C118.55 33.48 118.334 33.954 117.902 34.302C117.47 34.662 116.924 34.842 116.264 34.842H113.888V33.546H115.85C116.186 33.546 116.438 33.498 116.606 33.402C116.774 33.306 116.858 33.132 116.858 32.88C116.858 32.628 116.774 32.454 116.606 32.358C116.438 32.262 116.186 32.214 115.85 32.214H114.86V30.09C113.732 29.994 112.814 29.628 112.106 28.992C111.398 28.356 111.044 27.54 111.044 26.544H113.24C113.288 27.084 113.498 27.528 113.87 27.876C114.254 28.224 114.788 28.398 115.472 28.398C116.18 28.398 116.732 28.23 117.128 27.894C117.524 27.546 117.722 27.102 117.722 26.562C117.722 26.142 117.596 25.8 117.344 25.536C117.104 25.272 116.798 25.068 116.426 24.924C116.066 24.78 115.562 24.624 114.914 24.456C114.098 24.24 113.432 24.024 112.916 23.808C112.412 23.58 111.98 23.232 111.62 22.764C111.26 22.296 111.08 21.672 111.08 20.892C111.08 20.172 111.26 19.542 111.62 19.002C111.98 18.462 112.484 18.048 113.132 17.76C113.78 17.472 114.53 17.328 115.382 17.328C116.594 17.328 117.584 17.634 118.352 18.246C119.132 18.846 119.564 19.674 119.648 20.73H117.38C117.344 20.274 117.128 19.884 116.732 19.56C116.336 19.236 115.814 19.074 115.166 19.074C114.578 19.074 114.098 19.224 113.726 19.524C113.354 19.824 113.168 20.256 113.168 20.82C113.168 21.204 113.282 21.522 113.51 21.774C113.75 22.014 114.05 22.206 114.41 22.35C114.77 22.494 115.262 22.65 115.886 22.818C116.714 23.046 117.386 23.274 117.902 23.502C118.43 23.73 118.874 24.084 119.234 24.564C119.606 25.032 119.792 25.662 119.792 26.454ZM123.257 18.768C122.885 18.768 122.573 18.642 122.321 18.39C122.069 18.138 121.943 17.826 121.943 17.454C121.943 17.082 122.069 16.77 122.321 16.518C122.573 16.266 122.885 16.14 123.257 16.14C123.617 16.14 123.923 16.266 124.175 16.518C124.427 16.77 124.553 17.082 124.553 17.454C124.553 17.826 124.427 18.138 124.175 18.39C123.923 18.642 123.617 18.768 123.257 18.768ZM124.265 20.082V30H122.213V20.082H124.265ZM131.117 21.756H129.281V30H127.211V21.756H126.041V20.082H127.211V19.38C127.211 18.24 127.511 17.412 128.111 16.896C128.723 16.368 129.677 16.104 130.973 16.104V17.814C130.349 17.814 129.911 17.934 129.659 18.174C129.407 18.402 129.281 18.804 129.281 19.38V20.082H131.117V21.756ZM134.988 21.522C135.288 21.018 135.684 20.628 136.176 20.352C136.68 20.064 137.274 19.92 137.958 19.92V22.044H137.436C136.632 22.044 136.02 22.248 135.6 22.656C135.192 23.064 134.988 23.772 134.988 24.78V30H132.936V20.082H134.988V21.522ZM148.934 24.798C148.934 25.17 148.91 25.506 148.862 25.806H141.284C141.344 26.598 141.638 27.234 142.166 27.714C142.694 28.194 143.342 28.434 144.11 28.434C145.214 28.434 145.994 27.972 146.45 27.048H148.664C148.364 27.96 147.818 28.71 147.026 29.298C146.246 29.874 145.274 30.162 144.11 30.162C143.162 30.162 142.31 29.952 141.554 29.532C140.81 29.1 140.222 28.5 139.79 27.732C139.37 26.952 139.16 26.052 139.16 25.032C139.16 24.012 139.364 23.118 139.772 22.35C140.192 21.57 140.774 20.97 141.518 20.55C142.274 20.13 143.138 19.92 144.11 19.92C145.046 19.92 145.88 20.124 146.612 20.532C147.344 20.94 147.914 21.516 148.322 22.26C148.73 22.992 148.934 23.838 148.934 24.798ZM146.792 24.15C146.78 23.394 146.51 22.788 145.982 22.332C145.454 21.876 144.8 21.648 144.02 21.648C143.312 21.648 142.706 21.876 142.202 22.332C141.698 22.776 141.398 23.382 141.302 24.15H146.792ZM162.96 19.92C163.74 19.92 164.436 20.082 165.048 20.406C165.672 20.73 166.158 21.21 166.506 21.846C166.866 22.482 167.046 23.25 167.046 24.15V30H165.012V24.456C165.012 23.568 164.79 22.89 164.346 22.422C163.902 21.942 163.296 21.702 162.528 21.702C161.76 21.702 161.148 21.942 160.692 22.422C160.248 22.89 160.026 23.568 160.026 24.456V30H157.992V24.456C157.992 23.568 157.77 22.89 157.326 22.422C156.882 21.942 156.276 21.702 155.508 21.702C154.74 21.702 154.128 21.942 153.672 22.422C153.228 22.89 153.006 23.568 153.006 24.456V30H150.954V20.082H153.006V21.216C153.342 20.808 153.768 20.49 154.284 20.262C154.8 20.034 155.352 19.92 155.94 19.92C156.732 19.92 157.44 20.088 158.064 20.424C158.688 20.76 159.168 21.246 159.504 21.882C159.804 21.282 160.272 20.808 160.908 20.46C161.544 20.1 162.228 19.92 162.96 19.92ZM170.701 18.768C170.329 18.768 170.017 18.642 169.765 18.39C169.513 18.138 169.387 17.826 169.387 17.454C169.387 17.082 169.513 16.77 169.765 16.518C170.017 16.266 170.329 16.14 170.701 16.14C171.061 16.14 171.367 16.266 171.619 16.518C171.871 16.77 171.997 17.082 171.997 17.454C171.997 17.826 171.871 18.138 171.619 18.39C171.367 18.642 171.061 18.768 170.701 18.768ZM171.709 20.082V30H169.657V20.082H171.709ZM188.349 17.49L184.209 25.464V30H182.157V25.464L177.999 17.49H180.285L183.183 23.628L186.081 17.49H188.349ZM199.067 24.798C199.067 25.17 199.043 25.506 198.995 25.806H191.417C191.477 26.598 191.771 27.234 192.299 27.714C192.827 28.194 193.475 28.434 194.243 28.434C195.347 28.434 196.127 27.972 196.583 27.048H198.797C198.497 27.96 197.951 28.71 197.159 29.298C196.379 29.874 195.407 30.162 194.243 30.162C193.295 30.162 192.443 29.952 191.687 29.532C190.943 29.1 190.355 28.5 189.923 27.732C189.503 26.952 189.293 26.052 189.293 25.032C189.293 24.012 189.497 23.118 189.905 22.35C190.325 21.57 190.907 20.97 191.651 20.55C192.407 20.13 193.271 19.92 194.243 19.92C195.179 19.92 196.013 20.124 196.745 20.532C197.477 20.94 198.047 21.516 198.455 22.26C198.863 22.992 199.067 23.838 199.067 24.798ZM196.925 24.15C196.913 23.394 196.643 22.788 196.115 22.332C195.587 21.876 194.933 21.648 194.153 21.648C193.445 21.648 192.839 21.876 192.335 22.332C191.831 22.776 191.531 23.382 191.435 24.15H196.925ZM206.09 19.92C206.87 19.92 207.566 20.082 208.178 20.406C208.802 20.73 209.288 21.21 209.636 21.846C209.984 22.482 210.158 23.25 210.158 24.15V30H208.124V24.456C208.124 23.568 207.902 22.89 207.458 22.422C207.014 21.942 206.408 21.702 205.64 21.702C204.872 21.702 204.26 21.942 203.804 22.422C203.36 22.89 203.138 23.568 203.138 24.456V30H201.086V20.082H203.138V21.216C203.474 20.808 203.9 20.49 204.416 20.262C204.944 20.034 205.502 19.92 206.09 19.92ZM213.82 18.768C213.448 18.768 213.136 18.642 212.884 18.39C212.632 18.138 212.506 17.826 212.506 17.454C212.506 17.082 212.632 16.77 212.884 16.518C213.136 16.266 213.448 16.14 213.82 16.14C214.18 16.14 214.486 16.266 214.738 16.518C214.99 16.77 215.116 17.082 215.116 17.454C215.116 17.826 214.99 18.138 214.738 18.39C214.486 18.642 214.18 18.768 213.82 18.768ZM214.828 20.082V30H212.776V20.082H214.828ZM219.574 16.68V30H217.522V16.68H219.574ZM231.358 24.798C231.358 25.17 231.334 25.506 231.286 25.806H223.708C223.768 26.598 224.062 27.234 224.59 27.714C225.118 28.194 225.766 28.434 226.534 28.434C227.638 28.434 228.418 27.972 228.874 27.048H231.088C230.788 27.96 230.242 28.71 229.45 29.298C228.67 29.874 227.698 30.162 226.534 30.162C225.586 30.162 224.734 29.952 223.978 29.532C223.234 29.1 222.646 28.5 222.214 27.732C221.794 26.952 221.584 26.052 221.584 25.032C221.584 24.012 221.788 23.118 222.196 22.35C222.616 21.57 223.198 20.97 223.942 20.55C224.698 20.13 225.562 19.92 226.534 19.92C227.47 19.92 228.304 20.124 229.036 20.532C229.768 20.94 230.338 21.516 230.746 22.26C231.154 22.992 231.358 23.838 231.358 24.798ZM229.216 24.15C229.204 23.394 228.934 22.788 228.406 22.332C227.878 21.876 227.224 21.648 226.444 21.648C225.736 21.648 225.13 21.876 224.626 22.332C224.122 22.776 223.822 23.382 223.726 24.15H229.216Z" fill="white"/>
</svg>
