<svg width="343" height="102" viewBox="0 0 343 102" fill="none" xmlns="http://www.w3.org/2000/svg">
<rect x="0.5" y="10.5" width="342" height="55" rx="9.5"  stroke="#E50913"/>
<path d="M33.552 38.768H30.144V42.224H28.784V38.768H25.392V37.536H28.784V34.064H30.144V37.536H33.552V38.768ZM37.7859 40.896C37.8925 41.504 38.1379 41.9733 38.5219 42.304C38.9165 42.6347 39.4445 42.8 40.1059 42.8C40.9912 42.8 41.6419 42.4533 42.0579 41.76C42.4845 41.0667 42.6872 39.8987 42.6659 38.256C42.4419 38.736 42.0685 39.1147 41.5459 39.392C41.0232 39.6587 40.4419 39.792 39.8019 39.792C39.0872 39.792 38.4472 39.648 37.8819 39.36C37.3272 39.0613 36.8899 38.6293 36.5699 38.064C36.2499 37.4987 36.0899 36.816 36.0899 36.016C36.0899 34.8747 36.4205 33.9573 37.0819 33.264C37.7432 32.56 38.6819 32.208 39.8979 32.208C41.3912 32.208 42.4365 32.6933 43.0339 33.664C43.6419 34.6347 43.9459 36.08 43.9459 38C43.9459 39.344 43.8232 40.4533 43.5779 41.328C43.3432 42.2027 42.9379 42.8693 42.3619 43.328C41.7965 43.7867 41.0179 44.016 40.0259 44.016C38.9379 44.016 38.0899 43.7227 37.4819 43.136C36.8739 42.5493 36.5272 41.8027 36.4419 40.896H37.7859ZM40.0419 38.56C40.7565 38.56 41.3432 38.3413 41.8019 37.904C42.2605 37.456 42.4899 36.8533 42.4899 36.096C42.4899 35.296 42.2659 34.6507 41.8179 34.16C41.3699 33.6693 40.7405 33.424 39.9299 33.424C39.1832 33.424 38.5859 33.6587 38.1379 34.128C37.7005 34.5973 37.4819 35.216 37.4819 35.984C37.4819 36.7627 37.7005 37.3867 38.1379 37.856C38.5752 38.3253 39.2099 38.56 40.0419 38.56ZM45.992 38.096C45.992 36.2613 46.2907 34.832 46.888 33.808C47.4853 32.7733 48.5307 32.256 50.024 32.256C51.5067 32.256 52.5467 32.7733 53.144 33.808C53.7413 34.832 54.04 36.2613 54.04 38.096C54.04 39.9627 53.7413 41.4133 53.144 42.448C52.5467 43.4827 51.5067 44 50.024 44C48.5307 44 47.4853 43.4827 46.888 42.448C46.2907 41.4133 45.992 39.9627 45.992 38.096ZM52.6 38.096C52.6 37.168 52.536 36.384 52.408 35.744C52.2907 35.0933 52.04 34.5707 51.656 34.176C51.2827 33.7813 50.7387 33.584 50.024 33.584C49.2987 33.584 48.744 33.7813 48.36 34.176C47.9867 34.5707 47.736 35.0933 47.608 35.744C47.4907 36.384 47.432 37.168 47.432 38.096C47.432 39.056 47.4907 39.8613 47.608 40.512C47.736 41.1627 47.9867 41.6853 48.36 42.08C48.744 42.4747 49.2987 42.672 50.024 42.672C50.7387 42.672 51.2827 42.4747 51.656 42.08C52.04 41.6853 52.2907 41.1627 52.408 40.512C52.536 39.8613 52.6 39.056 52.6 38.096Z" />
<rect x="16" width="114" height="20" rx="10" fill="#FCFCFC"/>
<path d="M26.072 5.636V6.524H23.792V14H22.7V6.524H20.408V5.636H26.072ZM33.4162 10.46C33.4162 10.668 33.4042 10.888 33.3802 11.12H28.1242C28.1642 11.768 28.3842 12.276 28.7842 12.644C29.1922 13.004 29.6842 13.184 30.2602 13.184C30.7322 13.184 31.1242 13.076 31.4362 12.86C31.7562 12.636 31.9802 12.34 32.1082 11.972H33.2842C33.1082 12.604 32.7562 13.12 32.2282 13.52C31.7002 13.912 31.0442 14.108 30.2602 14.108C29.6362 14.108 29.0762 13.968 28.5802 13.688C28.0922 13.408 27.7082 13.012 27.4282 12.5C27.1482 11.98 27.0082 11.38 27.0082 10.7C27.0082 10.02 27.1442 9.424 27.4162 8.912C27.6882 8.4 28.0682 8.008 28.5562 7.736C29.0522 7.456 29.6202 7.316 30.2602 7.316C30.8842 7.316 31.4362 7.452 31.9162 7.724C32.3962 7.996 32.7642 8.372 33.0202 8.852C33.2842 9.324 33.4162 9.86 33.4162 10.46ZM32.2882 10.232C32.2882 9.816 32.1962 9.46 32.0122 9.164C31.8282 8.86 31.5762 8.632 31.2562 8.48C30.9442 8.32 30.5962 8.24 30.2122 8.24C29.6602 8.24 29.1882 8.416 28.7962 8.768C28.4122 9.12 28.1922 9.608 28.1362 10.232H32.2882ZM35.9496 5.12V14H34.8576V5.12H35.9496ZM43.8107 10.46C43.8107 10.668 43.7987 10.888 43.7747 11.12H38.5187C38.5587 11.768 38.7787 12.276 39.1787 12.644C39.5867 13.004 40.0787 13.184 40.6547 13.184C41.1267 13.184 41.5187 13.076 41.8307 12.86C42.1507 12.636 42.3747 12.34 42.5027 11.972H43.6787C43.5027 12.604 43.1507 13.12 42.6227 13.52C42.0947 13.912 41.4387 14.108 40.6547 14.108C40.0307 14.108 39.4707 13.968 38.9747 13.688C38.4867 13.408 38.1027 13.012 37.8227 12.5C37.5427 11.98 37.4027 11.38 37.4027 10.7C37.4027 10.02 37.5387 9.424 37.8107 8.912C38.0827 8.4 38.4627 8.008 38.9507 7.736C39.4467 7.456 40.0147 7.316 40.6547 7.316C41.2787 7.316 41.8307 7.452 42.3107 7.724C42.7907 7.996 43.1587 8.372 43.4147 8.852C43.6787 9.324 43.8107 9.86 43.8107 10.46ZM42.6827 10.232C42.6827 9.816 42.5907 9.46 42.4067 9.164C42.2227 8.86 41.9707 8.632 41.6507 8.48C41.3387 8.32 40.9907 8.24 40.6067 8.24C40.0547 8.24 39.5827 8.416 39.1907 8.768C38.8067 9.12 38.5867 9.608 38.5307 10.232H42.6827ZM47.9281 8.324H46.5481V14H45.4561V8.324H44.6041V7.424H45.4561V6.956C45.4561 6.22 45.6441 5.684 46.0201 5.348C46.4041 5.004 47.0161 4.832 47.8561 4.832V5.744C47.3761 5.744 47.0361 5.84 46.8361 6.032C46.6441 6.216 46.5481 6.524 46.5481 6.956V7.424H47.9281V8.324ZM52.0693 14.108C51.4533 14.108 50.8933 13.968 50.3893 13.688C49.8933 13.408 49.5013 13.012 49.2133 12.5C48.9333 11.98 48.7933 11.38 48.7933 10.7C48.7933 10.028 48.9373 9.436 49.2253 8.924C49.5213 8.404 49.9213 8.008 50.4253 7.736C50.9293 7.456 51.4933 7.316 52.1173 7.316C52.7413 7.316 53.3053 7.456 53.8093 7.736C54.3133 8.008 54.7093 8.4 54.9973 8.912C55.2933 9.424 55.4413 10.02 55.4413 10.7C55.4413 11.38 55.2893 11.98 54.9853 12.5C54.6893 13.012 54.2853 13.408 53.7733 13.688C53.2613 13.968 52.6933 14.108 52.0693 14.108ZM52.0693 13.148C52.4613 13.148 52.8293 13.056 53.1733 12.872C53.5173 12.688 53.7933 12.412 54.0013 12.044C54.2173 11.676 54.3253 11.228 54.3253 10.7C54.3253 10.172 54.2213 9.724 54.0133 9.356C53.8053 8.988 53.5333 8.716 53.1973 8.54C52.8613 8.356 52.4973 8.264 52.1053 8.264C51.7053 8.264 51.3373 8.356 51.0013 8.54C50.6733 8.716 50.4093 8.988 50.2093 9.356C50.0093 9.724 49.9093 10.172 49.9093 10.7C49.9093 11.236 50.0053 11.688 50.1973 12.056C50.3973 12.424 50.6613 12.7 50.9893 12.884C51.3173 13.06 51.6773 13.148 52.0693 13.148ZM60.0811 7.304C60.8811 7.304 61.5291 7.548 62.0251 8.036C62.5211 8.516 62.7691 9.212 62.7691 10.124V14H61.6891V10.28C61.6891 9.624 61.5251 9.124 61.1971 8.78C60.8691 8.428 60.4211 8.252 59.8531 8.252C59.2771 8.252 58.8171 8.432 58.4731 8.792C58.1371 9.152 57.9691 9.676 57.9691 10.364V14H56.8771V7.424H57.9691V8.36C58.1851 8.024 58.4771 7.764 58.8451 7.58C59.2211 7.396 59.6331 7.304 60.0811 7.304ZM74.3281 14H73.2361L68.8441 7.34V14H67.7521V5.624H68.8441L73.2361 12.272V5.624H74.3281V14ZM82.0216 7.424V14H80.9296V13.028C80.7216 13.364 80.4296 13.628 80.0536 13.82C79.6856 14.004 79.2776 14.096 78.8296 14.096C78.3176 14.096 77.8576 13.992 77.4496 13.784C77.0416 13.568 76.7176 13.248 76.4776 12.824C76.2456 12.4 76.1296 11.884 76.1296 11.276V7.424H77.2096V11.132C77.2096 11.78 77.3736 12.28 77.7016 12.632C78.0296 12.976 78.4776 13.148 79.0456 13.148C79.6296 13.148 80.0896 12.968 80.4256 12.608C80.7616 12.248 80.9296 11.724 80.9296 11.036V7.424H82.0216ZM91.7734 7.304C92.2854 7.304 92.7414 7.412 93.1414 7.628C93.5414 7.836 93.8574 8.152 94.0894 8.576C94.3214 9 94.4374 9.516 94.4374 10.124V14H93.3574V10.28C93.3574 9.624 93.1934 9.124 92.8654 8.78C92.5454 8.428 92.1094 8.252 91.5574 8.252C90.9894 8.252 90.5374 8.436 90.2014 8.804C89.8654 9.164 89.6974 9.688 89.6974 10.376V14H88.6174V10.28C88.6174 9.624 88.4534 9.124 88.1254 8.78C87.8054 8.428 87.3694 8.252 86.8174 8.252C86.2494 8.252 85.7974 8.436 85.4614 8.804C85.1254 9.164 84.9574 9.688 84.9574 10.376V14H83.8654V7.424H84.9574V8.372C85.1734 8.028 85.4614 7.764 85.8214 7.58C86.1894 7.396 86.5934 7.304 87.0334 7.304C87.5854 7.304 88.0734 7.428 88.4974 7.676C88.9214 7.924 89.2374 8.288 89.4454 8.768C89.6294 8.304 89.9334 7.944 90.3574 7.688C90.7814 7.432 91.2534 7.304 91.7734 7.304ZM95.8207 10.688C95.8207 10.016 95.9567 9.428 96.2287 8.924C96.5007 8.412 96.8727 8.016 97.3447 7.736C97.8247 7.456 98.3567 7.316 98.9407 7.316C99.5167 7.316 100.017 7.44 100.441 7.688C100.865 7.936 101.181 8.248 101.389 8.624V7.424H102.493V14H101.389V12.776C101.173 13.16 100.849 13.48 100.417 13.736C99.9927 13.984 99.4967 14.108 98.9287 14.108C98.3447 14.108 97.8167 13.964 97.3447 13.676C96.8727 13.388 96.5007 12.984 96.2287 12.464C95.9567 11.944 95.8207 11.352 95.8207 10.688ZM101.389 10.7C101.389 10.204 101.289 9.772 101.089 9.404C100.889 9.036 100.617 8.756 100.273 8.564C99.9367 8.364 99.5647 8.264 99.1567 8.264C98.7487 8.264 98.3767 8.36 98.0407 8.552C97.7047 8.744 97.4367 9.024 97.2367 9.392C97.0367 9.76 96.9367 10.192 96.9367 10.688C96.9367 11.192 97.0367 11.632 97.2367 12.008C97.4367 12.376 97.7047 12.66 98.0407 12.86C98.3767 13.052 98.7487 13.148 99.1567 13.148C99.5647 13.148 99.9367 13.052 100.273 12.86C100.617 12.66 100.889 12.376 101.089 12.008C101.289 11.632 101.389 11.196 101.389 10.7ZM105.43 8.492C105.622 8.116 105.894 7.824 106.246 7.616C106.606 7.408 107.042 7.304 107.554 7.304V8.432H107.266C106.042 8.432 105.43 9.096 105.43 10.424V14H104.338V7.424H105.43V8.492ZM108.407 10.688C108.407 10.016 108.543 9.428 108.815 8.924C109.087 8.412 109.459 8.016 109.931 7.736C110.411 7.456 110.943 7.316 111.527 7.316C112.103 7.316 112.603 7.44 113.027 7.688C113.451 7.936 113.767 8.248 113.975 8.624V7.424H115.079V14H113.975V12.776C113.759 13.16 113.435 13.48 113.003 13.736C112.579 13.984 112.083 14.108 111.515 14.108C110.931 14.108 110.403 13.964 109.931 13.676C109.459 13.388 109.087 12.984 108.815 12.464C108.543 11.944 108.407 11.352 108.407 10.688ZM113.975 10.7C113.975 10.204 113.875 9.772 113.675 9.404C113.475 9.036 113.203 8.756 112.859 8.564C112.523 8.364 112.151 8.264 111.743 8.264C111.335 8.264 110.963 8.36 110.627 8.552C110.291 8.744 110.023 9.024 109.823 9.392C109.623 9.76 109.523 10.192 109.523 10.688C109.523 11.192 109.623 11.632 109.823 12.008C110.023 12.376 110.291 12.66 110.627 12.86C110.963 13.052 111.335 13.148 111.743 13.148C112.151 13.148 112.523 13.052 112.859 12.86C113.203 12.66 113.475 12.376 113.675 12.008C113.875 11.632 113.975 11.196 113.975 10.7ZM119.252 14.108C118.748 14.108 118.296 14.024 117.896 13.856C117.496 13.68 117.18 13.44 116.948 13.136C116.716 12.824 116.588 12.468 116.564 12.068H117.692C117.724 12.396 117.876 12.664 118.148 12.872C118.428 13.08 118.792 13.184 119.24 13.184C119.656 13.184 119.984 13.092 120.224 12.908C120.464 12.724 120.584 12.492 120.584 12.212C120.584 11.924 120.456 11.712 120.2 11.576C119.944 11.432 119.548 11.292 119.012 11.156C118.524 11.028 118.124 10.9 117.812 10.772C117.508 10.636 117.244 10.44 117.02 10.184C116.804 9.92 116.696 9.576 116.696 9.152C116.696 8.816 116.796 8.508 116.996 8.228C117.196 7.948 117.48 7.728 117.848 7.568C118.216 7.4 118.636 7.316 119.108 7.316C119.836 7.316 120.424 7.5 120.872 7.868C121.32 8.236 121.56 8.74 121.592 9.38H120.5C120.476 9.036 120.336 8.76 120.08 8.552C119.832 8.344 119.496 8.24 119.072 8.24C118.68 8.24 118.368 8.324 118.136 8.492C117.904 8.66 117.788 8.88 117.788 9.152C117.788 9.368 117.856 9.548 117.992 9.692C118.136 9.828 118.312 9.94 118.52 10.028C118.736 10.108 119.032 10.2 119.408 10.304C119.88 10.432 120.264 10.56 120.56 10.688C120.856 10.808 121.108 10.992 121.316 11.24C121.532 11.488 121.644 11.812 121.652 12.212C121.652 12.572 121.552 12.896 121.352 13.184C121.152 13.472 120.868 13.7 120.5 13.868C120.14 14.028 119.724 14.108 119.252 14.108ZM124.286 7.424V14H123.194V7.424H124.286Z" fill="#E50913"/>

<path d="M30.352 93.964H33.768V95H29.078V85.242H30.352V93.964ZM41.925 87.328V95H40.651V93.866C40.4083 94.258 40.0676 94.566 39.629 94.79C39.1996 95.0047 38.7236 95.112 38.201 95.112C37.6036 95.112 37.067 94.9907 36.591 94.748C36.115 94.496 35.737 94.1227 35.457 93.628C35.1863 93.1333 35.051 92.5313 35.051 91.822V87.328H36.311V91.654C36.311 92.41 36.5023 92.9933 36.885 93.404C37.2676 93.8053 37.7903 94.006 38.453 94.006C39.1343 94.006 39.671 93.796 40.063 93.376C40.455 92.956 40.651 92.3447 40.651 91.542V87.328H41.925ZM37.403 86.292C37.1976 86.292 37.0203 86.222 36.871 86.082C36.731 85.942 36.661 85.7693 36.661 85.564C36.661 85.3587 36.731 85.186 36.871 85.046C37.0203 84.8967 37.1976 84.822 37.403 84.822C37.599 84.822 37.767 84.8967 37.907 85.046C38.0563 85.186 38.131 85.3587 38.131 85.564C38.131 85.7693 38.0563 85.942 37.907 86.082C37.767 86.222 37.599 86.292 37.403 86.292ZM39.671 86.292C39.4656 86.292 39.293 86.222 39.153 86.082C39.013 85.942 38.943 85.7693 38.943 85.564C38.943 85.3587 39.013 85.186 39.153 85.046C39.293 84.8967 39.4656 84.822 39.671 84.822C39.8763 84.822 40.049 84.8967 40.189 85.046C40.3383 85.186 40.413 85.3587 40.413 85.564C40.413 85.7693 40.3383 85.942 40.189 86.082C40.049 86.222 39.8763 86.292 39.671 86.292ZM45.63 88.378V92.9C45.63 93.2733 45.7094 93.5393 45.868 93.698C46.0267 93.8473 46.302 93.922 46.694 93.922H47.632V95H46.484C45.7747 95 45.2427 94.8367 44.888 94.51C44.5334 94.1833 44.356 93.6467 44.356 92.9V88.378H43.362V87.328H44.356V85.396H45.63V87.328H47.632V88.378H45.63ZM52.2977 88.378H50.6877V95H49.4137V88.378H48.4197V87.328H49.4137V86.782C49.4137 85.9233 49.633 85.298 50.0717 84.906C50.5197 84.5047 51.2337 84.304 52.2137 84.304V85.368C51.6537 85.368 51.257 85.48 51.0237 85.704C50.7997 85.9187 50.6877 86.278 50.6877 86.782V87.328H52.2977V88.378ZM60.7831 90.87C60.7831 91.1127 60.7691 91.3693 60.7411 91.64H54.6091C54.6557 92.396 54.9124 92.9887 55.3791 93.418C55.8551 93.838 56.4291 94.048 57.1011 94.048C57.6517 94.048 58.1091 93.922 58.4731 93.67C58.8464 93.4087 59.1077 93.0633 59.2571 92.634H60.6291C60.4237 93.3713 60.0131 93.9733 59.3971 94.44C58.7811 94.8973 58.0157 95.126 57.1011 95.126C56.3731 95.126 55.7197 94.9627 55.1411 94.636C54.5717 94.3093 54.1237 93.8473 53.7971 93.25C53.4704 92.6433 53.3071 91.9433 53.3071 91.15C53.3071 90.3567 53.4657 89.6613 53.7831 89.064C54.1004 88.4667 54.5437 88.0093 55.1131 87.692C55.6917 87.3653 56.3544 87.202 57.1011 87.202C57.8291 87.202 58.4731 87.3607 59.0331 87.678C59.5931 87.9953 60.0224 88.434 60.3211 88.994C60.6291 89.5447 60.7831 90.17 60.7831 90.87ZM59.4671 90.604C59.4671 90.1187 59.3597 89.7033 59.1451 89.358C58.9304 89.0033 58.6364 88.7373 58.2631 88.56C57.8991 88.3733 57.4931 88.28 57.0451 88.28C56.4011 88.28 55.8504 88.4853 55.3931 88.896C54.9451 89.3067 54.6884 89.876 54.6231 90.604H59.4671ZM66.2027 87.188C67.1361 87.188 67.8921 87.4727 68.4707 88.042C69.0494 88.602 69.3387 89.414 69.3387 90.478V95H68.0787V90.66C68.0787 89.8947 67.8874 89.3113 67.5047 88.91C67.1221 88.4993 66.5994 88.294 65.9367 88.294C65.2647 88.294 64.7281 88.504 64.3267 88.924C63.9347 89.344 63.7387 89.9553 63.7387 90.758V95H62.4647V87.328H63.7387V88.42C63.9907 88.028 64.3314 87.7247 64.7607 87.51C65.1994 87.2953 65.6801 87.188 66.2027 87.188ZM78.3162 87.202C78.9789 87.202 79.5576 87.3467 80.0522 87.636C80.5562 87.9253 80.9296 88.2893 81.1722 88.728V87.328H82.4602V95.168C82.4602 95.868 82.3109 96.4887 82.0122 97.03C81.7136 97.5807 81.2842 98.01 80.7242 98.318C80.1736 98.626 79.5296 98.78 78.7922 98.78C77.7842 98.78 76.9442 98.542 76.2722 98.066C75.6002 97.59 75.2036 96.9413 75.0822 96.12H76.3422C76.4822 96.5867 76.7716 96.96 77.2102 97.24C77.6489 97.5293 78.1762 97.674 78.7922 97.674C79.4922 97.674 80.0616 97.4547 80.5002 97.016C80.9482 96.5773 81.1722 95.9613 81.1722 95.168V93.558C80.9202 94.006 80.5469 94.3793 80.0522 94.678C79.5576 94.9767 78.9789 95.126 78.3162 95.126C77.6349 95.126 77.0142 94.958 76.4542 94.622C75.9036 94.286 75.4696 93.8147 75.1522 93.208C74.8349 92.6013 74.6762 91.9107 74.6762 91.136C74.6762 90.352 74.8349 89.666 75.1522 89.078C75.4696 88.4807 75.9036 88.0187 76.4542 87.692C77.0142 87.3653 77.6349 87.202 78.3162 87.202ZM81.1722 91.15C81.1722 90.5713 81.0556 90.0673 80.8222 89.638C80.5889 89.2087 80.2716 88.882 79.8702 88.658C79.4782 88.4247 79.0442 88.308 78.5682 88.308C78.0922 88.308 77.6582 88.42 77.2662 88.644C76.8742 88.868 76.5616 89.1947 76.3282 89.624C76.0949 90.0533 75.9782 90.5573 75.9782 91.136C75.9782 91.724 76.0949 92.2373 76.3282 92.676C76.5616 93.1053 76.8742 93.4367 77.2662 93.67C77.6582 93.894 78.0922 94.006 78.5682 94.006C79.0442 94.006 79.4782 93.894 79.8702 93.67C80.2716 93.4367 80.5889 93.1053 80.8222 92.676C81.0556 92.2373 81.1722 91.7287 81.1722 91.15ZM91.6132 90.87C91.6132 91.1127 91.5992 91.3693 91.5712 91.64H85.4392C85.4858 92.396 85.7425 92.9887 86.2092 93.418C86.6852 93.838 87.2592 94.048 87.9312 94.048C88.4818 94.048 88.9392 93.922 89.3032 93.67C89.6765 93.4087 89.9378 93.0633 90.0872 92.634H91.4592C91.2538 93.3713 90.8432 93.9733 90.2272 94.44C89.6112 94.8973 88.8458 95.126 87.9312 95.126C87.2032 95.126 86.5498 94.9627 85.9712 94.636C85.4018 94.3093 84.9538 93.8473 84.6272 93.25C84.3005 92.6433 84.1372 91.9433 84.1372 91.15C84.1372 90.3567 84.2958 89.6613 84.6132 89.064C84.9305 88.4667 85.3738 88.0093 85.9432 87.692C86.5218 87.3653 87.1845 87.202 87.9312 87.202C88.6592 87.202 89.3032 87.3607 89.8632 87.678C90.4232 87.9953 90.8525 88.434 91.1512 88.994C91.4592 89.5447 91.6132 90.17 91.6132 90.87ZM90.2972 90.604C90.2972 90.1187 90.1898 89.7033 89.9752 89.358C89.7605 89.0033 89.4665 88.7373 89.0932 88.56C88.7292 88.3733 88.3232 88.28 87.8752 88.28C87.2312 88.28 86.6805 88.4853 86.2232 88.896C85.7752 89.3067 85.5185 89.876 85.4532 90.604H90.2972ZM96.5568 94.048C97.1168 94.048 97.5835 93.9173 97.9568 93.656C98.3301 93.3947 98.5868 93.0213 98.7268 92.536H100.099C99.9121 93.264 99.5435 93.8613 98.9928 94.328C98.4515 94.7853 97.7701 95.0467 96.9488 95.112V95.812C97.4995 95.8027 97.9381 95.9193 98.2648 96.162C98.5915 96.4047 98.7548 96.75 98.7548 97.198C98.7548 97.6367 98.5961 97.9867 98.2788 98.248C97.9615 98.5093 97.5508 98.64 97.0468 98.64H95.4368V97.814H96.7948C97.1028 97.814 97.3268 97.7673 97.4668 97.674C97.6161 97.5807 97.6908 97.422 97.6908 97.198C97.6908 96.9833 97.6161 96.8293 97.4668 96.736C97.3268 96.6427 97.1028 96.596 96.7948 96.596H96.0948V95.098C95.4508 95.0327 94.8815 94.832 94.3868 94.496C93.8921 94.1507 93.5048 93.6933 93.2248 93.124C92.9541 92.5453 92.8188 91.8873 92.8188 91.15C92.8188 90.3567 92.9775 89.666 93.2948 89.078C93.6121 88.4807 94.0508 88.0187 94.6108 87.692C95.1801 87.3653 95.8288 87.202 96.5568 87.202C97.4995 87.202 98.2741 87.4307 98.8808 87.888C99.4968 88.3453 99.9028 88.98 100.099 89.792H98.7268C98.5961 89.3253 98.3395 88.9567 97.9568 88.686C97.5835 88.4153 97.1168 88.28 96.5568 88.28C95.8288 88.28 95.2408 88.532 94.7928 89.036C94.3448 89.5307 94.1208 90.2353 94.1208 91.15C94.1208 92.074 94.3448 92.788 94.7928 93.292C95.2408 93.796 95.8288 94.048 96.5568 94.048ZM108.799 90.87C108.799 91.1127 108.785 91.3693 108.757 91.64H102.625C102.671 92.396 102.928 92.9887 103.395 93.418C103.871 93.838 104.445 94.048 105.117 94.048C105.667 94.048 106.125 93.922 106.489 93.67C106.862 93.4087 107.123 93.0633 107.273 92.634H108.645C108.439 93.3713 108.029 93.9733 107.413 94.44C106.797 94.8973 106.031 95.126 105.117 95.126C104.389 95.126 103.735 94.9627 103.157 94.636C102.587 94.3093 102.139 93.8473 101.813 93.25C101.486 92.6433 101.323 91.9433 101.323 91.15C101.323 90.3567 101.481 89.6613 101.799 89.064C102.116 88.4667 102.559 88.0093 103.129 87.692C103.707 87.3653 104.37 87.202 105.117 87.202C105.845 87.202 106.489 87.3607 107.049 87.678C107.609 87.9953 108.038 88.434 108.337 88.994C108.645 89.5447 108.799 90.17 108.799 90.87ZM107.483 90.604C107.483 90.1187 107.375 89.7033 107.161 89.358C106.946 89.0033 106.652 88.7373 106.279 88.56C105.915 88.3733 105.509 88.28 105.061 88.28C104.417 88.28 103.866 88.4853 103.409 88.896C102.961 89.3067 102.704 89.876 102.639 90.604H107.483ZM111.754 88.574C111.978 88.1353 112.296 87.7947 112.706 87.552C113.126 87.3093 113.635 87.188 114.232 87.188V88.504H113.896C112.468 88.504 111.754 89.2787 111.754 90.828V95H110.48V87.328H111.754V88.574ZM116.977 84.64V95H115.703V84.64H116.977ZM119.806 86.082C119.564 86.082 119.358 85.998 119.19 85.83C119.022 85.662 118.938 85.4567 118.938 85.214C118.938 84.9713 119.022 84.766 119.19 84.598C119.358 84.43 119.564 84.346 119.806 84.346C120.04 84.346 120.236 84.43 120.394 84.598C120.562 84.766 120.646 84.9713 120.646 85.214C120.646 85.4567 120.562 85.662 120.394 85.83C120.236 85.998 120.04 86.082 119.806 86.082ZM120.422 87.328V95H119.148V87.328H120.422ZM127.6 88.756C127.861 88.2987 128.244 87.9253 128.748 87.636C129.252 87.3467 129.826 87.202 130.47 87.202C131.161 87.202 131.781 87.3653 132.332 87.692C132.883 88.0187 133.317 88.4807 133.634 89.078C133.951 89.666 134.11 90.352 134.11 91.136C134.11 91.9107 133.951 92.6013 133.634 93.208C133.317 93.8147 132.878 94.286 132.318 94.622C131.767 94.958 131.151 95.126 130.47 95.126C129.807 95.126 129.224 94.9813 128.72 94.692C128.225 94.4027 127.852 94.034 127.6 93.586V95H126.326V84.64H127.6V88.756ZM132.808 91.136C132.808 90.5573 132.691 90.0533 132.458 89.624C132.225 89.1947 131.907 88.868 131.506 88.644C131.114 88.42 130.68 88.308 130.204 88.308C129.737 88.308 129.303 88.4247 128.902 88.658C128.51 88.882 128.193 89.2133 127.95 89.652C127.717 90.0813 127.6 90.5807 127.6 91.15C127.6 91.7287 127.717 92.2373 127.95 92.676C128.193 93.1053 128.51 93.4367 128.902 93.67C129.303 93.894 129.737 94.006 130.204 94.006C130.68 94.006 131.114 93.894 131.506 93.67C131.907 93.4367 132.225 93.1053 132.458 92.676C132.691 92.2373 132.808 91.724 132.808 91.136ZM136.445 86.082C136.202 86.082 135.997 85.998 135.829 85.83C135.661 85.662 135.577 85.4567 135.577 85.214C135.577 84.9713 135.661 84.766 135.829 84.598C135.997 84.43 136.202 84.346 136.445 84.346C136.678 84.346 136.874 84.43 137.033 84.598C137.201 84.766 137.285 84.9713 137.285 85.214C137.285 85.4567 137.201 85.662 137.033 85.83C136.874 85.998 136.678 86.082 136.445 86.082ZM137.061 87.328V95H135.787V87.328H137.061ZM140.506 88.574C140.73 88.1353 141.048 87.7947 141.458 87.552C141.878 87.3093 142.387 87.188 142.984 87.188V88.504H142.648C141.22 88.504 140.506 89.2787 140.506 90.828V95H139.232V87.328H140.506V88.574ZM149.741 88.378V92.9C149.741 93.2733 149.821 93.5393 149.979 93.698C150.138 93.8473 150.413 93.922 150.805 93.922H151.743V95H150.595C149.886 95 149.354 94.8367 148.999 94.51C148.645 94.1833 148.467 93.6467 148.467 92.9V88.378H147.473V87.328H148.467V85.396H149.741V87.328H151.743V88.378H149.741ZM160.287 90.87C160.287 91.1127 160.273 91.3693 160.245 91.64H154.113C154.16 92.396 154.416 92.9887 154.883 93.418C155.359 93.838 155.933 94.048 156.605 94.048C157.156 94.048 157.613 93.922 157.977 93.67C158.35 93.4087 158.612 93.0633 158.761 92.634H160.133C159.928 93.3713 159.517 93.9733 158.901 94.44C158.285 94.8973 157.52 95.126 156.605 95.126C155.877 95.126 155.224 94.9627 154.645 94.636C154.076 94.3093 153.628 93.8473 153.301 93.25C152.974 92.6433 152.811 91.9433 152.811 91.15C152.811 90.3567 152.97 89.6613 153.287 89.064C153.604 88.4667 154.048 88.0093 154.617 87.692C155.196 87.3653 155.858 87.202 156.605 87.202C157.333 87.202 157.977 87.3607 158.537 87.678C159.097 87.9953 159.526 88.434 159.825 88.994C160.133 89.5447 160.287 90.17 160.287 90.87ZM158.971 90.604C158.971 90.1187 158.864 89.7033 158.649 89.358C158.434 89.0033 158.14 88.7373 157.767 88.56C157.403 88.3733 156.997 88.28 156.549 88.28C155.905 88.28 155.354 88.4853 154.897 88.896C154.449 89.3067 154.192 89.876 154.127 90.604H158.971ZM163.243 84.64V95H161.969V84.64H163.243ZM172.414 90.87C172.414 91.1127 172.4 91.3693 172.372 91.64H166.24C166.287 92.396 166.543 92.9887 167.01 93.418C167.486 93.838 168.06 94.048 168.732 94.048C169.283 94.048 169.74 93.922 170.104 93.67C170.477 93.4087 170.739 93.0633 170.888 92.634H172.26C172.055 93.3713 171.644 93.9733 171.028 94.44C170.412 94.8973 169.647 95.126 168.732 95.126C168.004 95.126 167.351 94.9627 166.772 94.636C166.203 94.3093 165.755 93.8473 165.428 93.25C165.101 92.6433 164.938 91.9433 164.938 91.15C164.938 90.3567 165.097 89.6613 165.414 89.064C165.731 88.4667 166.175 88.0093 166.744 87.692C167.323 87.3653 167.985 87.202 168.732 87.202C169.46 87.202 170.104 87.3607 170.664 87.678C171.224 87.9953 171.653 88.434 171.952 88.994C172.26 89.5447 172.414 90.17 172.414 90.87ZM171.098 90.604C171.098 90.1187 170.991 89.7033 170.776 89.358C170.561 89.0033 170.267 88.7373 169.894 88.56C169.53 88.3733 169.124 88.28 168.676 88.28C168.032 88.28 167.481 88.4853 167.024 88.896C166.576 89.3067 166.319 89.876 166.254 90.604H171.098ZM177.218 88.378H175.608V95H174.334V88.378H173.34V87.328H174.334V86.782C174.334 85.9233 174.553 85.298 174.992 84.906C175.44 84.5047 176.154 84.304 177.134 84.304V85.368C176.574 85.368 176.177 85.48 175.944 85.704C175.72 85.9187 175.608 86.278 175.608 86.782V87.328H177.218V88.378ZM182.049 95.126C181.33 95.126 180.677 94.9627 180.089 94.636C179.51 94.3093 179.053 93.8473 178.717 93.25C178.39 92.6433 178.227 91.9433 178.227 91.15C178.227 90.366 178.395 89.6753 178.731 89.078C179.076 88.4713 179.543 88.0093 180.131 87.692C180.719 87.3653 181.377 87.202 182.105 87.202C182.833 87.202 183.491 87.3653 184.079 87.692C184.667 88.0093 185.129 88.4667 185.465 89.064C185.81 89.6613 185.983 90.3567 185.983 91.15C185.983 91.9433 185.806 92.6433 185.451 93.25C185.106 93.8473 184.634 94.3093 184.037 94.636C183.44 94.9627 182.777 95.126 182.049 95.126ZM182.049 94.006C182.506 94.006 182.936 93.8987 183.337 93.684C183.738 93.4693 184.06 93.1473 184.303 92.718C184.555 92.2887 184.681 91.766 184.681 91.15C184.681 90.534 184.56 90.0113 184.317 89.582C184.074 89.1527 183.757 88.8353 183.365 88.63C182.973 88.4153 182.548 88.308 182.091 88.308C181.624 88.308 181.195 88.4153 180.803 88.63C180.42 88.8353 180.112 89.1527 179.879 89.582C179.646 90.0113 179.529 90.534 179.529 91.15C179.529 91.7753 179.641 92.3027 179.865 92.732C180.098 93.1613 180.406 93.4833 180.789 93.698C181.172 93.9033 181.592 94.006 182.049 94.006ZM191.396 87.188C192.329 87.188 193.085 87.4727 193.664 88.042C194.243 88.602 194.532 89.414 194.532 90.478V95H193.272V90.66C193.272 89.8947 193.081 89.3113 192.698 88.91C192.315 88.4993 191.793 88.294 191.13 88.294C190.458 88.294 189.921 88.504 189.52 88.924C189.128 89.344 188.932 89.9553 188.932 90.758V95H187.658V87.328H188.932V88.42C189.184 88.028 189.525 87.7247 189.954 87.51C190.393 87.2953 190.873 87.188 191.396 87.188ZM204.084 87.188C205.017 87.188 205.773 87.4727 206.352 88.042C206.93 88.602 207.22 89.414 207.22 90.478V95H205.96V90.66C205.96 89.8947 205.768 89.3113 205.386 88.91C205.003 88.4993 204.48 88.294 203.818 88.294C203.146 88.294 202.609 88.504 202.208 88.924C201.816 89.344 201.62 89.9553 201.62 90.758V95H200.346V87.328H201.62V88.42C201.872 88.028 202.212 87.7247 202.642 87.51C203.08 87.2953 203.561 87.188 204.084 87.188ZM216.105 87.328V95H214.831V93.866C214.588 94.258 214.247 94.566 213.809 94.79C213.379 95.0047 212.903 95.112 212.381 95.112C211.783 95.112 211.247 94.9907 210.771 94.748C210.295 94.496 209.917 94.1227 209.637 93.628C209.366 93.1333 209.231 92.5313 209.231 91.822V87.328H210.491V91.654C210.491 92.41 210.682 92.9933 211.065 93.404C211.447 93.8053 211.97 94.006 212.633 94.006C213.314 94.006 213.851 93.796 214.243 93.376C214.635 92.956 214.831 92.3447 214.831 91.542V87.328H216.105ZM227.482 87.188C228.079 87.188 228.611 87.314 229.078 87.566C229.544 87.8087 229.913 88.1773 230.184 88.672C230.454 89.1667 230.59 89.7687 230.59 90.478V95H229.33V90.66C229.33 89.8947 229.138 89.3113 228.756 88.91C228.382 88.4993 227.874 88.294 227.23 88.294C226.567 88.294 226.04 88.5087 225.648 88.938C225.256 89.358 225.06 89.9693 225.06 90.772V95H223.8V90.66C223.8 89.8947 223.608 89.3113 223.226 88.91C222.852 88.4993 222.344 88.294 221.7 88.294C221.037 88.294 220.51 88.5087 220.118 88.938C219.726 89.358 219.53 89.9693 219.53 90.772V95H218.256V87.328H219.53V88.434C219.782 88.0327 220.118 87.7247 220.538 87.51C220.967 87.2953 221.438 87.188 221.952 87.188C222.596 87.188 223.165 87.3327 223.66 87.622C224.154 87.9113 224.523 88.336 224.766 88.896C224.98 88.3547 225.335 87.9347 225.83 87.636C226.324 87.3373 226.875 87.188 227.482 87.188ZM232.204 91.136C232.204 90.352 232.362 89.666 232.68 89.078C232.997 88.4807 233.431 88.0187 233.982 87.692C234.542 87.3653 235.162 87.202 235.844 87.202C236.516 87.202 237.099 87.3467 237.594 87.636C238.088 87.9253 238.457 88.2893 238.7 88.728V87.328H239.988V95H238.7V93.572C238.448 94.02 238.07 94.3933 237.566 94.692C237.071 94.9813 236.492 95.126 235.83 95.126C235.148 95.126 234.532 94.958 233.982 94.622C233.431 94.286 232.997 93.8147 232.68 93.208C232.362 92.6013 232.204 91.9107 232.204 91.136ZM238.7 91.15C238.7 90.5713 238.583 90.0673 238.35 89.638C238.116 89.2087 237.799 88.882 237.398 88.658C237.006 88.4247 236.572 88.308 236.096 88.308C235.62 88.308 235.186 88.42 234.794 88.644C234.402 88.868 234.089 89.1947 233.856 89.624C233.622 90.0533 233.506 90.5573 233.506 91.136C233.506 91.724 233.622 92.2373 233.856 92.676C234.089 93.1053 234.402 93.4367 234.794 93.67C235.186 93.894 235.62 94.006 236.096 94.006C236.572 94.006 237.006 93.894 237.398 93.67C237.799 93.4367 238.116 93.1053 238.35 92.676C238.583 92.2373 238.7 91.7287 238.7 91.15ZM243.415 88.574C243.639 88.1353 243.956 87.7947 244.367 87.552C244.787 87.3093 245.295 87.188 245.893 87.188V88.504H245.557C244.129 88.504 243.415 89.2787 243.415 90.828V95H242.141V87.328H243.415V88.574ZM246.887 91.136C246.887 90.352 247.046 89.666 247.363 89.078C247.68 88.4807 248.114 88.0187 248.665 87.692C249.225 87.3653 249.846 87.202 250.527 87.202C251.199 87.202 251.782 87.3467 252.277 87.636C252.772 87.9253 253.14 88.2893 253.383 88.728V87.328H254.671V95H253.383V93.572C253.131 94.02 252.753 94.3933 252.249 94.692C251.754 94.9813 251.176 95.126 250.513 95.126C249.832 95.126 249.216 94.958 248.665 94.622C248.114 94.286 247.68 93.8147 247.363 93.208C247.046 92.6013 246.887 91.9107 246.887 91.136ZM253.383 91.15C253.383 90.5713 253.266 90.0673 253.033 89.638C252.8 89.2087 252.482 88.882 252.081 88.658C251.689 88.4247 251.255 88.308 250.779 88.308C250.303 88.308 249.869 88.42 249.477 88.644C249.085 88.868 248.772 89.1947 248.539 89.624C248.306 90.0533 248.189 90.5573 248.189 91.136C248.189 91.724 248.306 92.2373 248.539 92.676C248.772 93.1053 249.085 93.4367 249.477 93.67C249.869 93.894 250.303 94.006 250.779 94.006C251.255 94.006 251.689 93.894 252.081 93.67C252.482 93.4367 252.8 93.1053 253.033 92.676C253.266 92.2373 253.383 91.7287 253.383 91.15ZM259.54 95.126C258.952 95.126 258.425 95.028 257.958 94.832C257.491 94.6267 257.123 94.3467 256.852 93.992C256.581 93.628 256.432 93.2127 256.404 92.746H257.72C257.757 93.1287 257.935 93.4413 258.252 93.684C258.579 93.9267 259.003 94.048 259.526 94.048C260.011 94.048 260.394 93.9407 260.674 93.726C260.954 93.5113 261.094 93.2407 261.094 92.914C261.094 92.578 260.945 92.3307 260.646 92.172C260.347 92.004 259.885 91.8407 259.26 91.682C258.691 91.5327 258.224 91.3833 257.86 91.234C257.505 91.0753 257.197 90.8467 256.936 90.548C256.684 90.24 256.558 89.8387 256.558 89.344C256.558 88.952 256.675 88.5927 256.908 88.266C257.141 87.9393 257.473 87.6827 257.902 87.496C258.331 87.3 258.821 87.202 259.372 87.202C260.221 87.202 260.907 87.4167 261.43 87.846C261.953 88.2753 262.233 88.8633 262.27 89.61H260.996C260.968 89.2087 260.805 88.8867 260.506 88.644C260.217 88.4013 259.825 88.28 259.33 88.28C258.873 88.28 258.509 88.378 258.238 88.574C257.967 88.77 257.832 89.0267 257.832 89.344C257.832 89.596 257.911 89.806 258.07 89.974C258.238 90.1327 258.443 90.2633 258.686 90.366C258.938 90.4593 259.283 90.5667 259.722 90.688C260.273 90.8373 260.721 90.9867 261.066 91.136C261.411 91.276 261.705 91.4907 261.948 91.78C262.2 92.0693 262.331 92.4473 262.34 92.914C262.34 93.334 262.223 93.712 261.99 94.048C261.757 94.384 261.425 94.65 260.996 94.846C260.576 95.0327 260.091 95.126 259.54 95.126ZM265.413 87.328V95H264.139V87.328H265.413ZM274.48 87.202C275.143 87.202 275.722 87.3467 276.216 87.636C276.72 87.9253 277.094 88.2893 277.336 88.728V87.328H278.624V95.168C278.624 95.868 278.475 96.4887 278.176 97.03C277.878 97.5807 277.448 98.01 276.888 98.318C276.338 98.626 275.694 98.78 274.956 98.78C273.948 98.78 273.108 98.542 272.436 98.066C271.764 97.59 271.368 96.9413 271.246 96.12H272.506C272.646 96.5867 272.936 96.96 273.374 97.24C273.813 97.5293 274.34 97.674 274.956 97.674C275.656 97.674 276.226 97.4547 276.664 97.016C277.112 96.5773 277.336 95.9613 277.336 95.168V93.558C277.084 94.006 276.711 94.3793 276.216 94.678C275.722 94.9767 275.143 95.126 274.48 95.126C273.799 95.126 273.178 94.958 272.618 94.622C272.068 94.286 271.634 93.8147 271.316 93.208C270.999 92.6013 270.84 91.9107 270.84 91.136C270.84 90.352 270.999 89.666 271.316 89.078C271.634 88.4807 272.068 88.0187 272.618 87.692C273.178 87.3653 273.799 87.202 274.48 87.202ZM277.336 91.15C277.336 90.5713 277.22 90.0673 276.986 89.638C276.753 89.2087 276.436 88.882 276.034 88.658C275.642 88.4247 275.208 88.308 274.732 88.308C274.256 88.308 273.822 88.42 273.43 88.644C273.038 88.868 272.726 89.1947 272.492 89.624C272.259 90.0533 272.142 90.5573 272.142 91.136C272.142 91.724 272.259 92.2373 272.492 92.676C272.726 93.1053 273.038 93.4367 273.43 93.67C273.822 93.894 274.256 94.006 274.732 94.006C275.208 94.006 275.642 93.894 276.034 93.67C276.436 93.4367 276.753 93.1053 276.986 92.676C277.22 92.2373 277.336 91.7287 277.336 91.15ZM281.435 86.082C281.193 86.082 280.987 85.998 280.819 85.83C280.651 85.662 280.567 85.4567 280.567 85.214C280.567 84.9713 280.651 84.766 280.819 84.598C280.987 84.43 281.193 84.346 281.435 84.346C281.669 84.346 281.865 84.43 282.023 84.598C282.191 84.766 282.275 84.9713 282.275 85.214C282.275 85.4567 282.191 85.662 282.023 85.83C281.865 85.998 281.669 86.082 281.435 86.082ZM282.051 87.328V95H280.777V87.328H282.051ZM285.497 88.574C285.721 88.1353 286.038 87.7947 286.449 87.552C286.869 87.3093 287.377 87.188 287.975 87.188V88.504H287.639C286.211 88.504 285.497 89.2787 285.497 90.828V95H284.223V87.328H285.497V88.574ZM290.103 86.082C289.861 86.082 289.655 85.998 289.487 85.83C289.319 85.662 289.235 85.4567 289.235 85.214C289.235 84.9713 289.319 84.766 289.487 84.598C289.655 84.43 289.861 84.346 290.103 84.346C290.337 84.346 290.533 84.43 290.691 84.598C290.859 84.766 290.943 84.9713 290.943 85.214C290.943 85.4567 290.859 85.662 290.691 85.83C290.533 85.998 290.337 86.082 290.103 86.082ZM290.719 87.328V95H289.445V87.328H290.719ZM296.629 87.188C297.562 87.188 298.318 87.4727 298.897 88.042C299.475 88.602 299.765 89.414 299.765 90.478V95H298.505V90.66C298.505 89.8947 298.313 89.3113 297.931 88.91C297.548 88.4993 297.025 88.294 296.363 88.294C295.691 88.294 295.154 88.504 294.753 88.924C294.361 89.344 294.165 89.9553 294.165 90.758V95H292.891V87.328H294.165V88.42C294.417 88.028 294.757 87.7247 295.187 87.51C295.625 87.2953 296.106 87.188 296.629 87.188ZM302.252 95.084C302.009 95.084 301.804 95 301.636 94.832C301.468 94.664 301.384 94.4587 301.384 94.216C301.384 93.9733 301.468 93.768 301.636 93.6C301.804 93.432 302.009 93.348 302.252 93.348C302.485 93.348 302.681 93.432 302.84 93.6C303.008 93.768 303.092 93.9733 303.092 94.216C303.092 94.4587 303.008 94.664 302.84 94.832C302.681 95 302.485 95.084 302.252 95.084Z" />
</svg>
