<svg width="52" height="52" viewBox="0 0 52 52" fill="none" xmlns="http://www.w3.org/2000/svg">
<g filter="url(#filter0_dd_328_3289)">
<rect x="12" y="12" width="28" height="28" rx="5" fill="white"/>
</g>
<g clip-path="url(#clip0_328_3289)">
<path fill-rule="evenodd" clip-rule="evenodd" d="M25.2383 16.7989C24.6243 16.88 23.8661 17.0542 22.7874 17.3031L21.5592 17.5865C20.6482 17.7968 20.0208 17.9425 19.5416 18.107C19.079 18.2658 18.8173 18.4223 18.6198 18.6198C18.4223 18.8173 18.2658 19.079 18.107 19.5416C17.9425 20.0208 17.7968 20.6482 17.5866 21.5592L17.3031 22.7874C17.0542 23.866 16.8801 24.6243 16.7989 25.2383C16.7199 25.8365 16.7381 26.2413 16.8436 26.6092C16.9491 26.9772 17.1482 27.3301 17.5323 27.7954C17.9265 28.2731 18.4761 28.8238 19.2588 29.6066L21.0885 31.4362C22.448 32.7957 23.4154 33.7608 24.247 34.3954C25.0614 35.0167 25.6569 35.25 26.2624 35.25C26.8678 35.25 27.4633 35.0167 28.2777 34.3954C29.1093 33.7608 30.0767 32.7957 31.4362 31.4362C32.7957 30.0767 33.7608 29.1093 34.3954 28.2776C35.0167 27.4633 35.25 26.8678 35.25 26.2623C35.25 25.6569 35.0167 25.0614 34.3954 24.247C33.7608 23.4153 32.7957 22.4479 31.4362 21.0885L29.6066 19.2588C28.8238 18.4761 28.2732 17.9265 27.7955 17.5323C27.3301 17.1482 26.9772 16.9491 26.6092 16.8436C26.2413 16.7381 25.8365 16.7198 25.2383 16.7989ZM25.0418 15.3118C25.7591 15.217 26.3881 15.2197 27.0228 15.4017C27.6574 15.5837 28.1922 15.9148 28.7503 16.3754C29.2897 16.8206 29.8905 17.4214 30.641 18.1719L32.5368 20.0677C33.8475 21.3783 34.8851 22.416 35.5879 23.3371C36.3111 24.2849 36.75 25.197 36.75 26.2623C36.75 27.3276 36.3111 28.2397 35.5879 29.1875C34.8851 30.1087 33.8475 31.1463 32.5368 32.4569L32.4569 32.5368C31.1463 33.8474 30.1087 34.8851 29.1875 35.5879C28.2397 36.311 27.3276 36.75 26.2624 36.75C25.1971 36.75 24.285 36.311 23.3372 35.5879C22.416 34.8851 21.3784 33.8474 20.0677 32.5368L18.172 30.641C17.4214 29.8905 16.8206 29.2897 16.3754 28.7502C15.9148 28.1922 15.5838 27.6574 15.4017 27.0227C15.2197 26.3881 15.217 25.7591 15.3118 25.0418C15.4035 24.3484 15.5945 23.5205 15.8332 22.4862L16.1339 21.1833C16.333 20.3202 16.4955 19.6164 16.6882 19.0547C16.8896 18.4681 17.1432 17.9751 17.5591 17.5591C17.9751 17.1431 18.4681 16.8895 19.0547 16.6882C19.6164 16.4954 20.3203 16.333 21.1834 16.1339L22.4862 15.8332C23.5205 15.5945 24.3484 15.4034 25.0418 15.3118ZM23.4909 21.9952C23.0028 21.5071 22.2113 21.5071 21.7232 21.9952C21.235 22.4834 21.235 23.2748 21.7232 23.763C22.2113 24.2511 23.0028 24.2511 23.4909 23.763C23.9791 23.2748 23.9791 22.4834 23.4909 21.9952ZM20.6625 20.9346C21.7365 19.8606 23.4777 19.8606 24.5516 20.9346C25.6255 22.0085 25.6255 23.7497 24.5516 24.8236C23.4777 25.8976 21.7365 25.8976 20.6625 24.8236C19.5886 23.7497 19.5886 22.0085 20.6625 20.9346ZM26.9929 26.107C26.816 26.1053 26.5835 26.1847 26.3841 26.3841C25.9966 26.7716 26.0985 27.1591 26.2073 27.268C26.3162 27.3768 26.7037 27.4787 27.0912 27.0912C27.8753 26.3071 29.2289 26.0469 30.0964 26.9144C30.7694 27.5874 30.7637 28.553 30.3612 29.3182C30.5624 29.6104 30.533 30.0134 30.2732 30.2732C30.0143 30.5321 29.6131 30.5621 29.3212 30.3633C28.8643 30.6061 28.3446 30.6971 27.849 30.5952C27.4433 30.5119 27.182 30.1153 27.2654 29.7096C27.3487 29.3039 27.7452 29.0426 28.151 29.1259C28.3281 29.1623 28.6137 29.1042 28.859 28.859C29.2465 28.4714 29.1446 28.0839 29.0358 27.9751C28.9269 27.8662 28.5394 27.7643 28.1519 28.1518C27.3678 28.9359 26.0142 29.1961 25.1467 28.3286C24.4737 27.6557 24.4794 26.6901 24.8819 25.9248C24.6807 25.6327 24.7101 25.2297 24.9699 24.9699C25.2288 24.711 25.6298 24.6809 25.9217 24.8796C26.2615 24.699 26.635 24.6035 27.0071 24.607C27.4213 24.6109 27.7539 24.9499 27.75 25.3641C27.7461 25.7783 27.4071 26.1109 26.9929 26.107Z" fill="#1C274C"/>
</g>
<defs>
<filter id="filter0_dd_328_3289" x="0" y="0" width="52" height="52" filterUnits="userSpaceOnUse" color-interpolation-filters="sRGB">
<feFlood flood-opacity="0" result="BackgroundImageFix"/>
<feColorMatrix in="SourceAlpha" type="matrix" values="0 0 0 0 0 0 0 0 0 0 0 0 0 0 0 0 0 0 127 0" result="hardAlpha"/>
<feOffset dx="2" dy="2"/>
<feGaussianBlur stdDeviation="5"/>
<feComposite in2="hardAlpha" operator="out"/>
<feColorMatrix type="matrix" values="0 0 0 0 0 0 0 0 0 0 0 0 0 0 0 0 0 0 0.05 0"/>
<feBlend mode="normal" in2="BackgroundImageFix" result="effect1_dropShadow_328_3289"/>
<feColorMatrix in="SourceAlpha" type="matrix" values="0 0 0 0 0 0 0 0 0 0 0 0 0 0 0 0 0 0 127 0" result="hardAlpha"/>
<feOffset dx="-2" dy="-2"/>
<feGaussianBlur stdDeviation="5"/>
<feComposite in2="hardAlpha" operator="out"/>
<feColorMatrix type="matrix" values="0 0 0 0 0 0 0 0 0 0 0 0 0 0 0 0 0 0 0.05 0"/>
<feBlend mode="normal" in2="effect1_dropShadow_328_3289" result="effect2_dropShadow_328_3289"/>
<feBlend mode="normal" in="SourceGraphic" in2="effect2_dropShadow_328_3289" result="shape"/>
</filter>
<clipPath id="clip0_328_3289">
<rect width="24" height="24" fill="white" transform="translate(14 14)"/>
</clipPath>
</defs>
</svg>
