<svg width="30" height="30" viewBox="0 0 30 30" fill="none" xmlns="http://www.w3.org/2000/svg">
<circle cx="15" cy="15" r="15" fill="#E50913" fill-opacity="0.8"/>
<path d="M15 6C14 6 12.6474 7.33405 11 7.99998C8.97573 8.81824 7 8.99999 7 8.99999V13.1844C7 20.5861 13.2742 23.3989 14.7098 23.9457C14.9 24.0181 15.1 24.0181 15.2902 23.9457C16.7258 23.3989 23 20.5861 23 13.1844V8.99998C23 8.99998 21.0243 8.81824 19 7.99998C17.3526 7.33406 16 6 15 6Z" stroke="white" stroke-width="2" stroke-linecap="round" stroke-linejoin="round"/>
<path d="M14.9502 18H15.0502V18.1H14.9502V18Z" stroke="white" stroke-width="2" stroke-linecap="round" stroke-linejoin="round"/>
<path d="M15 11V15" stroke="white" stroke-width="2" stroke-linecap="round" stroke-linejoin="round"/>
</svg>
