<svg width="52" height="52" viewBox="0 0 52 52" fill="none" xmlns="http://www.w3.org/2000/svg">
<g filter="url(#filter0_dd_244_3472)">
<rect x="12" y="12" width="28" height="28" rx="5" fill="white"/>
</g>
<g clip-path="url(#clip0_244_3472)">
<path d="M29.0595 24.4995C29.3353 24.1905 29.3085 23.7164 28.9995 23.4405C28.6905 23.1647 28.2164 23.1915 27.9405 23.5005L24.9286 26.8739L24.0595 25.9005C23.7836 25.5915 23.3095 25.5647 23.0005 25.8405C22.6915 26.1164 22.6647 26.5905 22.9405 26.8995L24.3691 28.4995C24.5114 28.6589 24.7149 28.75 24.9286 28.75C25.1422 28.75 25.3457 28.6589 25.488 28.4995L29.0595 24.4995Z" fill="#1C274C"/>
<path fill-rule="evenodd" clip-rule="evenodd" d="M26 15.25C25.0625 15.25 24.1673 15.5566 22.7234 16.0511L21.9959 16.3001C20.5146 16.8072 19.3714 17.1985 18.553 17.531C18.1408 17.6985 17.7864 17.8607 17.501 18.0264C17.2263 18.1859 16.9508 18.3848 16.7636 18.6515C16.5786 18.9152 16.4829 19.2392 16.4228 19.5512C16.3603 19.8756 16.3226 20.2646 16.2983 20.7114C16.25 21.5984 16.25 22.8135 16.25 24.3896V25.9914C16.25 32.0924 20.858 35.0175 23.5983 36.2146L23.6254 36.2264C23.9652 36.3749 24.2846 36.5144 24.6516 36.6084C25.0391 36.7076 25.4507 36.75 26 36.75C26.5493 36.75 26.9609 36.7076 27.3484 36.6084C27.7154 36.5144 28.0348 36.3749 28.3745 36.2264L28.4017 36.2146C31.142 35.0175 35.75 32.0924 35.75 25.9914V24.3898C35.75 22.8136 35.75 21.5984 35.7017 20.7114C35.6774 20.2646 35.6397 19.8756 35.5772 19.5512C35.5171 19.2392 35.4214 18.9152 35.2364 18.6515C35.0492 18.3848 34.7737 18.1859 34.499 18.0264C34.2136 17.8607 33.8592 17.6985 33.447 17.531C32.6286 17.1985 31.4854 16.8072 30.004 16.3001L29.2766 16.0511C27.8327 15.5566 26.9375 15.25 26 15.25ZM23.0806 17.5143C24.6951 16.9616 25.3423 16.75 26 16.75C26.6577 16.75 27.3049 16.9616 28.9194 17.5143L29.4922 17.7104C31.0048 18.2281 32.1079 18.606 32.8824 18.9207C33.269 19.0777 33.5491 19.2093 33.7457 19.3235C33.8428 19.3799 33.9097 19.4264 33.9543 19.4627C33.9922 19.4935 34.0066 19.5109 34.0087 19.5135C34.0106 19.5166 34.0231 19.5374 34.0406 19.5865C34.0606 19.6426 34.0827 19.7231 34.1043 19.8351C34.148 20.0617 34.1811 20.373 34.2039 20.7929C34.2497 21.6341 34.25 22.8083 34.25 24.4167V25.9914C34.25 31.1665 30.3801 33.7135 27.8012 34.84C27.4297 35.0023 27.2152 35.0941 26.9764 35.1552C26.7483 35.2136 26.47 35.25 26 35.25C25.53 35.25 25.2517 35.2136 25.0236 35.1552C24.7848 35.0941 24.5703 35.0023 24.1988 34.84C21.6199 33.7135 17.75 31.1665 17.75 25.9914V24.4167C17.75 22.8083 17.7503 21.6341 17.7961 20.7929C17.8189 20.373 17.852 20.0617 17.8957 19.8351C17.9173 19.7231 17.9394 19.6426 17.9594 19.5865C17.9769 19.5374 17.9894 19.5166 17.9913 19.5135C17.9934 19.5109 18.0078 19.4935 18.0457 19.4627C18.0903 19.4264 18.1572 19.3799 18.2543 19.3235C18.4509 19.2093 18.731 19.0777 19.1176 18.9207C19.8921 18.606 20.9952 18.2281 22.5078 17.7104L23.0806 17.5143Z" fill="#1C274C"/>
</g>
<defs>
<filter id="filter0_dd_244_3472" x="0" y="0" width="52" height="52" filterUnits="userSpaceOnUse" color-interpolation-filters="sRGB">
<feFlood flood-opacity="0" result="BackgroundImageFix"/>
<feColorMatrix in="SourceAlpha" type="matrix" values="0 0 0 0 0 0 0 0 0 0 0 0 0 0 0 0 0 0 127 0" result="hardAlpha"/>
<feOffset dx="2" dy="2"/>
<feGaussianBlur stdDeviation="5"/>
<feComposite in2="hardAlpha" operator="out"/>
<feColorMatrix type="matrix" values="0 0 0 0 0 0 0 0 0 0 0 0 0 0 0 0 0 0 0.05 0"/>
<feBlend mode="normal" in2="BackgroundImageFix" result="effect1_dropShadow_244_3472"/>
<feColorMatrix in="SourceAlpha" type="matrix" values="0 0 0 0 0 0 0 0 0 0 0 0 0 0 0 0 0 0 127 0" result="hardAlpha"/>
<feOffset dx="-2" dy="-2"/>
<feGaussianBlur stdDeviation="5"/>
<feComposite in2="hardAlpha" operator="out"/>
<feColorMatrix type="matrix" values="0 0 0 0 0 0 0 0 0 0 0 0 0 0 0 0 0 0 0.05 0"/>
<feBlend mode="normal" in2="effect1_dropShadow_244_3472" result="effect2_dropShadow_244_3472"/>
<feBlend mode="normal" in="SourceGraphic" in2="effect2_dropShadow_244_3472" result="shape"/>
</filter>
<clipPath id="clip0_244_3472">
<rect width="24" height="24" fill="white" transform="translate(14 14)"/>
</clipPath>
</defs>
</svg>
