<svg width="159" height="40" viewBox="0 0 159 40" fill="none" xmlns="http://www.w3.org/2000/svg">
<rect width="159" height="40" rx="20" fill="#1A1A1A" fill-opacity="0.9"/>
<path d="M25.072 15.228V25H23.112V20.842H18.926V25H16.966V15.228H18.926V19.246H23.112V15.228H25.072ZM26.4972 21.094C26.4972 20.31 26.6512 19.6147 26.9592 19.008C27.2765 18.4013 27.7012 17.9347 28.2332 17.608C28.7745 17.2813 29.3765 17.118 30.0392 17.118C30.6178 17.118 31.1218 17.2347 31.5512 17.468C31.9898 17.7013 32.3398 17.9953 32.6012 18.35V17.244H34.5752V25H32.6012V23.866C32.3492 24.23 31.9992 24.5333 31.5512 24.776C31.1125 25.0093 30.6038 25.126 30.0252 25.126C29.3718 25.126 28.7745 24.958 28.2332 24.622C27.7012 24.286 27.2765 23.8147 26.9592 23.208C26.6512 22.592 26.4972 21.8873 26.4972 21.094ZM32.6012 21.122C32.6012 20.646 32.5078 20.24 32.3212 19.904C32.1345 19.5587 31.8825 19.2973 31.5652 19.12C31.2478 18.9333 30.9072 18.84 30.5432 18.84C30.1792 18.84 29.8432 18.9287 29.5352 19.106C29.2272 19.2833 28.9752 19.5447 28.7792 19.89C28.5925 20.226 28.4992 20.6273 28.4992 21.094C28.4992 21.5607 28.5925 21.9713 28.7792 22.326C28.9752 22.6713 29.2272 22.9373 29.5352 23.124C29.8525 23.3107 30.1885 23.404 30.5432 23.404C30.9072 23.404 31.2478 23.3153 31.5652 23.138C31.8825 22.9513 32.1345 22.69 32.3212 22.354C32.5078 22.0087 32.6012 21.598 32.6012 21.122ZM38.4494 18.448C38.7014 18.0373 39.0281 17.7153 39.4294 17.482C39.8401 17.2487 40.3068 17.132 40.8294 17.132V19.19H40.3114C39.6954 19.19 39.2288 19.3347 38.9114 19.624C38.6034 19.9133 38.4494 20.4173 38.4494 21.136V25H36.4894V17.244H38.4494V18.448ZM43.1436 16.32C42.7983 16.32 42.5089 16.2127 42.2756 15.998C42.0516 15.774 41.9396 15.4987 41.9396 15.172C41.9396 14.8453 42.0516 14.5747 42.2756 14.36C42.5089 14.136 42.7983 14.024 43.1436 14.024C43.4889 14.024 43.7736 14.136 43.9976 14.36C44.2309 14.5747 44.3476 14.8453 44.3476 15.172C44.3476 15.4987 44.2309 15.774 43.9976 15.998C43.7736 16.2127 43.4889 16.32 43.1436 16.32ZM44.1096 17.244V25H42.1496V17.244H44.1096ZM48.3281 18.854V22.606C48.3281 22.8673 48.3887 23.0587 48.5101 23.18C48.6407 23.292 48.8554 23.348 49.1541 23.348H50.0641V25H48.8321C47.1801 25 46.3541 24.1973 46.3541 22.592V18.854H45.4301V17.244H46.3541V15.326H48.3281V17.244H50.0641V18.854H48.3281ZM50.9698 21.094C50.9698 20.31 51.1238 19.6147 51.4318 19.008C51.7491 18.4013 52.1738 17.9347 52.7058 17.608C53.2471 17.2813 53.8491 17.118 54.5118 17.118C55.0905 17.118 55.5945 17.2347 56.0238 17.468C56.4625 17.7013 56.8125 17.9953 57.0738 18.35V17.244H59.0478V25H57.0738V23.866C56.8218 24.23 56.4718 24.5333 56.0238 24.776C55.5851 25.0093 55.0765 25.126 54.4978 25.126C53.8445 25.126 53.2471 24.958 52.7058 24.622C52.1738 24.286 51.7491 23.8147 51.4318 23.208C51.1238 22.592 50.9698 21.8873 50.9698 21.094ZM57.0738 21.122C57.0738 20.646 56.9805 20.24 56.7938 19.904C56.6071 19.5587 56.3551 19.2973 56.0378 19.12C55.7205 18.9333 55.3798 18.84 55.0158 18.84C54.6518 18.84 54.3158 18.9287 54.0078 19.106C53.6998 19.2833 53.4478 19.5447 53.2518 19.89C53.0651 20.226 52.9718 20.6273 52.9718 21.094C52.9718 21.5607 53.0651 21.9713 53.2518 22.326C53.4478 22.6713 53.6998 22.9373 54.0078 23.124C54.3251 23.3107 54.6611 23.404 55.0158 23.404C55.3798 23.404 55.7205 23.3153 56.0378 23.138C56.3551 22.9513 56.6071 22.69 56.7938 22.354C56.9805 22.0087 57.0738 21.598 57.0738 21.122ZM60.4581 21.094C60.4581 20.31 60.6121 19.6147 60.9201 19.008C61.2374 18.4013 61.6668 17.9347 62.2081 17.608C62.7494 17.2813 63.3514 17.118 64.0141 17.118C64.5181 17.118 64.9988 17.23 65.4561 17.454C65.9134 17.6687 66.2774 17.958 66.5481 18.322V14.64H68.5361V25H66.5481V23.852C66.3054 24.2347 65.9648 24.5427 65.5261 24.776C65.0874 25.0093 64.5788 25.126 64.0001 25.126C63.3468 25.126 62.7494 24.958 62.2081 24.622C61.6668 24.286 61.2374 23.8147 60.9201 23.208C60.6121 22.592 60.4581 21.8873 60.4581 21.094ZM66.5621 21.122C66.5621 20.646 66.4688 20.24 66.2821 19.904C66.0954 19.5587 65.8434 19.2973 65.5261 19.12C65.2088 18.9333 64.8681 18.84 64.5041 18.84C64.1401 18.84 63.8041 18.9287 63.4961 19.106C63.1881 19.2833 62.9361 19.5447 62.7401 19.89C62.5534 20.226 62.4601 20.6273 62.4601 21.094C62.4601 21.5607 62.5534 21.9713 62.7401 22.326C62.9361 22.6713 63.1881 22.9373 63.4961 23.124C63.8134 23.3107 64.1494 23.404 64.5041 23.404C64.8681 23.404 65.2088 23.3153 65.5261 23.138C65.8434 22.9513 66.0954 22.69 66.2821 22.354C66.4688 22.0087 66.5621 21.598 66.5621 21.122ZM69.9464 21.094C69.9464 20.31 70.1004 19.6147 70.4084 19.008C70.7257 18.4013 71.1504 17.9347 71.6824 17.608C72.2237 17.2813 72.8257 17.118 73.4884 17.118C74.067 17.118 74.571 17.2347 75.0004 17.468C75.439 17.7013 75.789 17.9953 76.0504 18.35V17.244H78.0244V25H76.0504V23.866C75.7984 24.23 75.4484 24.5333 75.0004 24.776C74.5617 25.0093 74.053 25.126 73.4744 25.126C72.821 25.126 72.2237 24.958 71.6824 24.622C71.1504 24.286 70.7257 23.8147 70.4084 23.208C70.1004 22.592 69.9464 21.8873 69.9464 21.094ZM76.0504 21.122C76.0504 20.646 75.957 20.24 75.7704 19.904C75.5837 19.5587 75.3317 19.2973 75.0144 19.12C74.697 18.9333 74.3564 18.84 73.9924 18.84C73.6284 18.84 73.2924 18.9287 72.9844 19.106C72.6764 19.2833 72.4244 19.5447 72.2284 19.89C72.0417 20.226 71.9484 20.6273 71.9484 21.094C71.9484 21.5607 72.0417 21.9713 72.2284 22.326C72.4244 22.6713 72.6764 22.9373 72.9844 23.124C73.3017 23.3107 73.6377 23.404 73.9924 23.404C74.3564 23.404 74.697 23.3153 75.0144 23.138C75.3317 22.9513 75.5837 22.69 75.7704 22.354C75.957 22.0087 76.0504 21.598 76.0504 21.122ZM90.0786 18.168C89.8546 17.7573 89.5466 17.4447 89.1546 17.23C88.7626 17.0153 88.3053 16.908 87.7826 16.908C87.2039 16.908 86.6906 17.0387 86.2426 17.3C85.7946 17.5613 85.4446 17.9347 85.1926 18.42C84.9406 18.9053 84.8146 19.4653 84.8146 20.1C84.8146 20.7533 84.9406 21.3227 85.1926 21.808C85.4539 22.2933 85.8133 22.6667 86.2706 22.928C86.7279 23.1893 87.2599 23.32 87.8666 23.32C88.6133 23.32 89.2246 23.124 89.7006 22.732C90.1766 22.3307 90.4893 21.7753 90.6386 21.066H87.2786V19.568H92.5706V21.276C92.4399 21.9573 92.1599 22.5873 91.7306 23.166C91.3013 23.7447 90.7459 24.2113 90.0646 24.566C89.3926 24.9113 88.6366 25.084 87.7966 25.084C86.8539 25.084 85.9999 24.874 85.2346 24.454C84.4786 24.0247 83.8813 23.432 83.4426 22.676C83.0133 21.92 82.7986 21.0613 82.7986 20.1C82.7986 19.1387 83.0133 18.28 83.4426 17.524C83.8813 16.7587 84.4786 16.166 85.2346 15.746C85.9999 15.3167 86.8493 15.102 87.7826 15.102C88.8839 15.102 89.8406 15.3727 90.6526 15.914C91.4646 16.446 92.0246 17.1973 92.3326 18.168H90.0786ZM97.4647 25.126C96.718 25.126 96.046 24.9627 95.4487 24.636C94.8514 24.3 94.38 23.8287 94.0347 23.222C93.6987 22.6153 93.5307 21.9153 93.5307 21.122C93.5307 20.3287 93.7034 19.6287 94.0487 19.022C94.4034 18.4153 94.884 17.9487 95.4907 17.622C96.0974 17.286 96.774 17.118 97.5207 17.118C98.2674 17.118 98.944 17.286 99.5507 17.622C100.157 17.9487 100.633 18.4153 100.979 19.022C101.333 19.6287 101.511 20.3287 101.511 21.122C101.511 21.9153 101.329 22.6153 100.965 23.222C100.61 23.8287 100.125 24.3 99.5087 24.636C98.902 24.9627 98.2207 25.126 97.4647 25.126ZM97.4647 23.418C97.8194 23.418 98.1507 23.334 98.4587 23.166C98.776 22.9887 99.028 22.7273 99.2147 22.382C99.4014 22.0367 99.4947 21.6167 99.4947 21.122C99.4947 20.3847 99.2987 19.82 98.9067 19.428C98.524 19.0267 98.0527 18.826 97.4927 18.826C96.9327 18.826 96.4614 19.0267 96.0787 19.428C95.7054 19.82 95.5187 20.3847 95.5187 21.122C95.5187 21.8593 95.7007 22.4287 96.0647 22.83C96.438 23.222 96.9047 23.418 97.4647 23.418ZM96.3027 16.222C96.0414 16.222 95.822 16.1333 95.6447 15.956C95.4674 15.7787 95.3787 15.5593 95.3787 15.298C95.3787 15.0367 95.4674 14.8173 95.6447 14.64C95.822 14.4533 96.0414 14.36 96.3027 14.36C96.564 14.36 96.7834 14.4533 96.9607 14.64C97.1474 14.8173 97.2407 15.0367 97.2407 15.298C97.2407 15.5593 97.1474 15.7787 96.9607 15.956C96.7834 16.1333 96.564 16.222 96.3027 16.222ZM98.8927 16.222C98.6314 16.222 98.412 16.1333 98.2347 15.956C98.0574 15.7787 97.9687 15.5593 97.9687 15.298C97.9687 15.0367 98.0574 14.8173 98.2347 14.64C98.412 14.4533 98.6314 14.36 98.8927 14.36C99.154 14.36 99.3734 14.4533 99.5507 14.64C99.7374 14.8173 99.8307 15.0367 99.8307 15.298C99.8307 15.5593 99.7374 15.7787 99.5507 15.956C99.3734 16.1333 99.154 16.222 98.8927 16.222ZM104.908 18.448C105.16 18.0373 105.487 17.7153 105.888 17.482C106.299 17.2487 106.766 17.132 107.288 17.132V19.19H106.77C106.154 19.19 105.688 19.3347 105.37 19.624C105.062 19.9133 104.908 20.4173 104.908 21.136V25H102.948V17.244H104.908V18.448Z" fill="white"/>
<path d="M122 25.7639V15.2361C122 14.4785 122.428 13.786 123.106 13.4472L127.106 11.4472C127.669 11.1657 128.331 11.1657 128.894 11.4472L133.106 13.5528C133.669 13.8343 134.331 13.8343 134.894 13.5528L137.106 12.4472C138.435 11.7823 140 12.7493 140 14.2361V24.7639C140 25.5215 139.572 26.214 138.894 26.5528L134.894 28.5528C134.331 28.8343 133.669 28.8343 133.106 28.5528L128.894 26.4472C128.331 26.1657 127.669 26.1657 127.106 26.4472L124.894 27.5528C123.565 28.2177 122 27.2507 122 25.7639Z" stroke="white" stroke-width="2"/>
<path d="M134 14V29" stroke="white" stroke-width="2"/>
<path d="M128 11V26" stroke="white" stroke-width="2"/>
</svg>
