<svg width="30" height="30" viewBox="0 0 30 30" fill="none" xmlns="http://www.w3.org/2000/svg">
<circle cx="15" cy="15" r="15" fill="white"/>
<path fill-rule="evenodd" clip-rule="evenodd" d="M19.5 5.25C17.7051 5.25 16.25 6.70507 16.25 8.5C16.25 8.69591 16.2673 8.88776 16.3006 9.07412L11.5699 12.3856C11.5459 12.4024 11.5231 12.4204 11.5017 12.4394C10.9499 12.0075 10.255 11.75 9.5 11.75C7.70507 11.75 6.25 13.2051 6.25 15C6.25 16.7949 7.70507 18.25 9.5 18.25C10.255 18.25 10.9499 17.9925 11.5017 17.5606C11.5231 17.5796 11.5459 17.5976 11.5699 17.6144L16.3006 20.9259C16.2673 21.1122 16.25 21.3041 16.25 21.5C16.25 23.2949 17.7051 24.75 19.5 24.75C21.2949 24.75 22.75 23.2949 22.75 21.5C22.75 19.7051 21.2949 18.25 19.5 18.25C18.4472 18.25 17.5113 18.7506 16.9174 19.5267L12.4381 16.3911C12.6381 15.9694 12.75 15.4978 12.75 15C12.75 14.5022 12.6381 14.0306 12.4381 13.6089L16.9174 10.4733C17.5113 11.2494 18.4472 11.75 19.5 11.75C21.2949 11.75 22.75 10.2949 22.75 8.5C22.75 6.70507 21.2949 5.25 19.5 5.25ZM17.75 8.5C17.75 7.5335 18.5335 6.75 19.5 6.75C20.4665 6.75 21.25 7.5335 21.25 8.5C21.25 9.4665 20.4665 10.25 19.5 10.25C18.5335 10.25 17.75 9.4665 17.75 8.5ZM9.5 13.25C8.5335 13.25 7.75 14.0335 7.75 15C7.75 15.9665 8.5335 16.75 9.5 16.75C10.4665 16.75 11.25 15.9665 11.25 15C11.25 14.0335 10.4665 13.25 9.5 13.25ZM19.5 19.75C18.5335 19.75 17.75 20.5335 17.75 21.5C17.75 22.4665 18.5335 23.25 19.5 23.25C20.4665 23.25 21.25 22.4665 21.25 21.5C21.25 20.5335 20.4665 19.75 19.5 19.75Z" fill="#1A1A1A"/>
</svg>
