<svg width="343" height="48" viewBox="0 0 343 48" fill="none" xmlns="http://www.w3.org/2000/svg">
<rect x="0.5" y="0.5" width="342" height="47" rx="9.5" fill="#FCFCFC"/>
<path d="M36 14C33.3478 14 30.8043 15.0536 28.9289 16.9289C27.0536 18.8043 26 21.3478 26 24C26 26.6522 27.0536 29.1957 28.9289 31.0711C30.8043 32.9464 33.3478 34 36 34C38.6522 34 41.1957 32.9464 43.0711 31.0711C44.9464 29.1957 46 26.6522 46 24C46 21.3478 44.9464 18.8043 43.0711 16.9289C41.1957 15.0536 38.6522 14 36 14Z" fill="#039BE5"/>
<path d="M37.286 26.518H39.7445L40.1305 24.0205H37.2855V22.6555C37.2855 21.618 37.6245 20.698 38.595 20.698H40.1545V18.5185C39.8805 18.4815 39.301 18.4005 38.206 18.4005C35.9195 18.4005 34.579 19.608 34.579 22.359V24.0205H32.2285V26.518H34.579V33.3825C35.0445 33.4525 35.516 33.5 36 33.5C36.4375 33.5 36.8645 33.46 37.286 33.403V26.518Z" fill="white"/>
<path d="M105.895 18.848V20.032H101.047V23.792H104.983V24.976H101.047V30H99.5914V18.848H105.895ZM107.11 25.584C107.11 24.688 107.291 23.904 107.654 23.232C108.017 22.5493 108.513 22.0213 109.142 21.648C109.782 21.2747 110.491 21.088 111.27 21.088C112.038 21.088 112.705 21.2533 113.27 21.584C113.835 21.9147 114.257 22.3307 114.534 22.832V21.232H116.006V30H114.534V28.368C114.246 28.88 113.814 29.3067 113.238 29.648C112.673 29.9787 112.011 30.144 111.254 30.144C110.475 30.144 109.771 29.952 109.142 29.568C108.513 29.184 108.017 28.6453 107.654 27.952C107.291 27.2587 107.11 26.4693 107.11 25.584ZM114.534 25.6C114.534 24.9387 114.401 24.3627 114.134 23.872C113.867 23.3813 113.505 23.008 113.046 22.752C112.598 22.4853 112.102 22.352 111.558 22.352C111.014 22.352 110.518 22.48 110.07 22.736C109.622 22.992 109.265 23.3653 108.998 23.856C108.731 24.3467 108.598 24.9227 108.598 25.584C108.598 26.256 108.731 26.8427 108.998 27.344C109.265 27.8347 109.622 28.2133 110.07 28.48C110.518 28.736 111.014 28.864 111.558 28.864C112.102 28.864 112.598 28.736 113.046 28.48C113.505 28.2133 113.867 27.8347 114.134 27.344C114.401 26.8427 114.534 26.2613 114.534 25.6ZM117.922 25.6C117.922 24.6933 118.104 23.904 118.466 23.232C118.829 22.5493 119.33 22.0213 119.97 21.648C120.621 21.2747 121.362 21.088 122.194 21.088C123.272 21.088 124.157 21.3493 124.85 21.872C125.554 22.3947 126.018 23.12 126.242 24.048H124.674C124.525 23.5147 124.232 23.0933 123.794 22.784C123.368 22.4747 122.834 22.32 122.194 22.32C121.362 22.32 120.69 22.608 120.178 23.184C119.666 23.7493 119.41 24.5547 119.41 25.6C119.41 26.656 119.666 27.472 120.178 28.048C120.69 28.624 121.362 28.912 122.194 28.912C122.834 28.912 123.368 28.7627 123.794 28.464C124.221 28.1653 124.514 27.7387 124.674 27.184H126.242C126.008 28.08 125.538 28.8 124.834 29.344C124.13 29.8773 123.25 30.144 122.194 30.144C121.362 30.144 120.621 29.9573 119.97 29.584C119.33 29.2107 118.829 28.6827 118.466 28C118.104 27.3173 117.922 26.5173 117.922 25.6ZM136.185 25.28C136.185 25.5573 136.169 25.8507 136.137 26.16H129.129C129.182 27.024 129.476 27.7013 130.009 28.192C130.553 28.672 131.209 28.912 131.977 28.912C132.606 28.912 133.129 28.768 133.545 28.48C133.972 28.1813 134.27 27.7867 134.441 27.296H136.009C135.774 28.1387 135.305 28.8267 134.601 29.36C133.897 29.8827 133.022 30.144 131.977 30.144C131.145 30.144 130.398 29.9573 129.737 29.584C129.086 29.2107 128.574 28.6827 128.201 28C127.828 27.3067 127.641 26.5067 127.641 25.6C127.641 24.6933 127.822 23.8987 128.185 23.216C128.548 22.5333 129.054 22.0107 129.705 21.648C130.366 21.2747 131.124 21.088 131.977 21.088C132.809 21.088 133.545 21.2693 134.185 21.632C134.825 21.9947 135.316 22.496 135.657 23.136C136.009 23.7653 136.185 24.48 136.185 25.28ZM134.681 24.976C134.681 24.4213 134.558 23.9467 134.313 23.552C134.068 23.1467 133.732 22.8427 133.305 22.64C132.889 22.4267 132.425 22.32 131.913 22.32C131.177 22.32 130.548 22.5547 130.025 23.024C129.513 23.4933 129.22 24.144 129.145 24.976H134.681ZM139.563 22.864C139.862 22.3413 140.299 21.9147 140.875 21.584C141.451 21.2533 142.107 21.088 142.843 21.088C143.632 21.088 144.342 21.2747 144.971 21.648C145.6 22.0213 146.096 22.5493 146.459 23.232C146.822 23.904 147.003 24.688 147.003 25.584C147.003 26.4693 146.822 27.2587 146.459 27.952C146.096 28.6453 145.595 29.184 144.955 29.568C144.326 29.952 143.622 30.144 142.843 30.144C142.086 30.144 141.419 29.9787 140.843 29.648C140.278 29.3173 139.851 28.896 139.563 28.384V30H138.107V18.16H139.563V22.864ZM145.515 25.584C145.515 24.9227 145.382 24.3467 145.115 23.856C144.848 23.3653 144.486 22.992 144.027 22.736C143.579 22.48 143.083 22.352 142.539 22.352C142.006 22.352 141.51 22.4853 141.051 22.752C140.603 23.008 140.24 23.3867 139.963 23.888C139.696 24.3787 139.563 24.9493 139.563 25.6C139.563 26.2613 139.696 26.8427 139.963 27.344C140.24 27.8347 140.603 28.2133 141.051 28.48C141.51 28.736 142.006 28.864 142.539 28.864C143.083 28.864 143.579 28.736 144.027 28.48C144.486 28.2133 144.848 27.8347 145.115 27.344C145.382 26.8427 145.515 26.256 145.515 25.584ZM152.744 30.144C151.922 30.144 151.176 29.9573 150.504 29.584C149.842 29.2107 149.32 28.6827 148.936 28C148.562 27.3067 148.376 26.5067 148.376 25.6C148.376 24.704 148.568 23.9147 148.952 23.232C149.346 22.5387 149.88 22.0107 150.552 21.648C151.224 21.2747 151.976 21.088 152.808 21.088C153.64 21.088 154.392 21.2747 155.064 21.648C155.736 22.0107 156.264 22.5333 156.648 23.216C157.042 23.8987 157.24 24.6933 157.24 25.6C157.24 26.5067 157.037 27.3067 156.632 28C156.237 28.6827 155.698 29.2107 155.016 29.584C154.333 29.9573 153.576 30.144 152.744 30.144ZM152.744 28.864C153.266 28.864 153.757 28.7413 154.216 28.496C154.674 28.2507 155.042 27.8827 155.32 27.392C155.608 26.9013 155.752 26.304 155.752 25.6C155.752 24.896 155.613 24.2987 155.336 23.808C155.058 23.3173 154.696 22.9547 154.248 22.72C153.8 22.4747 153.314 22.352 152.792 22.352C152.258 22.352 151.768 22.4747 151.32 22.72C150.882 22.9547 150.53 23.3173 150.264 23.808C149.997 24.2987 149.864 24.896 149.864 25.6C149.864 26.3147 149.992 26.9173 150.248 27.408C150.514 27.8987 150.866 28.2667 151.304 28.512C151.741 28.7467 152.221 28.864 152.744 28.864ZM162.978 30.144C162.157 30.144 161.41 29.9573 160.738 29.584C160.077 29.2107 159.554 28.6827 159.17 28C158.797 27.3067 158.61 26.5067 158.61 25.6C158.61 24.704 158.802 23.9147 159.186 23.232C159.581 22.5387 160.114 22.0107 160.786 21.648C161.458 21.2747 162.21 21.088 163.042 21.088C163.874 21.088 164.626 21.2747 165.298 21.648C165.97 22.0107 166.498 22.5333 166.882 23.216C167.277 23.8987 167.474 24.6933 167.474 25.6C167.474 26.5067 167.271 27.3067 166.866 28C166.471 28.6827 165.933 29.2107 165.25 29.584C164.567 29.9573 163.81 30.144 162.978 30.144ZM162.978 28.864C163.501 28.864 163.991 28.7413 164.45 28.496C164.909 28.2507 165.277 27.8827 165.554 27.392C165.842 26.9013 165.986 26.304 165.986 25.6C165.986 24.896 165.847 24.2987 165.57 23.808C165.293 23.3173 164.93 22.9547 164.482 22.72C164.034 22.4747 163.549 22.352 163.026 22.352C162.493 22.352 162.002 22.4747 161.554 22.72C161.117 22.9547 160.765 23.3173 160.498 23.808C160.231 24.2987 160.098 24.896 160.098 25.6C160.098 26.3147 160.226 26.9173 160.482 27.408C160.749 27.8987 161.101 28.2667 161.538 28.512C161.975 28.7467 162.455 28.864 162.978 28.864ZM174.284 30L170.844 26.128V30H169.388V18.16H170.844V25.12L174.22 21.232H176.252L172.124 25.6L176.268 30H174.284ZM182.64 19.808C182.363 19.808 182.128 19.712 181.936 19.52C181.744 19.328 181.648 19.0933 181.648 18.816C181.648 18.5387 181.744 18.304 181.936 18.112C182.128 17.92 182.363 17.824 182.64 17.824C182.907 17.824 183.131 17.92 183.312 18.112C183.504 18.304 183.6 18.5387 183.6 18.816C183.6 19.0933 183.504 19.328 183.312 19.52C183.131 19.712 182.907 19.808 182.64 19.808ZM183.344 21.232V30H181.888V21.232H183.344ZM187.282 18.16V30H185.826V18.16H187.282ZM197.763 25.28C197.763 25.5573 197.747 25.8507 197.715 26.16H190.707C190.761 27.024 191.054 27.7013 191.587 28.192C192.131 28.672 192.787 28.912 193.555 28.912C194.185 28.912 194.707 28.768 195.123 28.48C195.55 28.1813 195.849 27.7867 196.019 27.296H197.587C197.353 28.1387 196.883 28.8267 196.179 29.36C195.475 29.8827 194.601 30.144 193.555 30.144C192.723 30.144 191.977 29.9573 191.315 29.584C190.665 29.2107 190.153 28.6827 189.779 28C189.406 27.3067 189.219 26.5067 189.219 25.6C189.219 24.6933 189.401 23.8987 189.763 23.216C190.126 22.5333 190.633 22.0107 191.283 21.648C191.945 21.2747 192.702 21.088 193.555 21.088C194.387 21.088 195.123 21.2693 195.763 21.632C196.403 21.9947 196.894 22.496 197.235 23.136C197.587 23.7653 197.763 24.48 197.763 25.28ZM196.259 24.976C196.259 24.4213 196.137 23.9467 195.891 23.552C195.646 23.1467 195.31 22.8427 194.883 22.64C194.467 22.4267 194.003 22.32 193.491 22.32C192.755 22.32 192.126 22.5547 191.603 23.024C191.091 23.4933 190.798 24.144 190.723 24.976H196.259ZM207.567 21.088C208.324 21.088 208.985 21.2533 209.551 21.584C210.127 21.9147 210.553 22.3307 210.831 22.832V21.232H212.303V30.192C212.303 30.992 212.132 31.7013 211.791 32.32C211.449 32.9493 210.959 33.44 210.319 33.792C209.689 34.144 208.953 34.32 208.111 34.32C206.959 34.32 205.999 34.048 205.231 33.504C204.463 32.96 204.009 32.2187 203.871 31.28H205.311C205.471 31.8133 205.801 32.24 206.303 32.56C206.804 32.8907 207.407 33.056 208.111 33.056C208.911 33.056 209.561 32.8053 210.063 32.304C210.575 31.8027 210.831 31.0987 210.831 30.192V28.352C210.543 28.864 210.116 29.2907 209.551 29.632C208.985 29.9733 208.324 30.144 207.567 30.144C206.788 30.144 206.079 29.952 205.439 29.568C204.809 29.184 204.313 28.6453 203.951 27.952C203.588 27.2587 203.407 26.4693 203.407 25.584C203.407 24.688 203.588 23.904 203.951 23.232C204.313 22.5493 204.809 22.0213 205.439 21.648C206.079 21.2747 206.788 21.088 207.567 21.088ZM210.831 25.6C210.831 24.9387 210.697 24.3627 210.431 23.872C210.164 23.3813 209.801 23.008 209.343 22.752C208.895 22.4853 208.399 22.352 207.855 22.352C207.311 22.352 206.815 22.48 206.367 22.736C205.919 22.992 205.561 23.3653 205.295 23.856C205.028 24.3467 204.895 24.9227 204.895 25.584C204.895 26.256 205.028 26.8427 205.295 27.344C205.561 27.8347 205.919 28.2133 206.367 28.48C206.815 28.736 207.311 28.864 207.855 28.864C208.399 28.864 208.895 28.736 209.343 28.48C209.801 28.2133 210.164 27.8347 210.431 27.344C210.697 26.8427 210.831 26.2613 210.831 25.6ZM215.515 19.808C215.238 19.808 215.003 19.712 214.811 19.52C214.619 19.328 214.523 19.0933 214.523 18.816C214.523 18.5387 214.619 18.304 214.811 18.112C215.003 17.92 215.238 17.824 215.515 17.824C215.782 17.824 216.006 17.92 216.187 18.112C216.379 18.304 216.475 18.5387 216.475 18.816C216.475 19.0933 216.379 19.328 216.187 19.52C216.006 19.712 215.782 19.808 215.515 19.808ZM216.219 21.232V30H214.763V21.232H216.219ZM220.157 22.656C220.413 22.1547 220.775 21.7653 221.245 21.488C221.725 21.2107 222.306 21.072 222.989 21.072V22.576H222.605C220.973 22.576 220.157 23.4613 220.157 25.232V30H218.701V21.232H220.157V22.656ZM225.422 19.808C225.144 19.808 224.91 19.712 224.718 19.52C224.526 19.328 224.43 19.0933 224.43 18.816C224.43 18.5387 224.526 18.304 224.718 18.112C224.91 17.92 225.144 17.824 225.422 17.824C225.688 17.824 225.912 17.92 226.094 18.112C226.286 18.304 226.382 18.5387 226.382 18.816C226.382 19.0933 226.286 19.328 226.094 19.52C225.912 19.712 225.688 19.808 225.422 19.808ZM226.126 21.232V30H224.67V21.232H226.126ZM234.911 27.616C234.911 28.2987 234.655 28.8747 234.143 29.344C233.631 29.8027 232.948 30.064 232.095 30.128V30.928C232.724 30.9173 233.226 31.0507 233.599 31.328C233.972 31.6053 234.159 32 234.159 32.512C234.159 33.0133 233.978 33.4133 233.615 33.712C233.252 34.0107 232.783 34.16 232.207 34.16H230.367V33.216H231.919C232.271 33.216 232.527 33.1627 232.687 33.056C232.858 32.9493 232.943 32.768 232.943 32.512C232.943 32.2667 232.858 32.0907 232.687 31.984C232.527 31.8773 232.271 31.824 231.919 31.824H231.119V30.112C230.255 30.016 229.551 29.7227 229.007 29.232C228.463 28.7413 228.17 28.1387 228.127 27.424H229.631C229.674 27.8613 229.876 28.2187 230.239 28.496C230.612 28.7733 231.098 28.912 231.695 28.912C232.25 28.912 232.687 28.7893 233.007 28.544C233.327 28.2987 233.487 27.9893 233.487 27.616C233.487 27.232 233.316 26.9493 232.975 26.768C232.634 26.576 232.106 26.3893 231.391 26.208C230.74 26.0373 230.207 25.8667 229.791 25.696C229.386 25.5147 229.034 25.2533 228.735 24.912C228.447 24.56 228.303 24.1013 228.303 23.536C228.303 23.088 228.436 22.6773 228.703 22.304C228.97 21.9307 229.348 21.6373 229.839 21.424C230.33 21.2 230.89 21.088 231.519 21.088C232.49 21.088 233.274 21.3333 233.871 21.824C234.468 22.3147 234.788 22.9867 234.831 23.84H233.375C233.343 23.3813 233.156 23.0133 232.815 22.736C232.484 22.4587 232.036 22.32 231.471 22.32C230.948 22.32 230.532 22.432 230.223 22.656C229.914 22.88 229.759 23.1733 229.759 23.536C229.759 23.824 229.85 24.064 230.031 24.256C230.223 24.4373 230.458 24.5867 230.735 24.704C231.023 24.8107 231.418 24.9333 231.919 25.072C232.548 25.2427 233.06 25.4133 233.455 25.584C233.85 25.744 234.186 25.9893 234.463 26.32C234.751 26.6507 234.9 27.0827 234.911 27.616ZM248.784 21.232L243.504 34.128H242L243.728 29.904L240.192 21.232H241.808L244.56 28.336L247.28 21.232H248.784ZM249.704 25.584C249.704 24.688 249.885 23.904 250.248 23.232C250.61 22.5493 251.106 22.0213 251.736 21.648C252.376 21.2747 253.085 21.088 253.864 21.088C254.632 21.088 255.298 21.2533 255.864 21.584C256.429 21.9147 256.85 22.3307 257.128 22.832V21.232H258.6V30H257.128V28.368C256.84 28.88 256.408 29.3067 255.832 29.648C255.266 29.9787 254.605 30.144 253.848 30.144C253.069 30.144 252.365 29.952 251.736 29.568C251.106 29.184 250.61 28.6453 250.248 27.952C249.885 27.2587 249.704 26.4693 249.704 25.584ZM257.128 25.6C257.128 24.9387 256.994 24.3627 256.728 23.872C256.461 23.3813 256.098 23.008 255.64 22.752C255.192 22.4853 254.696 22.352 254.152 22.352C253.608 22.352 253.112 22.48 252.664 22.736C252.216 22.992 251.858 23.3653 251.592 23.856C251.325 24.3467 251.192 24.9227 251.192 25.584C251.192 26.256 251.325 26.8427 251.592 27.344C251.858 27.8347 252.216 28.2133 252.664 28.48C253.112 28.736 253.608 28.864 254.152 28.864C254.696 28.864 255.192 28.736 255.64 28.48C256.098 28.2133 256.461 27.8347 256.728 27.344C256.994 26.8427 257.128 26.2613 257.128 25.6ZM262.516 22.848C262.804 22.3467 263.231 21.9307 263.796 21.6C264.372 21.2587 265.039 21.088 265.796 21.088C266.575 21.088 267.279 21.2747 267.908 21.648C268.548 22.0213 269.049 22.5493 269.412 23.232C269.775 23.904 269.956 24.688 269.956 25.584C269.956 26.4693 269.775 27.2587 269.412 27.952C269.049 28.6453 268.548 29.184 267.908 29.568C267.279 29.952 266.575 30.144 265.796 30.144C265.049 30.144 264.388 29.9787 263.812 29.648C263.247 29.3067 262.815 28.8853 262.516 28.384V34.16H261.06V21.232H262.516V22.848ZM268.468 25.584C268.468 24.9227 268.335 24.3467 268.068 23.856C267.801 23.3653 267.439 22.992 266.98 22.736C266.532 22.48 266.036 22.352 265.492 22.352C264.959 22.352 264.463 22.4853 264.004 22.752C263.556 23.008 263.193 23.3867 262.916 23.888C262.649 24.3787 262.516 24.9493 262.516 25.6C262.516 26.2613 262.649 26.8427 262.916 27.344C263.193 27.8347 263.556 28.2133 264.004 28.48C264.463 28.736 264.959 28.864 265.492 28.864C266.036 28.864 266.532 28.736 266.98 28.48C267.439 28.2133 267.801 27.8347 268.068 27.344C268.335 26.8427 268.468 26.256 268.468 25.584Z" fill="#1A1A1A"/>
<rect x="0.5" y="0.5" width="342" height="47" rx="9.5" stroke="#D4D4D4"/>
</svg>
