<svg width="343" height="48" viewBox="0 0 343 48" fill="none" xmlns="http://www.w3.org/2000/svg">
<rect width="343" height="48" rx="8" fill="#E50913"/>
<path d="M141.904 21.09C141.58 20.466 141.13 19.998 140.554 19.686C139.978 19.362 139.312 19.2 138.556 19.2C137.728 19.2 136.99 19.386 136.342 19.758C135.694 20.13 135.184 20.658 134.812 21.342C134.452 22.026 134.272 22.818 134.272 23.718C134.272 24.618 134.452 25.416 134.812 26.112C135.184 26.796 135.694 27.324 136.342 27.696C136.99 28.068 137.728 28.254 138.556 28.254C139.672 28.254 140.578 27.942 141.274 27.318C141.97 26.694 142.396 25.848 142.552 24.78H137.854V23.142H144.748V24.744C144.616 25.716 144.268 26.61 143.704 27.426C143.152 28.242 142.426 28.896 141.526 29.388C140.638 29.868 139.648 30.108 138.556 30.108C137.38 30.108 136.306 29.838 135.334 29.298C134.362 28.746 133.588 27.984 133.012 27.012C132.448 26.04 132.166 24.942 132.166 23.718C132.166 22.494 132.448 21.396 133.012 20.424C133.588 19.452 134.362 18.696 135.334 18.156C136.318 17.604 137.392 17.328 138.556 17.328C139.888 17.328 141.07 17.658 142.102 18.318C143.146 18.966 143.902 19.89 144.37 21.09H141.904ZM147.816 18.768C147.444 18.768 147.132 18.642 146.88 18.39C146.628 18.138 146.502 17.826 146.502 17.454C146.502 17.082 146.628 16.77 146.88 16.518C147.132 16.266 147.444 16.14 147.816 16.14C148.176 16.14 148.482 16.266 148.734 16.518C148.986 16.77 149.112 17.082 149.112 17.454C149.112 17.826 148.986 18.138 148.734 18.39C148.482 18.642 148.176 18.768 147.816 18.768ZM148.824 20.082V30H146.772V20.082H148.824ZM153.57 21.522C153.87 21.018 154.266 20.628 154.758 20.352C155.262 20.064 155.856 19.92 156.54 19.92V22.044H156.018C155.214 22.044 154.602 22.248 154.182 22.656C153.774 23.064 153.57 23.772 153.57 24.78V30H151.518V20.082H153.57V21.522ZM159.47 18.768C159.098 18.768 158.786 18.642 158.534 18.39C158.282 18.138 158.156 17.826 158.156 17.454C158.156 17.082 158.282 16.77 158.534 16.518C158.786 16.266 159.098 16.14 159.47 16.14C159.83 16.14 160.136 16.266 160.388 16.518C160.64 16.77 160.766 17.082 160.766 17.454C160.766 17.826 160.64 18.138 160.388 18.39C160.136 18.642 159.83 18.768 159.47 18.768ZM160.478 20.082V30H158.426V20.082H160.478ZM170.57 27.228C170.57 28.008 170.282 28.668 169.706 29.208C169.13 29.736 168.35 30.042 167.366 30.126V30.864C168.062 30.864 168.626 31.026 169.058 31.35C169.49 31.686 169.706 32.154 169.706 32.754C169.706 33.354 169.49 33.828 169.058 34.176C168.626 34.536 168.08 34.716 167.42 34.716H165.044V33.42H167.006C167.342 33.42 167.594 33.372 167.762 33.276C167.93 33.18 168.014 33.006 168.014 32.754C168.014 32.502 167.93 32.328 167.762 32.232C167.594 32.136 167.342 32.088 167.006 32.088H166.016V30.108C165.044 29.988 164.246 29.634 163.622 29.046C162.998 28.458 162.668 27.762 162.632 26.958H164.756C164.792 27.378 164.99 27.732 165.35 28.02C165.722 28.296 166.184 28.434 166.736 28.434C167.312 28.434 167.756 28.326 168.068 28.11C168.392 27.882 168.554 27.594 168.554 27.246C168.554 26.874 168.374 26.598 168.014 26.418C167.666 26.238 167.108 26.04 166.34 25.824C165.596 25.62 164.99 25.422 164.522 25.23C164.054 25.038 163.646 24.744 163.298 24.348C162.962 23.952 162.794 23.43 162.794 22.782C162.794 22.254 162.95 21.774 163.262 21.342C163.574 20.898 164.018 20.55 164.594 20.298C165.182 20.046 165.854 19.92 166.61 19.92C167.738 19.92 168.644 20.208 169.328 20.784C170.024 21.348 170.396 22.122 170.444 23.106H168.392C168.356 22.662 168.176 22.308 167.852 22.044C167.528 21.78 167.09 21.648 166.538 21.648C165.998 21.648 165.584 21.75 165.296 21.954C165.008 22.158 164.864 22.428 164.864 22.764C164.864 23.028 164.96 23.25 165.152 23.43C165.344 23.61 165.578 23.754 165.854 23.862C166.13 23.958 166.538 24.084 167.078 24.24C167.798 24.432 168.386 24.63 168.842 24.834C169.31 25.026 169.712 25.314 170.048 25.698C170.384 26.082 170.558 26.592 170.57 27.228ZM186.733 17.49L182.593 25.464V30H180.541V25.464L176.383 17.49H178.669L181.567 23.628L184.465 17.49H186.733ZM187.678 24.996C187.678 24 187.882 23.118 188.29 22.35C188.71 21.582 189.274 20.988 189.982 20.568C190.702 20.136 191.494 19.92 192.358 19.92C193.138 19.92 193.816 20.076 194.392 20.388C194.98 20.688 195.448 21.066 195.796 21.522V20.082H197.866V30H195.796V28.524C195.448 28.992 194.974 29.382 194.374 29.694C193.774 30.006 193.09 30.162 192.322 30.162C191.47 30.162 190.69 29.946 189.982 29.514C189.274 29.07 188.71 28.458 188.29 27.678C187.882 26.886 187.678 25.992 187.678 24.996ZM195.796 25.032C195.796 24.348 195.652 23.754 195.364 23.25C195.088 22.746 194.722 22.362 194.266 22.098C193.81 21.834 193.318 21.702 192.79 21.702C192.262 21.702 191.77 21.834 191.314 22.098C190.858 22.35 190.486 22.728 190.198 23.232C189.922 23.724 189.784 24.312 189.784 24.996C189.784 25.68 189.922 26.28 190.198 26.796C190.486 27.312 190.858 27.708 191.314 27.984C191.782 28.248 192.274 28.38 192.79 28.38C193.318 28.38 193.81 28.248 194.266 27.984C194.722 27.72 195.088 27.336 195.364 26.832C195.652 26.316 195.796 25.716 195.796 25.032ZM202.613 21.54C202.961 21.084 203.435 20.7 204.035 20.388C204.635 20.076 205.313 19.92 206.069 19.92C206.933 19.92 207.719 20.136 208.427 20.568C209.147 20.988 209.711 21.582 210.119 22.35C210.527 23.118 210.731 24 210.731 24.996C210.731 25.992 210.527 26.886 210.119 27.678C209.711 28.458 209.147 29.07 208.427 29.514C207.719 29.946 206.933 30.162 206.069 30.162C205.313 30.162 204.641 30.012 204.053 29.712C203.465 29.4 202.985 29.016 202.613 28.56V34.716H200.561V20.082H202.613V21.54ZM208.643 24.996C208.643 24.312 208.499 23.724 208.211 23.232C207.935 22.728 207.563 22.35 207.095 22.098C206.639 21.834 206.147 21.702 205.619 21.702C205.103 21.702 204.611 21.834 204.143 22.098C203.687 22.362 203.315 22.746 203.027 23.25C202.751 23.754 202.613 24.348 202.613 25.032C202.613 25.716 202.751 26.316 203.027 26.832C203.315 27.336 203.687 27.72 204.143 27.984C204.611 28.248 205.103 28.38 205.619 28.38C206.147 28.38 206.639 28.248 207.095 27.984C207.563 27.708 207.935 27.312 208.211 26.796C208.499 26.28 208.643 25.68 208.643 24.996Z" fill="white"/>
</svg>
