<svg width="343" height="48" viewBox="0 0 343 48" fill="none" xmlns="http://www.w3.org/2000/svg">
<rect x="0.5" y="0.5" width="342" height="47" rx="9.5" fill="#FCFCFC"/>
<path d="M45.8055 22.0415H45V22H36V26H41.6515C40.827 28.3285 38.6115 30 36 30C32.6865 30 30 27.3135 30 24C30 20.6865 32.6865 18 36 18C37.5295 18 38.921 18.577 39.9805 19.5195L42.809 16.691C41.023 15.0265 38.634 14 36 14C30.4775 14 26 18.4775 26 24C26 29.5225 30.4775 34 36 34C41.5225 34 46 29.5225 46 24C46 23.3295 45.931 22.675 45.8055 22.0415Z" fill="#FFC107"/>
<path d="M27.153 19.3455L30.4385 21.755C31.3275 19.554 33.4805 18 36 18C37.5295 18 38.921 18.577 39.9805 19.5195L42.809 16.691C41.023 15.0265 38.634 14 36 14C32.159 14 28.828 16.1685 27.153 19.3455Z" fill="#FF3D00"/>
<path d="M36 34C38.583 34 40.93 33.0115 42.7045 31.404L39.6095 28.785C38.6055 29.5455 37.3575 30 36 30C33.399 30 31.1905 28.3415 30.3585 26.027L27.0975 28.5395C28.7525 31.778 32.1135 34 36 34Z" fill="#4CAF50"/>
<path d="M45.8055 22.0415H45V22H36V26H41.6515C41.2555 27.1185 40.536 28.083 39.608 28.7855C39.6085 28.785 39.609 28.785 39.6095 28.7845L42.7045 31.4035C42.4855 31.6025 46 29 46 24C46 23.3295 45.931 22.675 45.8055 22.0415Z" fill="#1976D2"/>
<path d="M113.758 22.08C113.449 21.4293 113.001 20.928 112.414 20.576C111.827 20.2133 111.145 20.032 110.366 20.032C109.587 20.032 108.883 20.2133 108.254 20.576C107.635 20.928 107.145 21.44 106.782 22.112C106.43 22.7733 106.254 23.5413 106.254 24.416C106.254 25.2907 106.43 26.0587 106.782 26.72C107.145 27.3813 107.635 27.8933 108.254 28.256C108.883 28.608 109.587 28.784 110.366 28.784C111.454 28.784 112.35 28.4587 113.054 27.808C113.758 27.1573 114.169 26.2773 114.286 25.168H109.838V23.984H115.838V25.104C115.753 26.0213 115.465 26.864 114.974 27.632C114.483 28.3893 113.838 28.992 113.038 29.44C112.238 29.8773 111.347 30.096 110.366 30.096C109.331 30.096 108.387 29.856 107.534 29.376C106.681 28.8853 106.003 28.208 105.502 27.344C105.011 26.48 104.766 25.504 104.766 24.416C104.766 23.328 105.011 22.352 105.502 21.488C106.003 20.6133 106.681 19.936 107.534 19.456C108.387 18.9653 109.331 18.72 110.366 18.72C111.55 18.72 112.595 19.0133 113.502 19.6C114.419 20.1867 115.086 21.0133 115.502 22.08H113.758ZM121.587 30.144C120.766 30.144 120.019 29.9573 119.347 29.584C118.686 29.2107 118.163 28.6827 117.779 28C117.406 27.3067 117.219 26.5067 117.219 25.6C117.219 24.704 117.411 23.9147 117.795 23.232C118.19 22.5387 118.723 22.0107 119.395 21.648C120.067 21.2747 120.819 21.088 121.651 21.088C122.483 21.088 123.235 21.2747 123.907 21.648C124.579 22.0107 125.107 22.5333 125.491 23.216C125.886 23.8987 126.083 24.6933 126.083 25.6C126.083 26.5067 125.881 27.3067 125.475 28C125.081 28.6827 124.542 29.2107 123.859 29.584C123.177 29.9573 122.419 30.144 121.587 30.144ZM121.587 28.864C122.11 28.864 122.601 28.7413 123.059 28.496C123.518 28.2507 123.886 27.8827 124.163 27.392C124.451 26.9013 124.595 26.304 124.595 25.6C124.595 24.896 124.457 24.2987 124.179 23.808C123.902 23.3173 123.539 22.9547 123.091 22.72C122.643 22.4747 122.158 22.352 121.635 22.352C121.102 22.352 120.611 22.4747 120.163 22.72C119.726 22.9547 119.374 23.3173 119.107 23.808C118.841 24.2987 118.707 24.896 118.707 25.6C118.707 26.3147 118.835 26.9173 119.091 27.408C119.358 27.8987 119.71 28.2667 120.147 28.512C120.585 28.7467 121.065 28.864 121.587 28.864ZM131.822 30.144C131 30.144 130.254 29.9573 129.582 29.584C128.92 29.2107 128.398 28.6827 128.014 28C127.64 27.3067 127.454 26.5067 127.454 25.6C127.454 24.704 127.646 23.9147 128.03 23.232C128.424 22.5387 128.958 22.0107 129.63 21.648C130.302 21.2747 131.054 21.088 131.886 21.088C132.718 21.088 133.47 21.2747 134.142 21.648C134.814 22.0107 135.342 22.5333 135.726 23.216C136.12 23.8987 136.318 24.6933 136.318 25.6C136.318 26.5067 136.115 27.3067 135.71 28C135.315 28.6827 134.776 29.2107 134.094 29.584C133.411 29.9573 132.654 30.144 131.822 30.144ZM131.822 28.864C132.344 28.864 132.835 28.7413 133.294 28.496C133.752 28.2507 134.12 27.8827 134.398 27.392C134.686 26.9013 134.83 26.304 134.83 25.6C134.83 24.896 134.691 24.2987 134.414 23.808C134.136 23.3173 133.774 22.9547 133.326 22.72C132.878 22.4747 132.392 22.352 131.87 22.352C131.336 22.352 130.846 22.4747 130.398 22.72C129.96 22.9547 129.608 23.3173 129.342 23.808C129.075 24.2987 128.942 24.896 128.942 25.6C128.942 26.3147 129.07 26.9173 129.326 27.408C129.592 27.8987 129.944 28.2667 130.382 28.512C130.819 28.7467 131.299 28.864 131.822 28.864ZM141.848 21.088C142.605 21.088 143.267 21.2533 143.832 21.584C144.408 21.9147 144.835 22.3307 145.112 22.832V21.232H146.584V30.192C146.584 30.992 146.413 31.7013 146.072 32.32C145.731 32.9493 145.24 33.44 144.6 33.792C143.971 34.144 143.235 34.32 142.392 34.32C141.24 34.32 140.28 34.048 139.512 33.504C138.744 32.96 138.291 32.2187 138.152 31.28H139.592C139.752 31.8133 140.083 32.24 140.584 32.56C141.085 32.8907 141.688 33.056 142.392 33.056C143.192 33.056 143.843 32.8053 144.344 32.304C144.856 31.8027 145.112 31.0987 145.112 30.192V28.352C144.824 28.864 144.397 29.2907 143.832 29.632C143.267 29.9733 142.605 30.144 141.848 30.144C141.069 30.144 140.36 29.952 139.72 29.568C139.091 29.184 138.595 28.6453 138.232 27.952C137.869 27.2587 137.688 26.4693 137.688 25.584C137.688 24.688 137.869 23.904 138.232 23.232C138.595 22.5493 139.091 22.0213 139.72 21.648C140.36 21.2747 141.069 21.088 141.848 21.088ZM145.112 25.6C145.112 24.9387 144.979 24.3627 144.712 23.872C144.445 23.3813 144.083 23.008 143.624 22.752C143.176 22.4853 142.68 22.352 142.136 22.352C141.592 22.352 141.096 22.48 140.648 22.736C140.2 22.992 139.843 23.3653 139.576 23.856C139.309 24.3467 139.176 24.9227 139.176 25.584C139.176 26.256 139.309 26.8427 139.576 27.344C139.843 27.8347 140.2 28.2133 140.648 28.48C141.096 28.736 141.592 28.864 142.136 28.864C142.68 28.864 143.176 28.736 143.624 28.48C144.083 28.2133 144.445 27.8347 144.712 27.344C144.979 26.8427 145.112 26.2613 145.112 25.6ZM150.501 18.16V30H149.045V18.16H150.501ZM160.982 25.28C160.982 25.5573 160.966 25.8507 160.934 26.16H153.926C153.979 27.024 154.273 27.7013 154.806 28.192C155.35 28.672 156.006 28.912 156.774 28.912C157.403 28.912 157.926 28.768 158.342 28.48C158.769 28.1813 159.067 27.7867 159.238 27.296H160.806C160.571 28.1387 160.102 28.8267 159.398 29.36C158.694 29.8827 157.819 30.144 156.774 30.144C155.942 30.144 155.195 29.9573 154.534 29.584C153.883 29.2107 153.371 28.6827 152.998 28C152.625 27.3067 152.438 26.5067 152.438 25.6C152.438 24.6933 152.619 23.8987 152.982 23.216C153.345 22.5333 153.851 22.0107 154.502 21.648C155.163 21.2747 155.921 21.088 156.774 21.088C157.606 21.088 158.342 21.2693 158.982 21.632C159.622 21.9947 160.113 22.496 160.454 23.136C160.806 23.7653 160.982 24.48 160.982 25.28ZM159.478 24.976C159.478 24.4213 159.355 23.9467 159.11 23.552C158.865 23.1467 158.529 22.8427 158.102 22.64C157.686 22.4267 157.222 22.32 156.71 22.32C155.974 22.32 155.345 22.5547 154.822 23.024C154.31 23.4933 154.017 24.144 153.942 24.976H159.478ZM167.922 19.808C167.644 19.808 167.41 19.712 167.218 19.52C167.026 19.328 166.93 19.0933 166.93 18.816C166.93 18.5387 167.026 18.304 167.218 18.112C167.41 17.92 167.644 17.824 167.922 17.824C168.188 17.824 168.412 17.92 168.594 18.112C168.786 18.304 168.882 18.5387 168.882 18.816C168.882 19.0933 168.786 19.328 168.594 19.52C168.412 19.712 168.188 19.808 167.922 19.808ZM168.626 21.232V30H167.17V21.232H168.626ZM172.563 18.16V30H171.107V18.16H172.563ZM183.045 25.28C183.045 25.5573 183.029 25.8507 182.997 26.16H175.989C176.042 27.024 176.335 27.7013 176.869 28.192C177.413 28.672 178.069 28.912 178.837 28.912C179.466 28.912 179.989 28.768 180.405 28.48C180.831 28.1813 181.13 27.7867 181.301 27.296H182.869C182.634 28.1387 182.165 28.8267 181.461 29.36C180.757 29.8827 179.882 30.144 178.837 30.144C178.005 30.144 177.258 29.9573 176.597 29.584C175.946 29.2107 175.434 28.6827 175.061 28C174.687 27.3067 174.501 26.5067 174.501 25.6C174.501 24.6933 174.682 23.8987 175.045 23.216C175.407 22.5333 175.914 22.0107 176.565 21.648C177.226 21.2747 177.983 21.088 178.837 21.088C179.669 21.088 180.405 21.2693 181.045 21.632C181.685 21.9947 182.175 22.496 182.517 23.136C182.869 23.7653 183.045 24.48 183.045 25.28ZM181.541 24.976C181.541 24.4213 181.418 23.9467 181.173 23.552C180.927 23.1467 180.591 22.8427 180.165 22.64C179.749 22.4267 179.285 22.32 178.773 22.32C178.037 22.32 177.407 22.5547 176.885 23.024C176.373 23.4933 176.079 24.144 176.005 24.976H181.541ZM192.848 21.088C193.605 21.088 194.267 21.2533 194.832 21.584C195.408 21.9147 195.835 22.3307 196.112 22.832V21.232H197.584V30.192C197.584 30.992 197.413 31.7013 197.072 32.32C196.731 32.9493 196.24 33.44 195.6 33.792C194.971 34.144 194.235 34.32 193.392 34.32C192.24 34.32 191.28 34.048 190.512 33.504C189.744 32.96 189.291 32.2187 189.152 31.28H190.592C190.752 31.8133 191.083 32.24 191.584 32.56C192.085 32.8907 192.688 33.056 193.392 33.056C194.192 33.056 194.843 32.8053 195.344 32.304C195.856 31.8027 196.112 31.0987 196.112 30.192V28.352C195.824 28.864 195.397 29.2907 194.832 29.632C194.267 29.9733 193.605 30.144 192.848 30.144C192.069 30.144 191.36 29.952 190.72 29.568C190.091 29.184 189.595 28.6453 189.232 27.952C188.869 27.2587 188.688 26.4693 188.688 25.584C188.688 24.688 188.869 23.904 189.232 23.232C189.595 22.5493 190.091 22.0213 190.72 21.648C191.36 21.2747 192.069 21.088 192.848 21.088ZM196.112 25.6C196.112 24.9387 195.979 24.3627 195.712 23.872C195.445 23.3813 195.083 23.008 194.624 22.752C194.176 22.4853 193.68 22.352 193.136 22.352C192.592 22.352 192.096 22.48 191.648 22.736C191.2 22.992 190.843 23.3653 190.576 23.856C190.309 24.3467 190.176 24.9227 190.176 25.584C190.176 26.256 190.309 26.8427 190.576 27.344C190.843 27.8347 191.2 28.2133 191.648 28.48C192.096 28.736 192.592 28.864 193.136 28.864C193.68 28.864 194.176 28.736 194.624 28.48C195.083 28.2133 195.445 27.8347 195.712 27.344C195.979 26.8427 196.112 26.2613 196.112 25.6ZM200.797 19.808C200.519 19.808 200.285 19.712 200.093 19.52C199.901 19.328 199.805 19.0933 199.805 18.816C199.805 18.5387 199.901 18.304 200.093 18.112C200.285 17.92 200.519 17.824 200.797 17.824C201.063 17.824 201.287 17.92 201.469 18.112C201.661 18.304 201.757 18.5387 201.757 18.816C201.757 19.0933 201.661 19.328 201.469 19.52C201.287 19.712 201.063 19.808 200.797 19.808ZM201.501 21.232V30H200.045V21.232H201.501ZM205.438 22.656C205.694 22.1547 206.057 21.7653 206.526 21.488C207.006 21.2107 207.587 21.072 208.27 21.072V22.576H207.886C206.254 22.576 205.438 23.4613 205.438 25.232V30H203.982V21.232H205.438V22.656ZM210.703 19.808C210.425 19.808 210.191 19.712 209.999 19.52C209.807 19.328 209.711 19.0933 209.711 18.816C209.711 18.5387 209.807 18.304 209.999 18.112C210.191 17.92 210.425 17.824 210.703 17.824C210.969 17.824 211.193 17.92 211.375 18.112C211.567 18.304 211.663 18.5387 211.663 18.816C211.663 19.0933 211.567 19.328 211.375 19.52C211.193 19.712 210.969 19.808 210.703 19.808ZM211.407 21.232V30H209.951V21.232H211.407ZM220.192 27.616C220.192 28.2987 219.936 28.8747 219.424 29.344C218.912 29.8027 218.23 30.064 217.376 30.128V30.928C218.006 30.9173 218.507 31.0507 218.88 31.328C219.254 31.6053 219.44 32 219.44 32.512C219.44 33.0133 219.259 33.4133 218.896 33.712C218.534 34.0107 218.064 34.16 217.488 34.16H215.648V33.216H217.2C217.552 33.216 217.808 33.1627 217.968 33.056C218.139 32.9493 218.224 32.768 218.224 32.512C218.224 32.2667 218.139 32.0907 217.968 31.984C217.808 31.8773 217.552 31.824 217.2 31.824H216.4V30.112C215.536 30.016 214.832 29.7227 214.288 29.232C213.744 28.7413 213.451 28.1387 213.408 27.424H214.912C214.955 27.8613 215.158 28.2187 215.52 28.496C215.894 28.7733 216.379 28.912 216.976 28.912C217.531 28.912 217.968 28.7893 218.288 28.544C218.608 28.2987 218.768 27.9893 218.768 27.616C218.768 27.232 218.598 26.9493 218.256 26.768C217.915 26.576 217.387 26.3893 216.672 26.208C216.022 26.0373 215.488 25.8667 215.072 25.696C214.667 25.5147 214.315 25.2533 214.016 24.912C213.728 24.56 213.584 24.1013 213.584 23.536C213.584 23.088 213.718 22.6773 213.984 22.304C214.251 21.9307 214.63 21.6373 215.12 21.424C215.611 21.2 216.171 21.088 216.8 21.088C217.771 21.088 218.555 21.3333 219.152 21.824C219.75 22.3147 220.07 22.9867 220.112 23.84H218.656C218.624 23.3813 218.438 23.0133 218.096 22.736C217.766 22.4587 217.318 22.32 216.752 22.32C216.23 22.32 215.814 22.432 215.504 22.656C215.195 22.88 215.04 23.1733 215.04 23.536C215.04 23.824 215.131 24.064 215.312 24.256C215.504 24.4373 215.739 24.5867 216.016 24.704C216.304 24.8107 216.699 24.9333 217.2 25.072C217.83 25.2427 218.342 25.4133 218.736 25.584C219.131 25.744 219.467 25.9893 219.744 26.32C220.032 26.6507 220.182 27.0827 220.192 27.616ZM234.065 21.232L228.785 34.128H227.281L229.009 29.904L225.473 21.232H227.089L229.841 28.336L232.561 21.232H234.065ZM234.985 25.584C234.985 24.688 235.166 23.904 235.529 23.232C235.892 22.5493 236.388 22.0213 237.017 21.648C237.657 21.2747 238.366 21.088 239.145 21.088C239.913 21.088 240.58 21.2533 241.145 21.584C241.71 21.9147 242.132 22.3307 242.409 22.832V21.232H243.881V30H242.409V28.368C242.121 28.88 241.689 29.3067 241.113 29.648C240.548 29.9787 239.886 30.144 239.129 30.144C238.35 30.144 237.646 29.952 237.017 29.568C236.388 29.184 235.892 28.6453 235.529 27.952C235.166 27.2587 234.985 26.4693 234.985 25.584ZM242.409 25.6C242.409 24.9387 242.276 24.3627 242.009 23.872C241.742 23.3813 241.38 23.008 240.921 22.752C240.473 22.4853 239.977 22.352 239.433 22.352C238.889 22.352 238.393 22.48 237.945 22.736C237.497 22.992 237.14 23.3653 236.873 23.856C236.606 24.3467 236.473 24.9227 236.473 25.584C236.473 26.256 236.606 26.8427 236.873 27.344C237.14 27.8347 237.497 28.2133 237.945 28.48C238.393 28.736 238.889 28.864 239.433 28.864C239.977 28.864 240.473 28.736 240.921 28.48C241.38 28.2133 241.742 27.8347 242.009 27.344C242.276 26.8427 242.409 26.2613 242.409 25.6ZM247.797 22.848C248.085 22.3467 248.512 21.9307 249.077 21.6C249.653 21.2587 250.32 21.088 251.077 21.088C251.856 21.088 252.56 21.2747 253.189 21.648C253.829 22.0213 254.331 22.5493 254.693 23.232C255.056 23.904 255.237 24.688 255.237 25.584C255.237 26.4693 255.056 27.2587 254.693 27.952C254.331 28.6453 253.829 29.184 253.189 29.568C252.56 29.952 251.856 30.144 251.077 30.144C250.331 30.144 249.669 29.9787 249.093 29.648C248.528 29.3067 248.096 28.8853 247.797 28.384V34.16H246.341V21.232H247.797V22.848ZM253.749 25.584C253.749 24.9227 253.616 24.3467 253.349 23.856C253.083 23.3653 252.72 22.992 252.261 22.736C251.813 22.48 251.317 22.352 250.773 22.352C250.24 22.352 249.744 22.4853 249.285 22.752C248.837 23.008 248.475 23.3867 248.197 23.888C247.931 24.3787 247.797 24.9493 247.797 25.6C247.797 26.2613 247.931 26.8427 248.197 27.344C248.475 27.8347 248.837 28.2133 249.285 28.48C249.744 28.736 250.24 28.864 250.773 28.864C251.317 28.864 251.813 28.736 252.261 28.48C252.72 28.2133 253.083 27.8347 253.349 27.344C253.616 26.8427 253.749 26.256 253.749 25.584Z" fill="#1A1A1A"/>
<rect x="0.5" y="0.5" width="342" height="47" rx="9.5" stroke="#D4D4D4"/>
</svg>
