<svg width="224" height="18" viewBox="0 0 224 18" fill="none" xmlns="http://www.w3.org/2000/svg">
<path d="M6.67063 13L2.07863 7.912V13H0.622625V1.848H2.07863V7.016L6.68663 1.848H8.52663L3.47063 7.432L8.57463 13H6.67063ZM18.2008 8.28C18.2008 8.55733 18.1848 8.85067 18.1528 9.16H11.1448C11.1981 10.024 11.4914 10.7013 12.0248 11.192C12.5688 11.672 13.2248 11.912 13.9928 11.912C14.6221 11.912 15.1448 11.768 15.5608 11.48C15.9874 11.1813 16.2861 10.7867 16.4568 10.296H18.0248C17.7901 11.1387 17.3208 11.8267 16.6168 12.36C15.9128 12.8827 15.0381 13.144 13.9928 13.144C13.1608 13.144 12.4141 12.9573 11.7528 12.584C11.1021 12.2107 10.5901 11.6827 10.2168 11C9.84342 10.3067 9.65675 9.50667 9.65675 8.6C9.65675 7.69333 9.83808 6.89867 10.2008 6.216C10.5634 5.53333 11.0701 5.01067 11.7208 4.648C12.3821 4.27467 13.1394 4.088 13.9928 4.088C14.8248 4.088 15.5608 4.26933 16.2008 4.632C16.8408 4.99467 17.3314 5.496 17.6728 6.136C18.0248 6.76533 18.2008 7.48 18.2008 8.28ZM16.6968 7.976C16.6968 7.42133 16.5741 6.94667 16.3288 6.552C16.0834 6.14667 15.7474 5.84267 15.3208 5.64C14.9048 5.42667 14.4408 5.32 13.9288 5.32C13.1928 5.32 12.5634 5.55467 12.0408 6.024C11.5288 6.49333 11.2354 7.144 11.1608 7.976H16.6968ZM27.6746 4.232L22.3946 17.128H20.8906L22.6186 12.904L19.0826 4.232H20.6986L23.4506 11.336L26.1706 4.232H27.6746ZM29.8903 2.808C29.6129 2.808 29.3783 2.712 29.1863 2.52C28.9943 2.328 28.8983 2.09333 28.8983 1.816C28.8983 1.53867 28.9943 1.304 29.1863 1.112C29.3783 0.919999 29.6129 0.823999 29.8903 0.823999C30.1569 0.823999 30.3809 0.919999 30.5623 1.112C30.7543 1.304 30.8503 1.53867 30.8503 1.816C30.8503 2.09333 30.7543 2.328 30.5623 2.52C30.3809 2.712 30.1569 2.808 29.8903 2.808ZM30.5943 4.232V13H29.1383V4.232H30.5943ZM36.6438 5.432H34.8038V13H33.3478V5.432H32.2118V4.232H33.3478V3.608C33.3478 2.62667 33.5984 1.912 34.0998 1.464C34.6118 1.00533 35.4278 0.775999 36.5477 0.775999V1.992C35.9078 1.992 35.4544 2.12 35.1878 2.376C34.9318 2.62133 34.8038 3.032 34.8038 3.608V4.232H36.6438V5.432ZM39.7974 1.16V13H38.3414V1.16H39.7974ZM43.0309 2.808C42.7535 2.808 42.5189 2.712 42.3269 2.52C42.1349 2.328 42.0389 2.09333 42.0389 1.816C42.0389 1.53867 42.1349 1.304 42.3269 1.112C42.5189 0.919999 42.7535 0.823999 43.0309 0.823999C43.2975 0.823999 43.5215 0.919999 43.7029 1.112C43.8949 1.304 43.9909 1.53867 43.9909 1.816C43.9909 2.09333 43.8949 2.328 43.7029 2.52C43.5215 2.712 43.2975 2.808 43.0309 2.808ZM43.7349 4.232V13H42.2789V4.232H43.7349ZM57.074 10.52H52.21L51.314 13H49.778L53.81 1.912H55.49L59.506 13H57.97L57.074 10.52ZM56.658 9.336L54.642 3.704L52.626 9.336H56.658ZM65.5353 4.072C66.6019 4.072 67.4659 4.39733 68.1273 5.048C68.7886 5.688 69.1193 6.616 69.1193 7.832V13H67.6793V8.04C67.6793 7.16533 67.4606 6.49867 67.0233 6.04C66.5859 5.57067 65.9886 5.336 65.2313 5.336C64.4633 5.336 63.8499 5.576 63.3913 6.056C62.9433 6.536 62.7193 7.23467 62.7193 8.152V13H61.2633V4.232H62.7193V5.48C63.0073 5.032 63.3966 4.68533 63.8873 4.44C64.3886 4.19467 64.9379 4.072 65.5353 4.072ZM72.9536 1.16V13H71.4976V1.16H72.9536ZM74.8911 8.584C74.8911 7.688 75.0725 6.904 75.4351 6.232C75.7978 5.54933 76.2938 5.02133 76.9231 4.648C77.5631 4.27467 78.2725 4.088 79.0511 4.088C79.8191 4.088 80.4858 4.25333 81.0511 4.584C81.6165 4.91467 82.0378 5.33067 82.3151 5.832V4.232H83.7871V13H82.3151V11.368C82.0271 11.88 81.5951 12.3067 81.0191 12.648C80.4538 12.9787 79.7925 13.144 79.0351 13.144C78.2565 13.144 77.5525 12.952 76.9231 12.568C76.2938 12.184 75.7978 11.6453 75.4351 10.952C75.0725 10.2587 74.8911 9.46933 74.8911 8.584ZM82.3151 8.6C82.3151 7.93867 82.1818 7.36267 81.9151 6.872C81.6485 6.38133 81.2858 6.008 80.8271 5.752C80.3791 5.48533 79.8831 5.352 79.3391 5.352C78.7951 5.352 78.2991 5.48 77.8511 5.736C77.4031 5.992 77.0458 6.36533 76.7791 6.856C76.5125 7.34667 76.3791 7.92267 76.3791 8.584C76.3791 9.256 76.5125 9.84267 76.7791 10.344C77.0458 10.8347 77.4031 11.2133 77.8511 11.48C78.2991 11.736 78.7951 11.864 79.3391 11.864C79.8831 11.864 80.3791 11.736 80.8271 11.48C81.2858 11.2133 81.6485 10.8347 81.9151 10.344C82.1818 9.84267 82.3151 9.26133 82.3151 8.6ZM87.7036 5.656C87.9596 5.15467 88.3223 4.76533 88.7916 4.488C89.2716 4.21067 89.853 4.072 90.5356 4.072V5.576H90.1516C88.5196 5.576 87.7036 6.46133 87.7036 8.232V13H86.2476V4.232H87.7036V5.656ZM104.29 1.848L100.658 8.792V13H99.202V8.792L95.554 1.848H97.17L99.922 7.496L102.674 1.848H104.29ZM113.826 8.28C113.826 8.55733 113.81 8.85067 113.778 9.16H106.77C106.823 10.024 107.116 10.7013 107.65 11.192C108.194 11.672 108.85 11.912 109.618 11.912C110.247 11.912 110.77 11.768 111.186 11.48C111.612 11.1813 111.911 10.7867 112.082 10.296H113.65C113.415 11.1387 112.946 11.8267 112.242 12.36C111.538 12.8827 110.663 13.144 109.618 13.144C108.786 13.144 108.039 12.9573 107.378 12.584C106.727 12.2107 106.215 11.6827 105.842 11C105.468 10.3067 105.282 9.50667 105.282 8.6C105.282 7.69333 105.463 6.89867 105.826 6.216C106.188 5.53333 106.695 5.01067 107.346 4.648C108.007 4.27467 108.764 4.088 109.618 4.088C110.45 4.088 111.186 4.26933 111.826 4.632C112.466 4.99467 112.956 5.496 113.298 6.136C113.65 6.76533 113.826 7.48 113.826 8.28ZM112.322 7.976C112.322 7.42133 112.199 6.94667 111.954 6.552C111.708 6.14667 111.372 5.84267 110.946 5.64C110.53 5.42667 110.066 5.32 109.554 5.32C108.818 5.32 108.188 5.55467 107.666 6.024C107.154 6.49333 106.86 7.144 106.786 7.976H112.322ZM120.02 4.072C121.086 4.072 121.95 4.39733 122.612 5.048C123.273 5.688 123.604 6.616 123.604 7.832V13H122.164V8.04C122.164 7.16533 121.945 6.49867 121.508 6.04C121.07 5.57067 120.473 5.336 119.716 5.336C118.948 5.336 118.334 5.576 117.876 6.056C117.428 6.536 117.204 7.23467 117.204 8.152V13H115.748V4.232H117.204V5.48C117.492 5.032 117.881 4.68533 118.372 4.44C118.873 4.19467 119.422 4.072 120.02 4.072ZM126.734 2.808C126.457 2.808 126.222 2.712 126.03 2.52C125.838 2.328 125.742 2.09333 125.742 1.816C125.742 1.53867 125.838 1.304 126.03 1.112C126.222 0.919999 126.457 0.823999 126.734 0.823999C127.001 0.823999 127.225 0.919999 127.406 1.112C127.598 1.304 127.694 1.53867 127.694 1.816C127.694 2.09333 127.598 2.328 127.406 2.52C127.225 2.712 127.001 2.808 126.734 2.808ZM127.438 4.232V13H125.982V4.232H127.438ZM137.657 1.848C138.873 1.848 139.924 2.07733 140.809 2.536C141.705 2.984 142.388 3.62933 142.857 4.472C143.337 5.31467 143.577 6.30667 143.577 7.448C143.577 8.58933 143.337 9.58133 142.857 10.424C142.388 11.256 141.705 11.896 140.809 12.344C139.924 12.7813 138.873 13 137.657 13H134.185V1.848H137.657ZM137.657 11.8C139.097 11.8 140.196 11.4213 140.953 10.664C141.71 9.896 142.089 8.824 142.089 7.448C142.089 6.06133 141.705 4.97867 140.937 4.2C140.18 3.42133 139.086 3.032 137.657 3.032H135.641V11.8H137.657ZM153.498 8.28C153.498 8.55733 153.482 8.85067 153.45 9.16H146.442C146.495 10.024 146.788 10.7013 147.322 11.192C147.866 11.672 148.522 11.912 149.29 11.912C149.919 11.912 150.442 11.768 150.858 11.48C151.284 11.1813 151.583 10.7867 151.754 10.296H153.322C153.087 11.1387 152.618 11.8267 151.914 12.36C151.21 12.8827 150.335 13.144 149.29 13.144C148.458 13.144 147.711 12.9573 147.05 12.584C146.399 12.2107 145.887 11.6827 145.514 11C145.14 10.3067 144.954 9.50667 144.954 8.6C144.954 7.69333 145.135 6.89867 145.498 6.216C145.86 5.53333 146.367 5.01067 147.018 4.648C147.679 4.27467 148.436 4.088 149.29 4.088C150.122 4.088 150.858 4.26933 151.498 4.632C152.138 4.99467 152.628 5.496 152.97 6.136C153.322 6.76533 153.498 7.48 153.498 8.28ZM151.994 7.976C151.994 7.42133 151.871 6.94667 151.626 6.552C151.38 6.14667 151.044 5.84267 150.618 5.64C150.202 5.42667 149.738 5.32 149.226 5.32C148.49 5.32 147.86 5.55467 147.338 6.024C146.826 6.49333 146.532 7.144 146.458 7.976H151.994ZM159.692 4.072C160.758 4.072 161.622 4.39733 162.284 5.048C162.945 5.688 163.276 6.616 163.276 7.832V13H161.836V8.04C161.836 7.16533 161.617 6.49867 161.18 6.04C160.742 5.57067 160.145 5.336 159.388 5.336C158.62 5.336 158.006 5.576 157.548 6.056C157.1 6.536 156.876 7.23467 156.876 8.152V13H155.42V4.232H156.876V5.48C157.164 5.032 157.553 4.68533 158.044 4.44C158.545 4.19467 159.094 4.072 159.692 4.072ZM173.654 8.28C173.654 8.55733 173.638 8.85067 173.606 9.16H166.598C166.651 10.024 166.945 10.7013 167.478 11.192C168.022 11.672 168.678 11.912 169.446 11.912C170.075 11.912 170.598 11.768 171.014 11.48C171.441 11.1813 171.739 10.7867 171.91 10.296H173.478C173.243 11.1387 172.774 11.8267 172.07 12.36C171.366 12.8827 170.491 13.144 169.446 13.144C168.614 13.144 167.867 12.9573 167.206 12.584C166.555 12.2107 166.043 11.6827 165.67 11C165.297 10.3067 165.11 9.50667 165.11 8.6C165.11 7.69333 165.291 6.89867 165.654 6.216C166.017 5.53333 166.523 5.01067 167.174 4.648C167.835 4.27467 168.593 4.088 169.446 4.088C170.278 4.088 171.014 4.26933 171.654 4.632C172.294 4.99467 172.785 5.496 173.126 6.136C173.478 6.76533 173.654 7.48 173.654 8.28ZM172.15 7.976C172.15 7.42133 172.027 6.94667 171.782 6.552C171.537 6.14667 171.201 5.84267 170.774 5.64C170.358 5.42667 169.894 5.32 169.382 5.32C168.646 5.32 168.017 5.55467 167.494 6.024C166.982 6.49333 166.689 7.144 166.614 7.976H172.15ZM183.128 4.232L177.848 17.128H176.344L178.072 12.904L174.536 4.232H176.152L178.904 11.336L181.624 4.232H183.128ZM185.343 2.808C185.066 2.808 184.831 2.712 184.639 2.52C184.447 2.328 184.351 2.09333 184.351 1.816C184.351 1.53867 184.447 1.304 184.639 1.112C184.831 0.919999 185.066 0.823999 185.343 0.823999C185.61 0.823999 185.834 0.919999 186.015 1.112C186.207 1.304 186.303 1.53867 186.303 1.816C186.303 2.09333 186.207 2.328 186.015 2.52C185.834 2.712 185.61 2.808 185.343 2.808ZM186.047 4.232V13H184.591V4.232H186.047ZM199.073 4.072C199.756 4.072 200.364 4.216 200.897 4.504C201.43 4.78133 201.852 5.20267 202.161 5.768C202.47 6.33333 202.625 7.02133 202.625 7.832V13H201.185V8.04C201.185 7.16533 200.966 6.49867 200.529 6.04C200.102 5.57067 199.521 5.336 198.785 5.336C198.028 5.336 197.425 5.58133 196.977 6.072C196.529 6.552 196.305 7.25067 196.305 8.168V13H194.865V8.04C194.865 7.16533 194.646 6.49867 194.209 6.04C193.782 5.57067 193.201 5.336 192.465 5.336C191.708 5.336 191.105 5.58133 190.657 6.072C190.209 6.552 189.985 7.25067 189.985 8.168V13H188.529V4.232H189.985V5.496C190.273 5.03733 190.657 4.68533 191.137 4.44C191.628 4.19467 192.166 4.072 192.753 4.072C193.489 4.072 194.14 4.23733 194.705 4.568C195.27 4.89867 195.692 5.384 195.969 6.024C196.214 5.40533 196.62 4.92533 197.185 4.584C197.75 4.24267 198.38 4.072 199.073 4.072ZM206.469 1.16V13H205.013V1.16H206.469ZM216.951 8.28C216.951 8.55733 216.935 8.85067 216.903 9.16H209.895C209.948 10.024 210.241 10.7013 210.775 11.192C211.319 11.672 211.975 11.912 212.743 11.912C213.372 11.912 213.895 11.768 214.311 11.48C214.737 11.1813 215.036 10.7867 215.207 10.296H216.775C216.54 11.1387 216.071 11.8267 215.367 12.36C214.663 12.8827 213.788 13.144 212.743 13.144C211.911 13.144 211.164 12.9573 210.503 12.584C209.852 12.2107 209.34 11.6827 208.967 11C208.593 10.3067 208.407 9.50667 208.407 8.6C208.407 7.69333 208.588 6.89867 208.951 6.216C209.313 5.53333 209.82 5.01067 210.471 4.648C211.132 4.27467 211.889 4.088 212.743 4.088C213.575 4.088 214.311 4.26933 214.951 4.632C215.591 4.99467 216.081 5.496 216.423 6.136C216.775 6.76533 216.951 7.48 216.951 8.28ZM215.447 7.976C215.447 7.42133 215.324 6.94667 215.079 6.552C214.833 6.14667 214.497 5.84267 214.071 5.64C213.655 5.42667 213.191 5.32 212.679 5.32C211.943 5.32 211.313 5.55467 210.791 6.024C210.279 6.49333 209.985 7.144 209.911 7.976H215.447ZM220.329 5.656C220.585 5.15467 220.947 4.76533 221.417 4.488C221.897 4.21067 222.478 4.072 223.161 4.072V5.576H222.777C221.145 5.576 220.329 6.46133 220.329 8.232V13H218.873V4.232H220.329V5.656Z" fill="#1A1A1A"/>
</svg>
