<svg width="14" height="14" viewBox="0 0 14 14" fill="none" xmlns="http://www.w3.org/2000/svg">
<path d="M6.09464 1.42841C6.45462 0.661661 7.54523 0.661732 7.9051 1.42853L9.09063 3.95456C9.23219 4.25618 9.51466 4.46748 9.84397 4.5181L12.5777 4.93828C13.382 5.0619 13.7097 6.04309 13.1413 6.62529L11.1027 8.71309C10.8809 8.94028 10.7802 9.25931 10.8313 9.5727L11.3034 12.4673C11.4378 13.2912 10.5631 13.9073 9.83258 13.5034L7.48389 12.2047C7.18278 12.0382 6.81722 12.0382 6.51611 12.2047L4.16742 13.5034C3.43686 13.9073 2.56218 13.2912 2.69657 12.4673L3.16871 9.5727C3.21983 9.25931 3.11908 8.94028 2.89726 8.71309L0.858673 6.62525C0.290222 6.04306 0.617994 5.06188 1.42223 4.93825L4.15534 4.51809C4.4846 4.46748 4.76703 4.25623 4.9086 3.95468L6.09464 1.42841Z" fill="#F2C12E"/>
</svg>
