<svg width="343" height="67" viewBox="0 0 343 67" fill="none" xmlns="http://www.w3.org/2000/svg">
<rect x="0.5" y="11.5" width="342" height="55" rx="9.5"  stroke="#757575"/>
<rect width="49" height="20" transform="translate(16 1)" fill="#FCFCFC"/>
<path d="M23.576 15.084C23.024 15.084 22.528 14.988 22.088 14.796C21.656 14.596 21.316 14.324 21.068 13.98C20.82 13.628 20.692 13.224 20.684 12.768H21.848C21.888 13.16 22.048 13.492 22.328 13.764C22.616 14.028 23.032 14.16 23.576 14.16C24.096 14.16 24.504 14.032 24.8 13.776C25.104 13.512 25.256 13.176 25.256 12.768C25.256 12.448 25.168 12.188 24.992 11.988C24.816 11.788 24.596 11.636 24.332 11.532C24.068 11.428 23.712 11.316 23.264 11.196C22.712 11.052 22.268 10.908 21.932 10.764C21.604 10.62 21.32 10.396 21.08 10.092C20.848 9.78 20.732 9.364 20.732 8.844C20.732 8.388 20.848 7.984 21.08 7.632C21.312 7.28 21.636 7.008 22.052 6.816C22.476 6.624 22.96 6.528 23.504 6.528C24.288 6.528 24.928 6.724 25.424 7.116C25.928 7.508 26.212 8.028 26.276 8.676H25.076C25.036 8.356 24.868 8.076 24.572 7.836C24.276 7.588 23.884 7.464 23.396 7.464C22.94 7.464 22.568 7.584 22.28 7.824C21.992 8.056 21.848 8.384 21.848 8.808C21.848 9.112 21.932 9.36 22.1 9.552C22.276 9.744 22.488 9.892 22.736 9.996C22.992 10.092 23.348 10.204 23.804 10.332C24.356 10.484 24.8 10.636 25.136 10.788C25.472 10.932 25.76 11.16 26 11.472C26.24 11.776 26.36 12.192 26.36 12.72C26.36 13.128 26.252 13.512 26.036 13.872C25.82 14.232 25.5 14.524 25.076 14.748C24.652 14.972 24.152 15.084 23.576 15.084ZM30.835 15.108C30.219 15.108 29.659 14.968 29.155 14.688C28.659 14.408 28.267 14.012 27.979 13.5C27.699 12.98 27.559 12.38 27.559 11.7C27.559 11.028 27.703 10.436 27.991 9.924C28.287 9.404 28.687 9.008 29.191 8.736C29.695 8.456 30.259 8.316 30.883 8.316C31.507 8.316 32.071 8.456 32.575 8.736C33.079 9.008 33.475 9.4 33.763 9.912C34.059 10.424 34.207 11.02 34.207 11.7C34.207 12.38 34.055 12.98 33.751 13.5C33.455 14.012 33.051 14.408 32.539 14.688C32.027 14.968 31.459 15.108 30.835 15.108ZM30.835 14.148C31.227 14.148 31.595 14.056 31.939 13.872C32.283 13.688 32.559 13.412 32.767 13.044C32.983 12.676 33.091 12.228 33.091 11.7C33.091 11.172 32.987 10.724 32.779 10.356C32.571 9.988 32.299 9.716 31.963 9.54C31.627 9.356 31.263 9.264 30.871 9.264C30.471 9.264 30.103 9.356 29.767 9.54C29.439 9.716 29.175 9.988 28.975 10.356C28.775 10.724 28.675 11.172 28.675 11.7C28.675 12.236 28.771 12.688 28.963 13.056C29.163 13.424 29.427 13.7 29.755 13.884C30.083 14.06 30.443 14.148 30.835 14.148ZM41.3068 8.424L37.3468 18.096H36.2188L37.5148 14.928L34.8628 8.424H36.0748L38.1388 13.752L40.1788 8.424H41.3068ZM41.9965 11.688C41.9965 11.016 42.1325 10.428 42.4045 9.924C42.6765 9.412 43.0485 9.016 43.5205 8.736C44.0005 8.456 44.5325 8.316 45.1165 8.316C45.6925 8.316 46.1925 8.44 46.6165 8.688C47.0405 8.936 47.3565 9.248 47.5645 9.624V8.424H48.6685V15H47.5645V13.776C47.3485 14.16 47.0245 14.48 46.5925 14.736C46.1685 14.984 45.6725 15.108 45.1045 15.108C44.5205 15.108 43.9925 14.964 43.5205 14.676C43.0485 14.388 42.6765 13.984 42.4045 13.464C42.1325 12.944 41.9965 12.352 41.9965 11.688ZM47.5645 11.7C47.5645 11.204 47.4645 10.772 47.2645 10.404C47.0645 10.036 46.7925 9.756 46.4485 9.564C46.1125 9.364 45.7405 9.264 45.3325 9.264C44.9245 9.264 44.5525 9.36 44.2165 9.552C43.8805 9.744 43.6125 10.024 43.4125 10.392C43.2125 10.76 43.1125 11.192 43.1125 11.688C43.1125 12.192 43.2125 12.632 43.4125 13.008C43.6125 13.376 43.8805 13.66 44.2165 13.86C44.5525 14.052 44.9245 14.148 45.3325 14.148C45.7405 14.148 46.1125 14.052 46.4485 13.86C46.7925 13.66 47.0645 13.376 47.2645 13.008C47.4645 12.632 47.5645 12.196 47.5645 11.7ZM50.1058 11.688C50.1058 11.016 50.2418 10.428 50.5138 9.924C50.7858 9.412 51.1578 9.016 51.6298 8.736C52.1098 8.456 52.6458 8.316 53.2378 8.316C53.7498 8.316 54.2258 8.436 54.6658 8.676C55.1058 8.908 55.4418 9.216 55.6738 9.6V6.12H56.7778V15H55.6738V13.764C55.4578 14.156 55.1378 14.48 54.7138 14.736C54.2898 14.984 53.7938 15.108 53.2258 15.108C52.6418 15.108 52.1098 14.964 51.6298 14.676C51.1578 14.388 50.7858 13.984 50.5138 13.464C50.2418 12.944 50.1058 12.352 50.1058 11.688ZM55.6738 11.7C55.6738 11.204 55.5738 10.772 55.3738 10.404C55.1738 10.036 54.9018 9.756 54.5578 9.564C54.2218 9.364 53.8498 9.264 53.4418 9.264C53.0338 9.264 52.6618 9.36 52.3258 9.552C51.9898 9.744 51.7218 10.024 51.5218 10.392C51.3218 10.76 51.2218 11.192 51.2218 11.688C51.2218 12.192 51.3218 12.632 51.5218 13.008C51.7218 13.376 51.9898 13.66 52.3258 13.86C52.6618 14.052 53.0338 14.148 53.4418 14.148C53.8498 14.148 54.2218 14.052 54.5578 13.86C54.9018 13.66 55.1738 13.376 55.3738 13.008C55.5738 12.632 55.6738 12.196 55.6738 11.7ZM59.7152 8.424V15H58.6232V8.424H59.7152Z" fill="#757575"/>
</svg>
