<svg width="101" height="100" viewBox="0 0 101 100" fill="none" xmlns="http://www.w3.org/2000/svg">
<circle cx="50.5" cy="50" r="49.5" fill="white" stroke="#757575"/>
<path d="M69.9367 40.0762C69.7597 39.8977 69.5491 39.756 69.317 39.6593C69.085 39.5626 68.8361 39.5128 68.5847 39.5128C68.3333 39.5128 68.0844 39.5626 67.8524 39.6593C67.6203 39.756 67.4097 39.8977 67.2327 40.0762L64.7762 42.5524V31.9048C64.7762 31.3996 64.5756 30.9151 64.2185 30.5579C63.8614 30.2007 63.377 30 62.872 30C62.367 30 61.8826 30.2007 61.5255 30.5579C61.1684 30.9151 60.9678 31.3996 60.9678 31.9048V42.5524L58.5113 40.0762C58.1527 39.7175 57.6664 39.516 57.1593 39.516C56.6522 39.516 56.1659 39.7175 55.8073 40.0762C55.4487 40.4349 55.2473 40.9213 55.2473 41.4286C55.2473 41.9358 55.4487 42.4223 55.8073 42.781L61.52 48.4952C61.7011 48.6686 61.9147 48.8046 62.1484 48.8952C62.3763 48.996 62.6228 49.0481 62.872 49.0481C63.1212 49.0481 63.3677 48.996 63.5956 48.8952C63.8294 48.8046 64.0429 48.6686 64.224 48.4952L69.9367 42.781C70.1152 42.6039 70.2569 42.3932 70.3535 42.1611C70.4502 41.929 70.5 41.68 70.5 41.4286C70.5 41.1771 70.4502 40.9282 70.3535 40.696C70.2569 40.4639 70.1152 40.2533 69.9367 40.0762ZM62.872 52.8571C62.367 52.8571 61.8826 53.0578 61.5255 53.415C61.1684 53.7722 60.9678 54.2567 60.9678 54.7619V55.4857L58.1495 52.6667C57.1544 51.6791 55.8094 51.125 54.4077 51.125C53.0059 51.125 51.661 51.6791 50.6659 52.6667L49.3329 54L44.6104 49.2762C43.6014 48.3154 42.2616 47.7796 40.8686 47.7796C39.4755 47.7796 38.1358 48.3154 37.1267 49.2762L34.3085 52.0952V41.4286C34.3085 40.9234 34.5091 40.4389 34.8662 40.0817C35.2233 39.7245 35.7077 39.5238 36.2127 39.5238H51.4466C51.9516 39.5238 52.436 39.3231 52.7931 38.9659C53.1502 38.6087 53.3508 38.1242 53.3508 37.619C53.3508 37.1139 53.1502 36.6294 52.7931 36.2722C52.436 35.915 51.9516 35.7143 51.4466 35.7143H36.2127C34.6976 35.7143 33.2446 36.3163 32.1732 37.388C31.1019 38.4596 30.5 39.913 30.5 41.4286V64.2857C30.5 65.8012 31.1019 67.2547 32.1732 68.3263C33.2446 69.398 34.6976 70 36.2127 70H59.0635C60.5786 70 62.0317 69.398 63.103 68.3263C64.1744 67.2547 64.7762 65.8012 64.7762 64.2857V54.7619C64.7762 54.2567 64.5756 53.7722 64.2185 53.415C63.8614 53.0578 63.377 52.8571 62.872 52.8571ZM36.2127 66.1905C35.7077 66.1905 35.2233 65.9898 34.8662 65.6326C34.5091 65.2754 34.3085 64.7909 34.3085 64.2857V57.4857L39.8308 51.9619C40.1105 51.6952 40.4821 51.5465 40.8686 51.5465C41.255 51.5465 41.6266 51.6952 41.9064 51.9619L47.9428 58L56.131 66.1905H36.2127ZM60.9678 64.2857C60.965 64.6503 60.8448 65.0044 60.625 65.2952L52.0369 56.6667L53.3699 55.3333C53.5064 55.194 53.6693 55.0832 53.8492 55.0076C54.029 54.9321 54.2221 54.8931 54.4172 54.8931C54.6123 54.8931 54.8054 54.9321 54.9852 55.0076C55.1651 55.0832 55.328 55.194 55.4645 55.3333L60.9678 60.8762V64.2857Z" fill="#9CA3AF"/>
</svg>
