<svg width="100" height="84" viewBox="0 0 100 84" fill="none" xmlns="http://www.w3.org/2000/svg">
<rect x="0.5" y="0.5" width="99" height="83" rx="14.5" fill="#F1F1F1" stroke="#ADADAD"/>
<path d="M25.04 36.848L21.408 43.792V48H19.952V43.792L16.304 36.848H17.92L20.672 42.496L23.424 36.848H25.04ZM34.3518 39.232V48H32.8958V46.704C32.6184 47.152 32.2291 47.504 31.7278 47.76C31.2371 48.0053 30.6931 48.128 30.0958 48.128C29.4131 48.128 28.7998 47.9893 28.2558 47.712C27.7118 47.424 27.2798 46.9973 26.9598 46.432C26.6504 45.8667 26.4958 45.1787 26.4958 44.368V39.232H27.9358V44.176C27.9358 45.04 28.1544 45.7067 28.5918 46.176C29.0291 46.6347 29.6264 46.864 30.3838 46.864C31.1624 46.864 31.7758 46.624 32.2238 46.144C32.6718 45.664 32.8958 44.9653 32.8958 44.048V39.232H34.3518ZM29.1838 38.048C28.9491 38.048 28.7464 37.968 28.5758 37.808C28.4158 37.648 28.3358 37.4507 28.3358 37.216C28.3358 36.9813 28.4158 36.784 28.5758 36.624C28.7464 36.4533 28.9491 36.368 29.1838 36.368C29.4078 36.368 29.5998 36.4533 29.7598 36.624C29.9304 36.784 30.0158 36.9813 30.0158 37.216C30.0158 37.4507 29.9304 37.648 29.7598 37.808C29.5998 37.968 29.4078 38.048 29.1838 38.048ZM31.7758 38.048C31.5411 38.048 31.3438 37.968 31.1838 37.808C31.0238 37.648 30.9438 37.4507 30.9438 37.216C30.9438 36.9813 31.0238 36.784 31.1838 36.624C31.3438 36.4533 31.5411 36.368 31.7758 36.368C32.0104 36.368 32.2078 36.4533 32.3678 36.624C32.5384 36.784 32.6238 36.9813 32.6238 37.216C32.6238 37.4507 32.5384 37.648 32.3678 37.808C32.2078 37.968 32.0104 38.048 31.7758 38.048ZM41.7061 48L38.2661 44.128V48H36.8101V36.16H38.2661V43.12L41.6421 39.232H43.6741L39.5461 43.6L43.6901 48H41.7061ZM46.5005 36.16V48H45.0445V36.16H46.5005ZM56.982 43.28C56.982 43.5573 56.966 43.8507 56.934 44.16H49.926C49.9793 45.024 50.2727 45.7013 50.806 46.192C51.35 46.672 52.006 46.912 52.774 46.912C53.4033 46.912 53.926 46.768 54.342 46.48C54.7687 46.1813 55.0673 45.7867 55.238 45.296H56.806C56.5713 46.1387 56.102 46.8267 55.398 47.36C54.694 47.8827 53.8193 48.144 52.774 48.144C51.942 48.144 51.1953 47.9573 50.534 47.584C49.8833 47.2107 49.3713 46.6827 48.998 46C48.6247 45.3067 48.438 44.5067 48.438 43.6C48.438 42.6933 48.6193 41.8987 48.982 41.216C49.3447 40.5333 49.8513 40.0107 50.502 39.648C51.1633 39.2747 51.9207 39.088 52.774 39.088C53.606 39.088 54.342 39.2693 54.982 39.632C55.622 39.9947 56.1127 40.496 56.454 41.136C56.806 41.7653 56.982 42.48 56.982 43.28ZM55.478 42.976C55.478 42.4213 55.3553 41.9467 55.11 41.552C54.8647 41.1467 54.5287 40.8427 54.102 40.64C53.686 40.4267 53.222 40.32 52.71 40.32C51.974 40.32 51.3447 40.5547 50.822 41.024C50.31 41.4933 50.0167 42.144 49.942 42.976H55.478Z" fill="black"/>
<path d="M82 45V48H70V45H68V48C68 49.1 68.9 50 70 50H82C83.1 50 84 49.1 84 48V45H82ZM71 39L72.41 40.41L75 37.83V46H77V37.83L79.59 40.41L81 39L76 34L71 39Z" fill="black"/>
</svg>
