<svg width="320" height="32" viewBox="0 0 320 32" fill="none" xmlns="http://www.w3.org/2000/svg">
<path d="M12 11.25C12.4142 11.25 12.75 11.5858 12.75 12V16C12.75 16.4142 12.4142 16.75 12 16.75C11.5858 16.75 11.25 16.4142 11.25 16V12C11.25 11.5858 11.5858 11.25 12 11.25Z" fill="#1C274C"/>
<path d="M12 20C12.5523 20 13 19.5523 13 19C13 18.4477 12.5523 18 12 18C11.4477 18 11 18.4477 11 19C11 19.5523 11.4477 20 12 20Z" fill="#1C274C"/>
<path fill-rule="evenodd" clip-rule="evenodd" d="M8.72339 6.05112C10.1673 5.55658 11.0625 5.25 12 5.25C12.9375 5.25 13.8327 5.55658 15.2766 6.05112L16.004 6.30013C17.4854 6.8072 18.6286 7.19852 19.447 7.53099C19.8592 7.69846 20.2136 7.86067 20.499 8.02641C20.7737 8.1859 21.0492 8.38484 21.2364 8.65154C21.4214 8.91516 21.5171 9.23924 21.5772 9.55122C21.6397 9.87556 21.6774 10.2646 21.7017 10.7114C21.75 11.5984 21.75 12.8136 21.75 14.3898V15.9914C21.75 22.0924 17.142 25.0175 14.4017 26.2146L14.3746 26.2264C14.0348 26.3749 13.7154 26.5144 13.3484 26.6084C12.9609 26.7076 12.5493 26.75 12 26.75C11.4507 26.75 11.0391 26.7076 10.6516 26.6084C10.2846 26.5144 9.96523 26.3749 9.62543 26.2264L9.59833 26.2146C6.85803 25.0175 2.25 22.0924 2.25 15.9914V14.3899C2.25 12.8137 2.25 11.5984 2.2983 10.7114C2.32262 10.2646 2.36031 9.87556 2.42281 9.55122C2.48293 9.23924 2.5786 8.91516 2.76363 8.65154C2.95082 8.38484 3.22634 8.1859 3.50098 8.02641C3.78637 7.86067 4.14078 7.69846 4.55303 7.53099C5.3714 7.19852 6.51462 6.8072 7.99595 6.30014L8.72339 6.05112ZM12 6.75C11.3423 6.75 10.6951 6.96164 9.08062 7.5143L8.5078 7.71037C6.99521 8.22814 5.8921 8.60605 5.11759 8.92069C4.731 9.07774 4.4509 9.20935 4.25429 9.32353C4.15722 9.3799 4.09034 9.42642 4.04567 9.46273C4.0078 9.49351 3.99336 9.51095 3.99129 9.51349C3.98936 9.51663 3.97693 9.5374 3.95943 9.58654C3.93944 9.64265 3.91729 9.72309 3.89571 9.83506C3.85204 10.0617 3.81894 10.373 3.79608 10.7929C3.75028 11.6341 3.75 12.8083 3.75 14.4167V15.9914C3.75 21.1665 7.6199 23.7135 10.1988 24.84C10.5703 25.0023 10.7848 25.0941 11.0236 25.1552C11.2517 25.2136 11.53 25.25 12 25.25C12.47 25.25 12.7483 25.2136 12.9764 25.1552C13.2152 25.0941 13.4297 25.0023 13.8012 24.84C16.3801 23.7135 20.25 21.1665 20.25 15.9914V14.4167C20.25 12.8083 20.2497 11.6341 20.2039 10.7929C20.1811 10.373 20.148 10.0617 20.1043 9.83506C20.0827 9.72309 20.0606 9.64265 20.0406 9.58654C20.0231 9.53737 20.0106 9.5166 20.0087 9.51348C20.0066 9.51092 19.9922 9.49349 19.9543 9.46273C19.9097 9.42642 19.8428 9.3799 19.7457 9.32353C19.5491 9.20935 19.269 9.07774 18.8824 8.92069C18.1079 8.60605 17.0048 8.22814 15.4922 7.71037L14.9194 7.5143C13.3049 6.96164 12.6577 6.75 12 6.75Z" fill="#1C274C"/>
<path d="M44.416 10.8H42.832L39.232 16.704L35.648 10.8H33.936L38.384 18.096V22H39.968V18.128L44.416 10.8ZM47.8565 13.44C46.4965 13.44 45.2325 13.824 44.3525 14.528L44.9925 15.68C45.6485 15.12 46.6725 14.768 47.6805 14.768C49.2005 14.768 49.9525 15.52 49.9525 16.816V17.12H47.5205C44.9925 17.12 44.1125 18.24 44.1125 19.6C44.1125 21.072 45.3285 22.096 47.2485 22.096C48.5765 22.096 49.5205 21.648 50.0325 20.88V22H51.4885V16.88C51.4885 14.56 50.1765 13.44 47.8565 13.44ZM47.5045 20.912C46.3365 20.912 45.6325 20.384 45.6325 19.536C45.6325 18.816 46.0645 18.224 47.5845 18.224H49.9525V19.408C49.5685 20.384 48.6565 20.912 47.5045 20.912ZM56.763 22.096C59.019 22.096 60.427 21.12 60.427 19.584C60.427 16.288 55.051 17.92 55.051 15.92C55.051 15.248 55.707 14.752 57.051 14.752C57.883 14.752 58.731 14.928 59.499 15.424L60.155 14.208C59.419 13.728 58.171 13.44 57.067 13.44C54.891 13.44 53.531 14.464 53.531 15.984C53.531 19.36 58.891 17.712 58.891 19.616C58.891 20.336 58.299 20.768 56.875 20.768C55.771 20.768 54.619 20.4 53.899 19.888L53.259 21.104C53.963 21.664 55.355 22.096 56.763 22.096ZM65.4346 13.44C64.0746 13.44 62.8106 13.824 61.9306 14.528L62.5706 15.68C63.2266 15.12 64.2506 14.768 65.2586 14.768C66.7786 14.768 67.5306 15.52 67.5306 16.816V17.12H65.0986C62.5706 17.12 61.6906 18.24 61.6906 19.6C61.6906 21.072 62.9066 22.096 64.8266 22.096C66.1546 22.096 67.0986 21.648 67.6106 20.88V22H69.0666V16.88C69.0666 14.56 67.7546 13.44 65.4346 13.44ZM65.0826 20.912C63.9146 20.912 63.2106 20.384 63.2106 19.536C63.2106 18.816 63.6426 18.224 65.1626 18.224H67.5306V19.408C67.1466 20.384 66.2346 20.912 65.0826 20.912ZM71.9091 22H73.4451V10.128H71.9091V22ZM84.1628 22.128C87.1228 22.128 88.4988 20.656 88.4988 18.944C88.4988 14.832 81.7148 16.544 81.7148 13.808C81.7148 12.832 82.5308 12.032 84.4348 12.032C85.4268 12.032 86.5308 12.32 87.5068 12.944L88.0347 11.664C87.1068 11.024 85.7468 10.672 84.4348 10.672C81.4908 10.672 80.1468 12.144 80.1468 13.872C80.1468 18.032 86.9308 16.304 86.9308 19.04C86.9308 20.016 86.0988 20.768 84.1628 20.768C82.7228 20.768 81.2988 20.224 80.4668 19.472L79.8748 20.72C80.7708 21.552 82.4508 22.128 84.1628 22.128ZM92.7403 12.016C93.1883 12.016 93.5563 11.68 93.5563 11.2C93.5563 10.72 93.1883 10.368 92.7403 10.368C92.2923 10.368 91.9243 10.72 91.9243 11.2C91.9243 11.68 92.2923 12.016 92.7403 12.016ZM95.7163 12.016C96.1643 12.016 96.5323 11.68 96.5323 11.2C96.5323 10.72 96.1643 10.368 95.7163 10.368C95.2683 10.368 94.9003 10.72 94.9003 11.2C94.9003 11.68 95.2683 12.016 95.7163 12.016ZM94.2443 22.096C96.7883 22.096 98.6443 20.288 98.6443 17.76C98.6443 15.232 96.7883 13.44 94.2443 13.44C91.7003 13.44 89.8283 15.232 89.8283 17.76C89.8283 20.288 91.7003 22.096 94.2443 22.096ZM94.2443 20.752C92.6123 20.752 91.3803 19.568 91.3803 17.76C91.3803 15.952 92.6123 14.784 94.2443 14.784C95.8763 14.784 97.0923 15.952 97.0923 17.76C97.0923 19.568 95.8763 20.752 94.2443 20.752ZM101.796 20.736L106.804 14.528V13.52H99.9235V14.784H104.836L99.8275 21.008V22H106.932V20.736H101.796ZM108.987 22H110.523V10.128H108.987V22ZM121.12 17.808C121.12 15.2 119.376 13.44 116.928 13.44C114.48 13.44 112.672 15.248 112.672 17.76C112.672 20.288 114.496 22.096 117.232 22.096C118.64 22.096 119.808 21.616 120.576 20.72L119.728 19.728C119.104 20.416 118.272 20.752 117.28 20.752C115.6 20.752 114.4 19.76 114.208 18.272H121.088C121.104 18.128 121.12 17.936 121.12 17.808ZM116.928 14.736C118.416 14.736 119.488 15.744 119.648 17.168H114.208C114.368 15.728 115.456 14.736 116.928 14.736ZM129.349 19.584C129.349 16.288 123.973 17.92 123.973 15.92C123.973 15.248 124.629 14.752 125.973 14.752C126.805 14.752 127.653 14.928 128.421 15.424L129.077 14.208C128.341 13.728 127.093 13.44 125.989 13.44C123.813 13.44 122.453 14.464 122.453 15.984C122.453 19.36 127.813 17.712 127.813 19.616C127.813 20.336 127.221 20.768 125.797 20.768C124.693 20.768 123.541 20.4 122.821 19.888L122.181 21.104C122.821 21.616 124.005 22.016 125.269 22.08L124.917 23.456H125.349C125.989 23.456 126.261 23.712 126.261 24.08C126.261 24.48 125.973 24.72 125.365 24.72C124.965 24.72 124.613 24.64 124.277 24.448L123.941 25.232C124.341 25.472 124.805 25.584 125.365 25.584C126.565 25.584 127.349 25.024 127.349 24.128C127.349 23.424 126.885 22.896 125.957 22.8L126.149 22.08C128.133 21.952 129.349 21.008 129.349 19.584ZM141.877 13.44C140.437 13.44 139.253 14.048 138.613 15.008C138.053 13.952 136.965 13.44 135.669 13.44C134.389 13.44 133.349 13.92 132.741 14.784V13.52H131.269V22H132.805V17.632C132.805 15.792 133.812 14.816 135.349 14.816C136.741 14.816 137.541 15.632 137.541 17.296V22H139.077V17.632C139.077 15.792 140.085 14.816 141.621 14.816C143.013 14.816 143.813 15.632 143.813 17.296V22H145.349V17.12C145.349 14.624 143.941 13.44 141.877 13.44ZM155.886 17.808C155.886 15.2 154.142 13.44 151.694 13.44C149.246 13.44 147.438 15.248 147.438 17.76C147.438 20.288 149.262 22.096 151.998 22.096C153.406 22.096 154.574 21.616 155.342 20.72L154.494 19.728C153.87 20.416 153.038 20.752 152.046 20.752C150.366 20.752 149.166 19.76 148.974 18.272H155.854C155.87 18.128 155.886 17.936 155.886 17.808ZM151.694 14.736C153.182 14.736 154.254 15.744 154.414 17.168H148.974C149.134 15.728 150.222 14.736 151.694 14.736ZM158.019 22H159.555V10.128H158.019V22ZM170.151 17.808C170.151 15.2 168.407 13.44 165.959 13.44C163.511 13.44 161.703 15.248 161.703 17.76C161.703 20.288 163.527 22.096 166.263 22.096C167.671 22.096 168.839 21.616 169.607 20.72L168.759 19.728C168.135 20.416 167.303 20.752 166.311 20.752C164.631 20.752 163.431 19.76 163.239 18.272H170.119C170.135 18.128 170.151 17.936 170.151 17.808ZM165.959 14.736C167.447 14.736 168.519 15.744 168.679 17.168H163.239C163.399 15.728 164.487 14.736 165.959 14.736ZM173.756 14.944V13.52H172.284V22H173.82V17.776C173.82 15.92 174.844 14.912 176.492 14.912C176.604 14.912 176.716 14.912 176.844 14.928V13.44C175.356 13.44 174.3 13.952 173.756 14.944Z" fill="#1A1A1A"/>
<path d="M304.875 6.9001L313.3 15.3001C313.4 15.4001 313.471 15.5084 313.512 15.6251C313.554 15.7418 313.575 15.8668 313.575 16.0001C313.575 16.1334 313.554 16.2584 313.512 16.3751C313.471 16.4918 313.4 16.6001 313.3 16.7001L304.875 25.1251C304.642 25.3584 304.35 25.4751 304 25.4751C303.65 25.4751 303.35 25.3501 303.1 25.1001C302.85 24.8501 302.725 24.5584 302.725 24.2251C302.725 23.8918 302.85 23.6001 303.1 23.3501L310.45 16.0001L303.1 8.6501C302.867 8.41676 302.75 8.12943 302.75 7.7881C302.75 7.4461 302.875 7.1501 303.125 6.9001C303.375 6.6501 303.667 6.5251 304 6.5251C304.333 6.5251 304.625 6.6501 304.875 6.9001Z" fill="black"/>
</svg>
