<svg width="36" height="36" viewBox="0 0 36 36" fill="none" xmlns="http://www.w3.org/2000/svg">
<path d="M4.5 4.5V11.193M4.5 11.193V11.328M4.5 11.193C4.5 13.104 5.2875 14.796 6.5085 15.891C7.1055 16.4265 7.5 17.1975 7.5 18V28.5C7.5 30.75 9 31.5 10.5 31.5C12 31.5 13.5 30.75 13.5 28.5V18C13.5 17.1975 13.8945 16.4265 14.4915 15.891C15.7125 14.796 16.5 13.104 16.5 11.193V4.5" stroke="#757575" stroke-width="2" stroke-linecap="round" stroke-linejoin="round"/>
<path d="M10.5 12V4.5" stroke="#757575" stroke-width="2" stroke-linecap="round" stroke-linejoin="round"/>
<path d="M31.5 6C31.5 5.172 30.828 4.5 30 4.5H27C24.5145 4.5 22.5 6.5145 22.5 9V17.25C22.5 19.5 24.75 21 27 21.75V29.25C27 30.492 28.008 31.5 29.25 31.5C30.492 31.5 31.5 30.492 31.5 29.25V22.5V6Z" stroke="#757575" stroke-width="2" stroke-linecap="round" stroke-linejoin="round"/>
</svg>
